<svg width="565" height="505" viewBox="0 0 565 505" fill="none" xmlns="http://www.w3.org/2000/svg">
<path d="M285.927 504.134C439.849 504.134 564.628 496.239 564.628 486.5C564.628 476.761 439.849 468.866 285.927 468.866C132.004 468.866 7.22559 476.761 7.22559 486.5C7.22559 496.239 132.004 504.134 285.927 504.134Z" fill="#CAE6FE"/>
<path d="M515.987 167.526C515.987 169.034 515.372 170.409 514.371 171.405C513.382 172.406 512.008 173.021 510.499 173.021H393.045C390.028 173.021 387.557 170.549 387.557 167.526C387.557 166.018 388.171 164.643 389.173 163.648C390.162 162.646 391.537 162.032 393.045 162.032H398.596C400.789 156.936 405.853 153.375 411.745 153.375C415.712 153.375 419.3 154.991 421.898 157.596C425.358 151.728 431.74 147.786 439.047 147.786C441.056 147.786 442.988 148.09 444.814 148.642C448.635 141.455 456.189 136.563 464.896 136.563C475.352 136.563 484.148 143.623 486.804 153.231C488.73 152.267 490.904 151.716 493.21 151.716C499.731 151.716 505.232 156.07 506.962 162.033H510.499C513.515 162.032 515.987 164.503 515.987 167.526Z" fill="#CAE6FE"/>
<path d="M110.707 71.8177C110.707 73.1177 110.177 74.303 109.314 75.1608C108.461 76.0237 107.276 76.554 105.976 76.554H4.73121C2.13131 76.554 0 74.4239 0 71.8177C0 70.5178 0.530309 69.3325 1.39316 68.4746C2.24468 67.6118 3.43126 67.0815 4.73121 67.0815H9.51657C11.4073 62.6891 15.7719 59.6194 20.8521 59.6194C24.272 59.6194 27.3631 61.0125 29.604 63.2572C32.5868 58.1985 38.0877 54.8013 44.3859 54.8013C46.1179 54.8013 47.7831 55.0633 49.3564 55.5381C52.6504 49.3432 59.1614 45.126 66.6676 45.126C75.6816 45.126 83.2634 51.2113 85.5521 59.4934C87.2123 58.6633 89.0867 58.1884 91.0744 58.1884C96.6962 58.1884 101.437 61.9409 102.929 67.0815H105.977C108.577 67.0815 110.707 69.2128 110.707 71.8177Z" fill="#CAE6FE"/>
<path d="M299.096 46.4373C299.096 47.7549 298.559 48.9553 297.685 49.8245C296.821 50.6987 295.621 51.2365 294.303 51.2365H191.713C189.078 51.2365 186.919 49.0775 186.919 46.4373C186.919 45.1197 187.456 43.9193 188.331 43.0501C189.194 42.1759 190.396 41.6381 191.713 41.6381H196.561C198.476 37.1878 202.899 34.0765 208.047 34.0765C211.512 34.0765 214.645 35.4873 216.915 37.7634C219.937 32.638 225.511 29.1954 231.893 29.1954C233.648 29.1954 235.336 29.4612 236.93 29.9423C240.268 23.6656 246.866 19.3916 254.472 19.3916C263.606 19.3916 271.288 25.5588 273.607 33.9492C275.29 33.1078 277.188 32.6266 279.204 32.6266C284.9 32.6266 289.704 36.4295 291.216 41.6381H294.304C296.937 41.6381 299.096 43.7971 299.096 46.4373Z" fill="#CAE6FE"/>
<path d="M520.578 134.291C524.397 134.291 527.505 137.398 527.505 141.217C527.505 145.037 524.397 148.144 520.578 148.144C516.759 148.144 513.651 145.037 513.651 141.217C513.651 137.398 516.759 134.291 520.578 134.291ZM520.578 136.463C517.957 136.463 515.824 138.596 515.824 141.217C515.824 143.839 517.957 145.971 520.578 145.971C523.199 145.971 525.332 143.839 525.332 141.217C525.332 138.596 523.199 136.463 520.578 136.463Z" fill="#2A365C"/>
<path d="M513.53 99.0835C517.35 99.0835 520.457 102.191 520.457 106.01C520.457 109.829 517.35 112.937 513.53 112.937C509.711 112.937 506.604 109.829 506.604 106.01C506.604 102.191 509.711 99.0835 513.53 99.0835ZM513.53 101.258C510.909 101.258 508.776 103.39 508.776 106.012C508.776 108.633 510.909 110.765 513.53 110.765C516.152 110.765 518.284 108.633 518.284 106.012C518.284 103.39 516.152 101.258 513.53 101.258Z" fill="#61B3FF"/>
<path d="M492.459 89.3288C492.459 89.9284 492.945 90.4158 493.546 90.4158H498.338C498.939 90.4158 499.425 89.9296 499.425 89.3288C499.425 88.7292 498.939 88.2417 498.338 88.2417H493.546C492.946 88.243 492.459 88.7292 492.459 89.3288Z" fill="#009EF3"/>
<path d="M484.073 89.3288C484.073 89.9284 484.559 90.4158 485.16 90.4158H489.952C490.552 90.4158 491.039 89.9296 491.039 89.3288C491.039 88.7292 490.553 88.2417 489.952 88.2417H485.16C484.561 88.243 484.073 88.7292 484.073 89.3288Z" fill="#009EF3"/>
<path d="M490.663 82.6037V86.9079C490.663 87.5074 491.149 87.9949 491.75 87.9949C492.35 87.9949 492.836 87.5087 492.836 86.9079V82.6037C492.836 82.0041 492.35 81.5166 491.75 81.5166C491.149 81.5166 490.663 82.0028 490.663 82.6037Z" fill="#009EF3"/>
<path d="M490.663 91.7502V96.0543C490.663 96.6539 491.149 97.1401 491.75 97.1401C492.35 97.1401 492.836 96.6539 492.836 96.0543V91.7502C492.836 91.1506 492.35 90.6631 491.75 90.6631C491.149 90.6643 490.663 91.1506 490.663 91.7502Z" fill="#009EF3"/>
<path d="M500.272 126.327C500.272 126.926 500.759 127.414 501.358 127.414H506.15C506.75 127.414 507.237 126.928 507.237 126.327C507.237 125.727 506.751 125.24 506.15 125.24H501.358C500.759 125.24 500.272 125.727 500.272 126.327Z" fill="#007CE6"/>
<path d="M491.887 126.327C491.887 126.926 492.373 127.414 492.974 127.414H497.765C498.365 127.414 498.853 126.928 498.853 126.327C498.853 125.727 498.366 125.24 497.765 125.24H492.974C492.373 125.24 491.887 125.727 491.887 126.327Z" fill="#007CE6"/>
<path d="M498.475 119.6V123.904C498.475 124.504 498.961 124.992 499.562 124.992C500.161 124.992 500.649 124.505 500.649 123.904V119.6C500.649 119.001 500.163 118.513 499.562 118.513C498.962 118.514 498.475 119.001 498.475 119.6Z" fill="#007CE6"/>
<path d="M498.475 128.748V133.052C498.475 133.652 498.961 134.139 499.562 134.139C500.161 134.139 500.649 133.653 500.649 133.052V128.748C500.649 128.149 500.163 127.661 499.562 127.661C498.962 127.662 498.475 128.149 498.475 128.748Z" fill="#007CE6"/>
<path d="M55.354 167.841C55.354 171.661 52.2465 174.768 48.4272 174.768C44.608 174.768 41.5005 171.661 41.5005 167.841C41.5005 164.022 44.608 160.915 48.4272 160.915C52.2465 160.915 55.354 164.022 55.354 167.841ZM53.1811 167.841C53.1811 165.22 51.0485 163.087 48.4272 163.087C45.8059 163.087 43.6734 165.22 43.6734 167.841C43.6734 170.463 45.8059 172.595 48.4272 172.595C51.0485 172.595 53.1811 170.464 53.1811 167.841Z" fill="#009EF3"/>
<path d="M83.6304 158.497C83.6304 162.316 80.5228 165.424 76.7036 165.424C72.8844 165.424 69.7769 162.316 69.7769 158.497C69.7769 154.678 72.8844 151.57 76.7036 151.57C80.5228 151.569 83.6304 154.677 83.6304 158.497ZM81.4575 158.497C81.4575 155.876 79.3249 153.743 76.7036 153.743C74.0823 153.743 71.9497 155.876 71.9497 158.497C71.9497 161.118 74.0823 163.251 76.7036 163.251C79.3249 163.251 81.4575 161.118 81.4575 158.497Z" fill="#2A365C"/>
<path d="M84.5153 128.759C83.9157 128.759 83.4282 129.245 83.4282 129.846V134.638C83.4282 135.238 83.9144 135.725 84.5153 135.725C85.1161 135.725 85.6024 135.238 85.6024 134.638V129.846C85.6024 129.245 85.1149 128.759 84.5153 128.759Z" fill="#007CE6"/>
<path d="M84.5153 120.372C83.9157 120.372 83.4282 120.858 83.4282 121.459V126.25C83.4282 126.85 83.9144 127.337 84.5153 127.337C85.1161 127.337 85.6024 126.851 85.6024 126.25V121.459C85.6024 120.859 85.1149 120.372 84.5153 120.372Z" fill="#007CE6"/>
<path d="M91.2423 126.961H86.9381C86.3386 126.961 85.8511 127.447 85.8511 128.048C85.8511 128.648 86.3373 129.135 86.9381 129.135H91.2423C91.8419 129.135 92.3294 128.649 92.3294 128.048C92.3281 127.447 91.8419 126.961 91.2423 126.961Z" fill="#007CE6"/>
<path d="M82.0944 126.961H77.7902C77.1906 126.961 76.7031 127.447 76.7031 128.048C76.7031 128.648 77.1893 129.135 77.7902 129.135H82.0944C82.694 129.135 83.1814 128.649 83.1814 128.048C83.1802 127.447 82.694 126.961 82.0944 126.961Z" fill="#007CE6"/>
<path d="M55.1525 136.434C54.5529 136.434 54.0654 136.92 54.0654 137.521V142.313C54.0654 142.914 54.5516 143.4 55.1525 143.4C55.7521 143.4 56.2396 142.914 56.2396 142.313V137.521C56.2396 136.92 55.7533 136.434 55.1525 136.434Z" fill="#61B3FF"/>
<path d="M55.1525 128.048C54.5529 128.048 54.0654 128.535 54.0654 129.135V133.927C54.0654 134.528 54.5516 135.014 55.1525 135.014C55.7521 135.014 56.2396 134.528 56.2396 133.927V129.135C56.2396 128.535 55.7533 128.048 55.1525 128.048Z" fill="#61B3FF"/>
<path d="M61.8795 134.636H57.5753C56.9758 134.636 56.4883 135.122 56.4883 135.723C56.4883 136.324 56.9745 136.81 57.5753 136.81H61.8795C62.4791 136.81 62.9653 136.324 62.9653 135.723C62.9653 135.124 62.4791 134.636 61.8795 134.636Z" fill="#61B3FF"/>
<path d="M52.7316 134.636H48.4274C47.8278 134.636 47.3403 135.122 47.3403 135.723C47.3403 136.324 47.8266 136.81 48.4274 136.81H52.7316C53.3312 136.81 53.8187 136.324 53.8187 135.723C53.8174 135.124 53.3312 134.636 52.7316 134.636Z" fill="#61B3FF"/>
<path d="M77.4772 204.278V227.41C77.4772 228.892 76.2793 230.081 74.808 230.081H51.666C50.6507 230.081 49.774 229.523 49.3167 228.691C49.2714 228.599 49.2248 228.509 49.1983 228.417C49.153 228.279 49.1064 228.142 49.061 227.996C49.061 227.978 49.0522 227.968 49.0522 227.951C49.0522 227.933 49.0434 227.905 49.0434 227.886C49.0157 227.731 48.998 227.575 48.998 227.412V204.28C48.998 202.89 50.0499 201.765 51.3838 201.619C51.4758 201.619 51.5765 201.61 51.6672 201.61H74.8093C75.0839 201.61 75.3484 201.647 75.5953 201.729C75.5953 201.729 75.5953 201.729 75.6041 201.729C76.6912 202.066 77.4772 203.072 77.4772 204.278Z" fill="#2A365C"/>
<path d="M64.9257 223.693L64.9069 226L61.9769 225.976L61.9946 223.773C59.9174 223.632 57.9058 223.053 56.665 222.275L58.2736 218.713C59.639 219.534 61.463 220.069 63.064 220.082C64.4559 220.093 64.9572 219.806 64.9623 219.307C64.9774 217.478 56.922 218.889 56.9661 213.464C56.985 211.116 58.7056 209.154 62.118 208.705L62.1369 206.44L65.0668 206.464L65.0492 208.687C66.5859 208.846 68.0786 209.253 69.2589 209.927L67.7549 213.469C66.3265 212.729 64.9787 212.365 63.7115 212.355C62.278 212.344 61.817 212.756 61.8132 213.255C61.7993 215 69.8535 213.611 69.8094 218.973C69.7892 221.218 68.1517 223.158 64.9257 223.693Z" fill="#FEFDFF"/>
<path d="M534.847 364.974V388.133C534.847 389.616 533.648 390.806 532.174 390.806H509.004C507.987 390.806 507.11 390.248 506.651 389.414C506.606 389.323 506.559 389.232 506.531 389.14C506.486 389.003 506.439 388.865 506.394 388.719C506.394 388.702 506.385 388.691 506.385 388.674C506.385 388.655 506.376 388.628 506.376 388.61C506.349 388.453 506.331 388.298 506.331 388.133V364.974C506.331 363.582 507.384 362.456 508.721 362.31C508.813 362.31 508.913 362.301 509.004 362.301H532.174C532.448 362.301 532.714 362.337 532.961 362.419C532.961 362.419 532.961 362.419 532.97 362.419C534.059 362.758 534.847 363.766 534.847 364.974Z" fill="#61B3FF"/>
<path d="M520.878 368.094C515.954 368.094 511.947 372.099 511.947 377.025C511.947 381.949 515.953 385.955 520.878 385.955C525.802 385.955 529.809 381.949 529.809 377.025C529.808 372.099 525.802 368.094 520.878 368.094ZM521.237 380.321V377.192H525.274C525.249 378.298 525.089 379.35 524.797 380.321H521.237ZM523.766 383.886C524.423 383.053 524.944 382.096 525.318 381.04H528.038C526.888 383.085 524.959 384.523 522.691 385.035C523.075 384.691 523.435 384.305 523.766 383.886ZM524.552 381.04C524.216 381.918 523.768 382.718 523.22 383.42C522.363 384.513 521.508 385.069 521.237 385.229V381.042H524.552V381.04ZM521.237 372.627V368.821C521.343 368.826 521.45 368.832 521.557 368.841C522.004 369.22 523.404 370.517 524.357 372.628H521.237V372.627ZM525.141 372.627C524.821 371.858 524.416 371.121 523.938 370.433C523.591 369.935 523.211 369.468 522.808 369.041C524.862 369.539 526.665 370.83 527.81 372.627H525.141ZM521.237 376.474V373.345H524.649C525.019 374.353 525.228 375.405 525.269 376.474H521.237ZM525.988 376.474C525.949 375.411 525.755 374.359 525.413 373.345H528.219C528.712 374.325 528.999 375.377 529.072 376.474H525.988ZM529.087 377.192C529.066 378.279 528.834 379.331 528.398 380.321H525.545C525.818 379.344 525.968 378.292 525.992 377.192H529.087ZM516.294 380.321H513.358C512.922 379.331 512.69 378.279 512.669 377.192H515.847C515.871 378.292 516.021 379.344 516.294 380.321ZM517.481 372.627C517.758 372.011 518.093 371.417 518.48 370.86C519.231 369.778 519.982 369.093 520.291 368.833C520.367 368.828 520.442 368.824 520.519 368.821V372.627H517.481ZM520.519 373.345V376.474H516.57C516.612 375.408 516.821 374.357 517.189 373.345H520.519ZM513.946 372.627C515.113 370.796 516.954 369.494 519.054 369.016C518.641 369.449 518.254 369.925 517.9 370.433C517.422 371.121 517.017 371.858 516.697 372.627H513.946ZM520.519 377.192V380.321H517.041C516.75 379.354 516.59 378.302 516.565 377.192H520.519ZM512.684 376.474C512.756 375.378 513.043 374.326 513.537 373.345H516.427C516.083 374.359 515.889 375.411 515.85 376.474H512.684ZM516.521 381.04C516.895 382.097 517.418 383.054 518.073 383.886C518.412 384.315 518.781 384.708 519.174 385.057C516.886 384.57 514.873 383.091 513.717 381.04H516.521ZM520.519 381.04V385.177C519.976 384.838 518.279 383.614 517.288 381.04H520.519Z" fill="#FEFDFF"/>
<path d="M349.491 130.384L352.684 131.438L354.378 131.996L359.177 133.578C359.177 133.578 430.664 75.7506 412.345 41.3033C406.706 30.6984 389.658 31.3572 380.096 66.811C371.232 99.6749 349.491 130.384 349.491 130.384Z" fill="#ABD3F2"/>
<path d="M352.684 131.438L354.378 131.996C368.739 116.877 379.823 99.0077 386.81 86.1694C395.107 70.9253 399.589 59.2774 399.632 59.1615C399.792 58.7458 399.584 58.2785 399.167 58.1223C398.752 57.9624 398.284 58.1702 398.127 58.5846C398.083 58.7018 393.632 70.2678 385.381 85.4212C378.357 98.3224 367.174 116.334 352.684 131.438Z" fill="#90C3EF"/>
<path d="M163.102 435.284L159.954 435.488L158.284 435.595L153.554 435.901C153.554 435.901 102.27 366.559 127.017 339.598C134.635 331.298 149.957 335.911 150.289 370.353C150.596 402.281 163.102 435.284 163.102 435.284Z" fill="#ABD3F2"/>
<path d="M159.954 435.488L158.283 435.595C148.806 418.485 142.952 399.651 139.632 386.348C135.689 370.554 134.364 358.922 134.353 358.807C134.305 358.392 134.605 358.018 135.019 357.972C135.435 357.924 135.809 358.224 135.855 358.637C135.868 358.755 137.184 370.303 141.107 386.006C144.446 399.375 150.356 418.362 159.954 435.488Z" fill="#90C3EF"/>
<path d="M178.939 445.734L175.261 448.442L173.31 449.877L167.783 453.943C167.783 453.943 51.1123 409.46 60.2246 357.268C63.0298 341.2 85.3115 334.858 112.612 376.586C137.919 415.267 178.939 445.734 178.939 445.734Z" fill="#CAE6FE"/>
<path d="M175.261 448.44L173.31 449.875C148.394 436.418 126.55 418.029 112.114 404.406C94.9731 388.23 84.2737 375.087 84.1705 374.954C83.7875 374.486 83.8606 373.796 84.3317 373.416C84.8003 373.033 85.4906 373.106 85.871 373.574C85.978 373.706 96.6006 386.757 113.645 402.837C128.153 416.528 150.187 435.058 175.261 448.44Z" fill="#ABD3F2"/>
<path d="M332.907 141.505L336.425 144.872L338.292 146.657L343.58 151.714C343.58 151.714 473.023 120.655 470.534 64.2254C469.768 46.8537 447.078 37.0966 412.5 77.4781C380.447 114.911 332.907 141.505 332.907 141.505Z" fill="#CAE6FE"/>
<path d="M336.424 144.872L338.291 146.657C366.477 135.841 392.09 119.389 409.218 106.961C429.556 92.2045 442.666 79.7731 442.795 79.6484C443.263 79.205 443.281 78.4656 442.835 77.9995C442.391 77.5309 441.652 77.5133 441.186 77.9567C441.055 78.0827 428.037 90.4271 407.814 105.094C390.6 117.58 364.769 134.155 336.424 144.872Z" fill="#ABD3F2"/>
<path d="M101.265 103.746C106.069 117.772 120.233 116.75 120.403 128.291C120.572 139.828 128.172 148.284 138.042 145.765C147.913 143.243 155.037 140.837 160.049 152.117C165.058 163.397 179.776 168.538 185.137 159.25C186.473 156.939 187.916 154.435 189.326 151.977C189.712 151.306 190.096 150.637 190.474 149.979C190.562 149.827 190.652 149.674 190.737 149.523C196.413 139.639 193.886 126.951 184.649 120.273C180.91 117.571 176.511 116.145 171.656 117.793C156.452 122.947 161.365 107.244 151.93 101.07C141.063 93.9569 132.354 102.866 124.856 96.7357C114.425 88.2092 96.4609 89.7195 101.265 103.746Z" fill="#ABD3F2"/>
<path d="M119.875 109.134L189.326 151.978C189.712 151.306 190.096 150.638 190.474 149.98L121.085 107.174C120.544 106.84 119.835 107.007 119.501 107.548C119.166 108.089 119.333 108.8 119.875 109.134Z" fill="#90C3EF"/>
<path d="M111.934 25.3907C109.819 43.6201 126.184 50.0317 120.218 63.0123C114.255 75.9891 118.234 89.4874 130.601 91.9374C142.972 94.3861 152.212 95.4971 151.794 110.769C151.373 126.041 165.07 139.63 176.011 132.116C178.737 130.248 181.684 128.219 184.569 126.227C185.358 125.683 186.144 125.141 186.916 124.607C187.096 124.485 187.276 124.362 187.453 124.238C199.063 116.224 203.008 100.706 196.253 88.3209C193.518 83.3088 189.365 79.3699 183.063 78.6217C163.333 76.2712 177.196 61.3496 169.948 49.4233C161.602 35.6832 147.124 40.99 142.019 30.142C134.92 15.0541 114.049 7.16116 111.934 25.3907Z" fill="#CAE6FE"/>
<path d="M129.847 41.3328L184.571 126.226C185.36 125.682 186.146 125.14 186.918 124.606L132.243 39.7885C131.816 39.1272 130.934 38.9357 130.273 39.3615C129.613 39.7898 129.422 40.6715 129.847 41.3328Z" fill="#ABD3F2"/>
<path d="M410.04 335.077C395.95 339.692 396.781 353.868 385.239 353.881C373.701 353.895 365.144 361.381 367.528 371.283C369.917 381.188 372.227 388.343 360.879 393.202C349.532 398.059 344.194 412.705 353.408 418.192C355.7 419.56 358.186 421.035 360.623 422.479C361.289 422.873 361.952 423.266 362.606 423.653C362.757 423.743 362.908 423.834 363.058 423.922C372.864 429.73 385.585 427.375 392.387 418.23C395.14 414.528 396.625 410.148 395.043 405.272C390.094 390 405.731 395.124 412.03 385.773C419.29 375.002 410.497 366.174 416.73 358.76C425.399 348.446 424.13 330.462 410.04 335.077Z" fill="#ABD3F2"/>
<path d="M404.402 353.613L360.625 422.48C361.292 422.874 361.954 423.267 362.608 423.654L406.345 354.849C406.687 354.312 406.529 353.6 405.993 353.259C405.456 352.919 404.743 353.076 404.402 353.613Z" fill="#90C3EF"/>
<path d="M463.619 364.467C445.419 362.106 438.787 378.383 425.889 372.244C412.992 366.106 399.442 369.903 396.826 382.237C394.211 394.574 392.975 403.797 377.71 403.173C362.446 402.546 348.673 416.059 356.038 427.101C357.869 429.852 359.857 432.825 361.811 435.737C362.345 436.532 362.875 437.327 363.399 438.107C363.519 438.288 363.64 438.469 363.762 438.648C371.618 450.365 387.083 454.52 399.557 447.932C404.606 445.264 408.6 441.165 409.434 434.874C412.05 415.177 426.783 429.24 438.806 422.155C452.658 413.996 447.547 399.447 458.462 394.488C473.643 387.589 481.818 366.827 463.619 364.467Z" fill="#CAE6FE"/>
<path d="M447.436 382.164L361.812 435.739C362.346 436.534 362.876 437.329 363.4 438.108L448.947 384.583C449.615 384.164 449.818 383.285 449.401 382.618C448.983 381.95 448.102 381.746 447.436 382.164Z" fill="#ABD3F2"/>
<path d="M175.067 294.264C157.263 273.749 125.576 233.307 115.814 217.064C103.06 195.843 97.4734 178.581 99.2079 165.755C99.3238 164.906 100.105 164.309 100.956 164.424C101.807 164.538 102.402 165.322 102.288 166.172C99.2545 188.59 117.493 221.352 176.62 291.458L175.067 294.264Z" fill="#ABD3F2"/>
<path d="M106.021 197.198C106.021 197.198 95.6541 205.017 82.6206 186.253C82.6206 186.253 101.883 178.785 106.021 197.198Z" fill="#CAE6FE"/>
<path d="M112.242 207.219C112.242 207.219 103.859 197.303 121.868 183.246C121.868 183.246 130.395 202.063 112.242 207.219Z" fill="#CAE6FE"/>
<path d="M100.836 175.694C100.836 175.694 89.6269 169.141 101.918 149.883C101.918 149.883 116.233 164.781 100.836 175.694Z" fill="#CAE6FE"/>
<path d="M124.131 227.766C124.131 227.766 117.02 238.631 98.4067 225.382C98.4067 225.382 114.009 211.839 124.131 227.766Z" fill="#CAE6FE"/>
<path d="M132.013 237.016C132.013 237.016 122.041 228.7 137.347 211.739C137.347 211.739 149.001 228.798 132.013 237.016Z" fill="#CAE6FE"/>
<path d="M141.547 250.752C141.547 250.752 134.643 261.749 115.782 248.856C115.782 248.856 131.123 235.02 141.547 250.752Z" fill="#CAE6FE"/>
<path d="M296.424 109.057C305.664 83.5124 315.101 62.2749 324.529 45.8353C336.846 24.3572 349.198 11.0668 361.243 6.33306C362.041 6.01941 362.942 6.41241 363.257 7.21102C363.571 8.00963 363.178 8.91154 362.379 9.22519C341.324 17.4998 318.74 54.6402 297.003 116.695L296.424 109.057Z" fill="#ABD3F2"/>
<path d="M337.106 27.6044C337.106 27.6044 325.226 22.3617 335.261 1.83594C335.261 1.83594 351.167 15.0181 337.106 27.6044Z" fill="#CAE6FE"/>
<path d="M331.384 37.9181C331.384 37.9181 335.958 25.7651 357.009 34.6417C357.009 34.6417 344.734 51.2576 331.384 37.9181Z" fill="#CAE6FE"/>
<path d="M353.357 12.5983C353.357 12.5983 353.618 -0.383578 376.424 0.965495C376.424 0.965495 370.39 20.7242 353.357 12.5983Z" fill="#CAE6FE"/>
<path d="M319.237 58.313C319.237 58.313 306.284 57.3972 308.784 34.6885C308.784 34.6885 328.213 41.7122 319.237 58.313Z" fill="#CAE6FE"/>
<path d="M315 69.703C315 69.703 317.404 56.9429 339.673 62.0444C339.673 62.0444 330.455 80.5334 315 69.703Z" fill="#CAE6FE"/>
<path d="M307.65 84.7213C307.65 84.7213 294.682 84.0512 296.752 61.2983C296.752 61.2983 316.309 67.9543 307.65 84.7213Z" fill="#CAE6FE"/>
<path d="M382.091 100.144V467.219C382.091 478.726 372.766 488.051 361.259 488.051H178.462C172.681 488.051 167.455 485.7 163.679 481.899C159.942 478.13 157.632 472.946 157.632 467.219V100.144C157.632 88.6376 166.957 79.3125 178.464 79.3125H361.26C364.661 79.3125 367.873 80.1262 370.71 81.5748C377.466 85.0174 382.091 92.0386 382.091 100.144Z" fill="#2A365C"/>
<path d="M382.09 100.144V467.219C382.09 478.726 372.765 488.051 361.259 488.051H178.462C172.681 488.051 167.454 485.699 163.679 481.899L370.708 81.5747C377.466 85.0173 382.09 92.0385 382.09 100.144Z" fill="#16162F"/>
<path d="M157.631 193.839H154.621C152.075 193.839 150.01 191.774 150.01 189.228V149.954C150.01 147.408 152.075 145.344 154.621 145.344H157.631V193.839Z" fill="#16162F"/>
<path d="M382.091 181.15H384.555C386.639 181.15 388.327 179.462 388.327 177.379V145.434C388.327 143.351 386.639 141.663 384.555 141.663H382.091V181.15Z" fill="#16162F"/>
<path d="M157.631 248.914H154.621C152.075 248.914 150.01 246.85 150.01 244.303V205.029C150.01 202.483 152.075 200.419 154.621 200.419H157.631V248.914Z" fill="#16162F"/>
<path d="M371.7 99.2383V468.126C371.7 473.39 367.43 477.66 362.166 477.66H177.557C173.632 477.66 170.263 475.288 168.801 471.9C168.299 470.742 168.023 469.468 168.023 468.126V99.2383C168.023 93.9718 172.291 89.7041 177.557 89.7041H362.167C363.559 89.7041 364.882 90.0014 366.071 90.5392C369.388 92.0294 371.7 95.3637 371.7 99.2383Z" fill="#FEFDFF"/>
<path d="M352.868 371.771H240.493C238.451 371.771 236.796 370.115 236.796 368.074C236.796 366.032 238.451 364.376 240.493 364.376H352.868C354.91 364.376 356.565 366.032 356.565 368.074C356.565 370.114 354.91 371.771 352.868 371.771Z" fill="#CAE6FE"/>
<path d="M352.868 387.788H240.493C238.451 387.788 236.796 386.132 236.796 384.091C236.796 382.049 238.451 380.394 240.493 380.394H352.868C354.91 380.394 356.565 382.049 356.565 384.091C356.565 386.132 354.91 387.788 352.868 387.788Z" fill="#CAE6FE"/>
<path d="M352.868 403.807H240.493C238.451 403.807 236.796 402.152 236.796 400.11C236.796 398.068 238.451 396.413 240.493 396.413H352.868C354.91 396.413 356.565 398.068 356.565 400.11C356.565 402.152 354.91 403.807 352.868 403.807Z" fill="#CAE6FE"/>
<path d="M226.771 364.387H187.371V403.787H226.771V364.387Z" fill="#CAE6FE"/>
<path d="M252.239 137.68H191.068C189.026 137.68 187.371 139.335 187.371 141.377C187.371 143.419 189.026 145.074 191.068 145.074H252.239C254.281 145.074 255.937 143.419 255.937 141.377C255.937 139.335 254.281 137.68 252.239 137.68Z" fill="#CAE6FE"/>
<path d="M252.239 153.699H191.068C189.026 153.699 187.371 155.354 187.371 157.396C187.371 159.438 189.026 161.093 191.068 161.093H252.239C254.281 161.093 255.937 159.438 255.937 157.396C255.937 155.354 254.281 153.699 252.239 153.699Z" fill="#CAE6FE"/>
<path d="M252.239 169.717H191.068C189.026 169.717 187.371 171.372 187.371 173.414C187.371 175.456 189.026 177.111 191.068 177.111H252.239C254.281 177.111 255.937 175.456 255.937 173.414C255.937 171.372 254.281 169.717 252.239 169.717Z" fill="#CAE6FE"/>
<path d="M352.757 137.68H291.585C289.543 137.68 287.888 139.335 287.888 141.377C287.888 143.419 289.543 145.074 291.585 145.074H352.757C354.799 145.074 356.454 143.419 356.454 141.377C356.454 139.335 354.799 137.68 352.757 137.68Z" fill="#CAE6FE"/>
<path d="M352.757 153.699H291.585C289.543 153.699 287.888 155.354 287.888 157.396C287.888 159.438 289.543 161.093 291.585 161.093H352.757C354.799 161.093 356.454 159.438 356.454 157.396C356.454 155.354 354.799 153.699 352.757 153.699Z" fill="#CAE6FE"/>
<path d="M352.757 169.717H291.585C289.543 169.717 287.888 171.372 287.888 173.414C287.888 175.456 289.543 177.111 291.585 177.111H352.757C354.799 177.111 356.454 175.456 356.454 173.414C356.454 171.372 354.799 169.717 352.757 169.717Z" fill="#CAE6FE"/>
<path d="M317.378 457.705H223.421C217.459 457.705 212.627 452.872 212.627 446.911V432.812C212.627 426.85 217.461 422.018 223.421 422.018H317.378C323.34 422.018 328.172 426.85 328.172 432.812V446.911C328.173 452.872 323.34 457.705 317.378 457.705Z" fill="#2A365C"/>
<path d="M233.65 450.201V430.402H240.34C241.887 430.402 243.157 430.666 244.149 431.195C245.142 431.717 245.877 432.435 246.353 433.35C246.83 434.266 247.069 435.306 247.069 436.473C247.069 437.639 246.83 438.674 246.353 439.576C245.877 440.478 245.145 441.187 244.159 441.703C243.173 442.212 241.913 442.467 240.379 442.467H234.965V440.301H240.302C241.359 440.301 242.209 440.147 242.854 439.837C243.505 439.528 243.975 439.09 244.265 438.522C244.562 437.949 244.71 437.266 244.71 436.473C244.71 435.68 244.562 434.987 244.265 434.394C243.969 433.802 243.495 433.344 242.844 433.022C242.193 432.693 241.333 432.529 240.263 432.529H236.048V450.201H233.65ZM242.97 441.307L247.842 450.201H245.058L240.263 441.307H242.97ZM251.064 450.201V430.402H263.013V432.529H253.461V439.219H262.394V441.345H253.461V448.074H263.167V450.201H251.064ZM283.034 430.402V450.201H280.714L269.925 434.655H269.732V450.201H267.334V430.402H269.654L280.482 445.986H280.675V430.402H283.034ZM286.749 432.529V430.402H301.598V432.529H295.372V450.201H292.975V432.529H286.749Z" fill="#16162F"/>
<path d="M233.65 448.144V428.345H240.34C241.887 428.345 243.157 428.609 244.149 429.137C245.142 429.659 245.877 430.378 246.353 431.293C246.83 432.208 247.069 433.249 247.069 434.416C247.069 435.582 246.83 436.617 246.353 437.519C245.877 438.421 245.145 439.13 244.159 439.646C243.173 440.155 241.913 440.41 240.379 440.41H234.965V438.244H240.302C241.359 438.244 242.209 438.089 242.854 437.78C243.505 437.471 243.975 437.032 244.265 436.465C244.562 435.892 244.71 435.209 244.71 434.416C244.71 433.623 244.562 432.93 244.265 432.337C243.969 431.744 243.495 431.287 242.844 430.965C242.193 430.636 241.333 430.472 240.263 430.472H236.048V448.144H233.65ZM242.97 439.25L247.842 448.144H245.058L240.263 439.25H242.97ZM251.064 448.144V428.345H263.013V430.472H253.461V437.161H262.394V439.288H253.461V446.017H263.167V448.144H251.064ZM283.034 428.345V448.144H280.714L269.925 432.598H269.732V448.144H267.334V428.345H269.654L280.482 443.929H280.675V428.345H283.034ZM286.749 430.472V428.345H301.598V430.472H295.372V448.144H292.975V430.472H286.749Z" fill="#FEFDFF"/>
<path d="M198.247 92.6013L208.344 107.964C211.16 112.249 215.944 114.83 221.074 114.83H318.652C323.78 114.83 328.565 112.249 331.38 107.964L341.478 92.6013C341.478 91.0091 340.175 89.7041 338.58 89.7041H201.144C199.553 89.7041 198.247 91.0104 198.247 92.6013Z" fill="#2A365C"/>
<path d="M303.015 103.709H219.405C217.706 103.709 216.316 102.318 216.316 100.62C216.316 98.9211 217.707 97.5317 219.405 97.5317H303.015C304.714 97.5317 306.103 98.9224 306.103 100.62C306.103 102.318 304.713 103.709 303.015 103.709Z" fill="#445279"/>
<path d="M322.494 100.414C322.494 102.461 320.834 104.121 318.787 104.121C316.74 104.121 315.08 102.462 315.08 100.414C315.08 98.3667 316.739 96.7065 318.787 96.7065C320.835 96.7065 322.494 98.3667 322.494 100.414Z" fill="#445279"/>
<path d="M358.29 252.792H182.429V332.693H358.29V252.792Z" fill="#009EF3"/>
<path d="M358.29 252.792H182.429V259.137H358.29V252.792Z" fill="#007CE6"/>
<path d="M358.29 248.04H182.429L196.12 215.627H344.598L358.29 248.04Z" fill="#445279"/>
<path d="M363.869 247.82H174.616V252.792H363.869V247.82Z" fill="#2A365C"/>
<path d="M307.39 332.692H233.329V270.715L271.354 250.052L307.39 268.685V332.692Z" fill="#009EF3"/>
<path d="M235.324 276.365H229.097V332.693H235.324V276.365Z" fill="#007CE6"/>
<path d="M311.704 276.365H305.476V332.693H311.704V276.365Z" fill="#007CE6"/>
<path d="M283.026 290.981H257.69V332.798H283.026V290.981Z" fill="#2A365C"/>
<path d="M280.477 293.53H260.24V332.798H280.477V293.53Z" fill="#445279"/>
<path d="M279.181 314.355C279.181 315.529 278.23 316.48 277.056 316.48C275.882 316.48 274.931 315.529 274.931 314.355C274.931 313.181 275.882 312.23 277.056 312.23C278.23 312.23 279.181 313.181 279.181 314.355Z" fill="#2A365C"/>
<path d="M286.001 290.981H254.719C253.676 290.981 252.831 290.136 252.831 289.093V287.859H287.89V289.093C287.889 290.136 287.044 290.981 286.001 290.981Z" fill="#2A365C"/>
<path d="M269.242 296.412H262.998V309.124H269.242V296.412Z" fill="#CAE6FE"/>
<path d="M269.242 296.915V300.676L262.998 306.918V303.157L269.242 296.915Z" fill="#FEFDFF"/>
<path opacity="0.2" d="M269.242 296.412H262.998V298.21H269.242V296.412Z" fill="black"/>
<path d="M278.054 296.412H271.81V309.124H278.054V296.412Z" fill="#CAE6FE"/>
<path d="M278.054 296.915V300.676L271.81 306.918V303.157L278.054 296.915Z" fill="#FEFDFF"/>
<path opacity="0.2" d="M278.054 296.412H271.81V298.21H278.054V296.412Z" fill="black"/>
<path d="M363.869 247.856H174.616V245.178C174.616 242.913 176.452 241.078 178.716 241.078H359.77C362.035 241.078 363.871 242.913 363.871 245.178V247.856H363.869Z" fill="#2A365C"/>
<path d="M326.081 276.422L315.94 276.394L305.394 276.365L270.36 252.747L235.324 276.365L224.78 276.394L214.637 276.422L270.36 238.861L326.081 276.422Z" fill="#445279"/>
<path d="M315.94 276.394L305.395 276.365L270.36 252.747L235.325 276.365L224.78 276.394L270.36 245.667L315.94 276.394Z" fill="#2A365C"/>
<path d="M214.913 287.223H199.978V315.095H214.913V287.223Z" fill="#CAE6FE"/>
<path d="M214.913 287.223H209.649L200.018 296.854V304.725L214.913 289.829V287.223Z" fill="#FEFDFF"/>
<path d="M214.913 299.01L200.018 313.906V315.095H202.76L214.913 302.944V299.01Z" fill="#FEFDFF"/>
<path d="M197.937 285.183V317.135H214.913V285.183H197.937ZM199.978 287.222H212.834V300.106H199.978V287.222ZM199.978 315.094V302.21H212.834V315.094H199.978Z" fill="#445279"/>
<path opacity="0.2" d="M214.911 285.358H197.937V288.648H214.911V285.358Z" fill="black"/>
<path d="M216.641 285.183H196.21C195.347 285.183 194.648 284.484 194.648 283.621V282.601H218.203V283.621C218.203 284.484 217.503 285.183 216.641 285.183Z" fill="#2A365C"/>
<path d="M214.913 317.135H197.937V320.405H214.913V317.135Z" fill="#007CE6"/>
<path d="M346.346 287.223H331.411V315.095H346.346V287.223Z" fill="#CAE6FE"/>
<path d="M346.345 287.223H341.083L331.45 296.854V304.725L346.345 289.829V287.223Z" fill="#FEFDFF"/>
<path d="M346.345 299.01L331.45 313.906V315.095H334.192L346.345 302.944V299.01Z" fill="#FEFDFF"/>
<path d="M329.37 285.183V317.135H346.346V285.183H329.37ZM331.412 287.222H344.267V300.106H331.412V287.222ZM331.412 315.094V302.21H344.267V315.094H331.412Z" fill="#445279"/>
<path opacity="0.2" d="M346.346 285.358H329.371V288.648H346.346V285.358Z" fill="black"/>
<path d="M348.074 285.183H327.643C326.78 285.183 326.081 284.484 326.081 283.621V282.601H349.636V283.621C349.636 284.484 348.936 285.183 348.074 285.183Z" fill="#2A365C"/>
<path d="M346.346 317.135H329.37V320.405H346.346V317.135Z" fill="#007CE6"/>
<path d="M340.813 222.072H200.868C200.376 222.072 199.978 221.673 199.978 221.182V220.018C199.978 219.525 200.377 219.127 200.868 219.127H340.813C341.304 219.127 341.703 219.527 341.703 220.018V221.182C341.703 221.674 341.304 222.072 340.813 222.072Z" fill="#2A365C"/>
<path d="M342.685 229.817H197.91C197.418 229.817 197.02 229.417 197.02 228.926V227.762C197.02 227.27 197.419 226.872 197.91 226.872H342.687C343.179 226.872 343.577 227.271 343.577 227.762V228.926C343.577 229.417 343.178 229.817 342.685 229.817Z" fill="#2A365C"/>
<path d="M348.745 237.561H193.493C193.001 237.561 192.603 237.161 192.603 236.67V235.506C192.603 235.015 193.002 234.616 193.493 234.616H348.745C349.237 234.616 349.635 235.015 349.635 235.506V236.67C349.637 237.161 349.237 237.561 348.745 237.561Z" fill="#2A365C"/>
<path d="M226.064 205.393H206.426V227.545H226.064V205.393Z" fill="#009EF3"/>
<path d="M226.064 205.393H206.426V211.084H226.064V205.393Z" fill="#007CE6"/>
<path d="M230.164 197.897V200.529C230.164 200.912 230.118 201.286 230.033 201.645C229.529 203.791 227.599 205.392 225.3 205.392H207.189C204.889 205.392 202.959 203.791 202.457 201.645C202.371 201.286 202.326 200.912 202.326 200.529V197.897H230.164Z" fill="#445279"/>
<path d="M230.033 201.645C229.529 203.791 227.599 205.392 225.3 205.392H207.189C204.889 205.392 202.959 203.791 202.457 201.645H230.033Z" fill="#2A365C"/>
<path d="M361.549 337.649H178.952C178.124 337.649 177.453 336.978 177.453 336.15V334.193C177.453 333.365 178.124 332.694 178.952 332.694H361.549C362.376 332.694 363.048 333.365 363.048 334.193V336.15C363.048 336.978 362.378 337.649 361.549 337.649Z" fill="#445279"/>
<path d="M366.189 342.525H174.312C173.485 342.525 172.813 341.853 172.813 341.026V339.068C172.813 338.241 173.485 337.569 174.312 337.569H366.189C367.017 337.569 367.688 338.241 367.688 339.068V341.026C367.688 341.855 367.017 342.525 366.189 342.525Z" fill="#2A365C"/>
<path d="M235.324 276.423V283.951L270.841 261.09L305.476 283.951L305.394 276.423L270.36 252.806L235.324 276.423Z" fill="#007CE6"/>
<path opacity="0.3" d="M371.7 99.2386V468.126C371.7 473.39 367.43 477.66 362.166 477.66H177.557C173.632 477.66 170.262 475.289 168.801 471.9L366.071 90.5396C369.387 92.0297 371.7 95.364 371.7 99.2386Z" fill="#FEFDFF"/>
<path d="M51.3942 420.646L66.7013 425.769C68.6374 426.416 70.7309 425.371 71.3758 423.437L84.3514 384.661L89.7187 368.626L67.4055 361.156L64.2261 370.656L49.0626 415.971C48.4139 417.903 49.4581 419.996 51.3942 420.646Z" fill="#61B3FF"/>
<path d="M64.2275 370.656C68.6678 375.59 75.3842 381.404 84.3528 384.661L89.7201 368.626L67.4069 361.156L64.2275 370.656Z" fill="#009EF3"/>
<path d="M65.9732 425.526L64.4806 429.988L45.2585 487.432C43.9774 491.259 39.8395 493.321 36.0127 492.042C32.1897 490.76 30.1239 486.622 31.4062 482.796L48.8144 430.776L52.121 420.89L65.9732 425.526Z" fill="#2A365C"/>
<path d="M65.9733 425.526L64.4806 429.988L48.8145 430.776L52.121 420.89L65.9733 425.526Z" fill="#16162F"/>
<path d="M34.8338 287.033C23.06 321.632 41.5603 359.227 76.1626 371.003C110.764 382.778 148.358 364.273 160.133 329.674C171.908 295.073 153.406 257.477 118.805 245.7C84.2029 233.927 46.6089 252.432 34.8338 287.033ZM44.4411 290.303C54.3948 261.054 86.2863 245.355 115.535 255.309C144.784 265.263 160.478 297.157 150.524 326.404C140.572 355.649 108.68 371.348 79.4314 361.395C50.1838 351.442 34.4887 319.548 44.4411 290.303Z" fill="#445279"/>
<path opacity="0.5" d="M41.5929 312.287C43.7608 343.102 70.5961 366.413 101.416 364.245C104.058 364.06 106.649 363.692 109.173 363.155C115.71 361.764 121.8 359.243 127.246 355.815C132.924 352.24 137.901 347.681 141.948 342.397C148.316 334.097 152.391 324.006 153.315 313.126C153.558 310.274 153.582 307.365 153.376 304.423C151.208 273.603 124.373 250.292 93.553 252.46C90.6093 252.667 87.7335 253.099 84.9409 253.739C74.2957 256.177 64.8723 261.629 57.5488 269.095C52.8831 273.841 49.0664 279.408 46.3254 285.531C43.694 291.402 42.0502 297.786 41.5892 304.453C41.4078 307.028 41.4065 309.644 41.5929 312.287Z" fill="#FEFDFF"/>
<path opacity="0.5" d="M57.5459 269.095L141.947 342.397C148.314 334.097 152.389 324.006 153.314 313.125L84.938 253.738C74.2928 256.177 64.8694 261.629 57.5459 269.095Z" fill="#FEFDFF"/>
<path opacity="0.5" d="M41.5864 304.453L109.172 363.155C115.71 361.764 121.8 359.244 127.246 355.815L46.3239 285.531C43.6913 291.402 42.0475 297.786 41.5864 304.453Z" fill="#FEFDFF"/>
<path d="M415.703 459.911L414.997 472.624L425.31 472.849L426.572 459.496L415.703 459.911Z" fill="#FBA691"/>
<path d="M419.089 470.838C419.089 470.838 424.398 469.635 425.851 469.719C427.303 469.803 436.626 481.058 439.879 481.824C445.779 483.212 445.435 492.495 441.8 492.818C431.287 493.754 413.555 488.655 413.555 488.655C413.555 488.655 412.357 476.682 413.216 472.971C414.074 469.261 416.125 471.825 419.089 470.838Z" fill="#009EF3"/>
<path d="M427.367 481.333C427.178 481.367 426.978 481.327 426.811 481.206C426.487 480.969 426.416 480.517 426.652 480.193C426.73 480.085 428.607 477.532 430.843 476.703C433.815 475.597 435.831 477.434 435.916 477.513C436.21 477.785 436.225 478.245 435.952 478.538C435.678 478.83 435.22 478.847 434.926 478.574C434.871 478.524 433.464 477.28 431.346 478.063C429.526 478.739 427.841 481.025 427.825 481.049C427.71 481.204 427.544 481.302 427.367 481.333Z" fill="#FEFDFF"/>
<path d="M425.446 479.063C425.258 479.097 425.057 479.057 424.889 478.936C424.565 478.7 424.494 478.247 424.73 477.923C424.81 477.815 426.687 475.261 428.921 474.433C431.897 473.325 433.911 475.162 433.995 475.243C434.289 475.515 434.304 475.974 434.03 476.267C433.758 476.56 433.299 476.577 433.005 476.302C432.95 476.253 431.541 475.008 429.425 475.792C427.596 476.471 425.92 478.753 425.903 478.776C425.789 478.933 425.624 479.03 425.446 479.063Z" fill="#FEFDFF"/>
<path d="M430.094 483.307C429.907 483.341 429.705 483.3 429.538 483.179C429.214 482.944 429.142 482.49 429.379 482.167C429.458 482.058 431.335 479.505 433.57 478.676C436.545 477.569 438.559 479.407 438.644 479.485C438.936 479.758 438.952 480.217 438.679 480.509C438.407 480.802 437.947 480.819 437.654 480.544C437.598 480.495 436.19 479.251 434.074 480.034C432.245 480.713 430.568 482.995 430.552 483.018C430.438 483.177 430.272 483.274 430.094 483.307Z" fill="#FEFDFF"/>
<path d="M453.626 305.017C453.626 305.017 453.412 308.002 453.021 312.953C452.921 314.263 452.807 315.711 452.681 317.286C451.346 333.901 448.764 363.943 445.942 385.256C441.987 415.135 429.529 464.235 429.529 464.235L416.668 463.794L415.396 463.744L412.348 463.643C412.348 463.643 414.489 432.581 417.222 405.612C419.024 387.826 420.094 345.741 420.611 319.163C420.875 305.458 421.001 295.872 421.001 295.872L453.626 305.017Z" fill="#2A365C"/>
<path d="M453.626 305.017C453.626 305.017 453.412 308.002 453.022 312.953C452.921 314.263 452.808 315.711 452.682 317.286C446.749 318.394 430.437 319.163 420.611 319.163C420.876 305.458 421.002 295.872 421.002 295.872L453.626 305.017Z" fill="#16162F"/>
<path d="M427.931 312.736C427.918 313.757 426.734 410.585 416.67 463.792L415.397 463.742C425.475 410.698 426.659 313.731 426.671 312.724L427.931 312.736Z" fill="#16162F"/>
<path d="M496.358 462.352L495.938 473.82L485.455 473.266L485.217 461.089L496.358 462.352Z" fill="#FBA691"/>
<path d="M493.265 473.292C493.265 473.292 495.549 470.317 497.326 470.472C499.104 470.627 512.664 481.74 517.352 482.71C522.04 483.679 521.076 487.127 520.188 488.884C519.299 490.64 482.697 487.664 482.697 487.664C482.697 487.664 481.852 476.743 483.099 473.425C484.343 470.107 489.577 474.028 493.265 473.292Z" fill="#009EF3"/>
<path d="M500.736 481.018C500.569 481.064 500.384 481.047 500.222 480.951C499.909 480.766 499.806 480.363 499.989 480.049C500.051 479.945 501.524 477.472 503.471 476.527C506.061 475.266 508.044 476.75 508.127 476.813C508.415 477.034 508.471 477.448 508.249 477.736C508.028 478.025 507.615 478.08 507.326 477.859C507.271 477.818 505.891 476.818 504.045 477.713C502.46 478.482 501.137 480.697 501.124 480.719C501.035 480.87 500.894 480.974 500.736 481.018Z" fill="#FEFDFF"/>
<path d="M498.801 479.135C498.635 479.181 498.449 479.164 498.288 479.068C497.974 478.883 497.869 478.48 498.054 478.166C498.116 478.062 499.589 475.589 501.535 474.644C504.127 473.383 506.109 474.866 506.192 474.93C506.48 475.151 506.536 475.565 506.314 475.853C506.093 476.142 505.679 476.197 505.391 475.976C505.336 475.935 503.955 474.934 502.111 475.83C500.517 476.603 499.202 478.814 499.189 478.836C499.1 478.987 498.959 479.089 498.801 479.135Z" fill="#FEFDFF"/>
<path d="M503.376 482.563C503.208 482.61 503.023 482.591 502.862 482.497C502.548 482.312 502.444 481.909 502.629 481.595C502.69 481.491 504.163 479.018 506.11 478.072C508.703 476.811 510.684 478.294 510.767 478.358C511.056 478.578 511.11 478.993 510.889 479.281C510.669 479.57 510.255 479.625 509.966 479.403C509.912 479.363 508.529 478.363 506.686 479.257C505.093 480.031 503.777 482.241 503.765 482.264C503.674 482.415 503.533 482.518 503.376 482.563Z" fill="#FEFDFF"/>
<path d="M498.267 465.344L487.612 464.552L486.342 464.464L483.754 464.27C483.754 464.27 477.209 401.973 475.173 385.379C473.403 370.962 465.14 338.572 459.774 318.417C458.254 312.696 456.965 307.961 456.117 304.901C455.47 302.496 455.087 301.128 455.087 301.128L490.708 297.679C490.708 297.679 490.808 298.461 490.971 299.869C491.318 302.751 491.984 308.274 492.789 315.214C495.014 334.106 498.397 363.506 499.708 378.472C503.069 417.011 498.267 465.344 498.267 465.344Z" fill="#2A365C"/>
<path d="M492.789 315.215L459.774 318.416C458.254 312.695 456.965 307.96 456.117 304.9L490.971 299.869C491.318 302.752 491.985 308.275 492.789 315.215Z" fill="#16162F"/>
<path d="M487.612 464.552L486.342 464.463C485.723 445.2 483.833 397.087 479.973 376.691C475.122 350.98 463.968 313.542 463.854 313.164L465.067 312.804C465.181 313.183 476.354 350.685 481.211 376.46C485.096 396.983 487.002 445.326 487.612 464.552Z" fill="#16162F"/>
<path d="M488.687 208.696C489.386 213.352 490.108 217.818 490.738 221.559C491.75 227.593 492.516 231.739 492.516 231.739L497.982 247.402C499.855 252.759 506.074 255.167 511.067 252.467C511.152 252.426 511.249 252.389 511.325 252.33C513.148 250.927 514.598 248.202 515.944 241.791C515.944 241.791 515.944 241.791 515.944 241.788C515.987 241.234 520.83 217.331 520.874 208.728L509.801 207.676C509.326 206.64 506.95 218.936 506.424 217.801C506.089 217.069 505.74 216.314 505.388 215.551C504.8 214.283 504.189 212.971 503.569 211.632C502.688 209.734 501.778 207.777 500.859 205.804C494.089 191.237 486.881 175.823 486.881 175.823C484.543 177.129 486.476 193.869 488.687 208.696Z" fill="#FBA691"/>
<path d="M488.689 208.696C489.387 213.352 490.109 217.819 490.738 221.56C497.169 219.143 501.287 214.775 503.57 211.633C502.688 209.733 501.778 207.776 500.86 205.805L488.689 208.696Z" fill="#FD857D"/>
<path d="M503.394 236.72C503.432 236.723 503.465 236.72 503.502 236.719C503.845 236.699 504.128 236.432 504.16 236.082C504.906 227.722 505.805 221.524 506.426 217.802C506.09 217.07 505.739 216.316 505.388 215.552C504.792 218.836 503.662 225.823 502.757 235.956C502.723 236.343 503.006 236.683 503.394 236.72Z" fill="#FD857D"/>
<path d="M507.959 204.912C507.959 204.912 506.608 206.726 504.182 208.774C501.247 211.266 495.761 214.44 490.177 214.827C484.818 198.006 483.131 176.79 484.753 171.177C487.518 174.2 501.595 191.024 507.959 204.912Z" fill="#61B3FF"/>
<path d="M504.18 205.202L504.356 205.306L505.848 206.162L506.199 205.534L519.151 205.179C520.245 205.153 521.144 204.305 521.24 203.214L523.621 176.146C523.633 176.01 523.635 175.875 523.621 175.749L524.118 174.987L522.556 174.09L522.494 174.057L522.45 174.032C522.14 173.876 521.788 173.789 521.416 173.8L507.681 174.177C506.586 174.203 505.688 175.051 505.596 176.141L503.215 203.209C503.145 204.033 503.544 204.78 504.18 205.202Z" fill="#2A365C"/>
<path d="M506.994 206.453L520.725 206.079C521.819 206.048 522.717 205.203 522.813 204.112L525.192 177.042C525.306 175.758 524.274 174.663 522.987 174.699L509.257 175.073C508.162 175.103 507.264 175.948 507.168 177.039L504.789 204.11C504.675 205.392 505.706 206.488 506.994 206.453Z" fill="#445279"/>
<path d="M524.151 188.895C525.423 189.041 524.368 190.909 525.208 193.528C526.253 196.79 520.837 210.195 520.837 210.195C515.578 212.585 509.266 208.391 509.266 208.391C509.266 208.391 507.912 198.178 509.174 193.563C509.174 193.563 509.92 189.439 510.139 187.019C510.357 184.614 511.429 181.857 512.189 182.346C512.95 182.834 513.139 184.799 513.156 186.291C513.171 187.782 513.472 190.634 513.472 190.634C513.472 190.634 513.881 187.111 513.944 185.169C514.007 183.227 513.857 180.141 515.04 179.535C516.528 178.773 516.951 182.909 517.142 184.408C517.334 185.907 516.744 190.566 516.744 190.566C516.744 190.566 517.76 185.339 517.504 183.79C517.247 182.241 516.927 179.218 517.004 177.937C517.081 176.656 518.726 176.868 519.221 178.445C519.716 180.022 520.283 183.191 520.419 184.253C520.592 185.607 520.261 190.116 520.261 190.116C520.261 190.116 520.907 184.981 520.866 183.624C520.832 182.522 520.492 180.344 520.883 179.074C521.276 177.805 522.799 177.563 523.286 180.898C523.771 184.234 523.852 184.628 523.758 185.627C523.593 187.387 523.292 189.337 523.492 190.061C523.593 190.423 524.007 190.428 524.007 190.428L524.151 188.895Z" fill="#FBA691"/>
<path d="M496.475 300.431C469.941 308.883 442.967 310.49 415.55 305.321C415.022 297.856 413.638 273.354 412.591 247.532C412.556 246.676 412.519 245.819 412.486 244.962C412.461 244.274 412.436 243.587 412.407 242.896C412.387 242.401 412.365 241.902 412.349 241.403C412.339 241.176 412.331 240.95 412.324 240.722C412.296 240.048 412.277 239.359 412.25 238.689C412.226 238.125 412.198 237.564 412.179 237.001C412.178 236.924 412.173 236.844 412.172 236.768C412.17 236.697 412.166 236.63 412.165 236.56C412.139 235.969 412.122 235.373 412.1 234.789C412.096 234.674 412.09 234.558 412.086 234.446C412.066 233.736 412.035 233.026 412.015 232.32C411.995 231.831 411.979 231.351 411.96 230.871C411.955 230.676 411.949 230.481 411.941 230.285C411.915 229.743 411.897 229.196 411.884 228.658C411.878 228.494 411.874 228.332 411.87 228.168C411.857 227.672 411.843 227.173 411.829 226.674C411.823 226.462 411.819 226.252 411.813 226.04C411.792 225.33 411.758 224.625 411.752 223.926C411.723 223.238 411.705 222.563 411.69 221.891C411.673 221.44 411.659 220.993 411.644 220.545C411.613 219.568 411.591 218.602 411.571 217.646C411.004 195.526 411.071 177.377 412.656 174.893C416.34 169.136 434.16 159.87 439.538 155.585L439.591 156.469C439.591 156.469 443.388 160.91 447.327 160.323C450.904 159.802 453.405 155.472 453.821 154.687C456.738 156.491 463.383 159.282 469.844 162.304C476.303 165.315 482.578 168.534 484.753 171.174C486.615 173.449 488.697 191.145 490.593 212.871L490.597 212.942C490.631 213.347 490.668 213.751 490.702 214.156L490.706 214.216C490.725 214.53 490.757 214.841 490.789 215.166C490.804 215.364 490.82 215.559 490.838 215.759C490.875 216.203 490.918 216.652 490.952 217.102C491.005 217.772 491.068 218.445 491.122 219.13C491.174 219.825 491.229 220.531 491.294 221.238C491.311 221.448 491.326 221.658 491.345 221.869C491.384 222.366 491.424 222.864 491.47 223.357C491.482 223.52 491.492 223.682 491.506 223.846C491.548 224.382 491.59 224.927 491.633 225.47L491.679 226.053C491.714 226.532 491.753 227.01 491.792 227.498C491.844 228.203 491.899 228.911 491.956 229.619C491.962 229.731 491.972 229.846 491.982 229.96C492.024 230.545 492.069 231.138 492.114 231.728C492.118 231.798 492.126 231.865 492.13 231.936C492.135 232.012 492.142 232.092 492.147 232.169C492.194 232.729 492.234 233.291 492.278 233.853C492.331 234.523 492.385 235.196 492.427 235.882C492.443 236.109 492.461 236.336 492.477 236.561C492.516 237.059 492.553 237.556 492.589 238.051C492.641 238.738 492.691 239.423 492.739 240.112C492.801 240.967 492.861 241.823 492.923 242.678C494.753 268.376 496.123 292.89 496.475 300.431Z" fill="#61B3FF"/>
<path d="M491.344 221.869L411.827 226.673C411.82 226.461 411.817 226.251 411.81 226.039C411.79 225.329 411.756 224.624 411.75 223.925C411.721 223.237 411.703 222.562 411.688 221.89C411.671 221.439 411.657 220.992 411.642 220.544L490.836 215.758C490.873 216.202 490.916 216.651 490.95 217.101C491.003 217.771 491.066 218.444 491.12 219.129C491.171 219.824 491.227 220.53 491.292 221.236C491.309 221.448 491.325 221.658 491.344 221.869Z" fill="#009EF3"/>
<path d="M492.145 232.168L412.177 237C412.176 236.924 412.171 236.844 412.17 236.767C412.168 236.697 412.165 236.63 412.163 236.56C412.137 235.969 412.12 235.373 412.098 234.789C412.094 234.674 412.088 234.558 412.084 234.446C412.064 233.735 412.034 233.026 412.013 232.32C411.993 231.831 411.977 231.351 411.958 230.871L491.677 226.054C491.712 226.533 491.751 227.012 491.79 227.499C491.842 228.204 491.897 228.912 491.954 229.62C491.96 229.732 491.97 229.847 491.98 229.962C492.022 230.546 492.067 231.139 492.113 231.729C492.116 231.799 492.124 231.866 492.128 231.937C492.133 232.012 492.142 232.092 492.145 232.168Z" fill="#009EF3"/>
<path d="M492.921 242.679L412.589 247.533C412.553 246.676 412.517 245.82 412.484 244.962C412.459 244.274 412.434 243.588 412.405 242.896C412.384 242.401 412.363 241.902 412.347 241.403L492.475 236.562C492.514 237.06 492.55 237.558 492.587 238.053C492.639 238.739 492.689 239.424 492.737 240.113C492.799 240.969 492.86 241.824 492.921 242.679Z" fill="#009EF3"/>
<path d="M481.779 202.087C484.287 205.081 488.102 211.979 489.82 215.17C490.055 215.608 490.25 215.976 490.399 216.254C490.594 216.621 490.702 216.832 490.711 216.849C490.766 216.958 490.848 217.043 490.948 217.101C490.895 216.452 490.84 215.807 490.784 215.163C490.759 214.845 490.729 214.526 490.702 214.212L490.698 214.161C490.347 213.511 489.931 212.747 489.468 211.91C487.523 208.409 484.763 203.699 482.741 201.283C482.52 201.018 482.124 200.984 481.857 201.205C481.591 201.427 481.56 201.822 481.779 202.087Z" fill="#009EF3"/>
<path d="M428.599 180.893C428.605 180.893 428.612 180.892 428.619 180.892C439.329 179.902 447.339 174.937 452.173 170.947C457.409 166.624 460.079 162.589 460.19 162.419C460.38 162.129 460.299 161.741 460.01 161.552C459.719 161.362 459.332 161.444 459.142 161.733C459.036 161.893 448.377 177.807 428.504 179.645C428.159 179.676 427.906 179.981 427.937 180.326C427.969 180.664 428.262 180.913 428.599 180.893Z" fill="#009EF3"/>
<path d="M474.893 286.911C475.219 286.891 475.48 286.622 475.481 286.289C475.482 285.943 475.204 285.661 474.858 285.659C457.181 285.569 446.14 277.281 439.991 270.346C433.305 262.804 430.777 255.176 430.751 255.099C430.644 254.77 430.292 254.589 429.962 254.697C429.633 254.804 429.453 255.157 429.559 255.486C429.662 255.806 432.175 263.403 439.018 271.138C445.341 278.283 456.689 286.819 474.851 286.913C474.867 286.913 474.879 286.913 474.893 286.911Z" fill="#009EF3"/>
<path d="M459.965 276.427C460.241 276.411 460.483 276.212 460.541 275.928C460.611 275.589 460.392 275.258 460.053 275.188C444.505 271.975 440.78 259.377 440.743 259.251C440.65 258.918 440.302 258.723 439.971 258.817C439.639 258.91 439.445 259.256 439.537 259.589C439.576 259.728 440.518 263.017 443.492 266.752C446.229 270.189 451.28 274.656 459.799 276.416C459.857 276.427 459.912 276.431 459.965 276.427Z" fill="#009EF3"/>
<path d="M419.293 203.807C417.166 207.081 414.207 214.388 412.885 217.763C412.707 218.225 412.557 218.614 412.443 218.91C412.293 219.296 412.21 219.521 412.205 219.537C412.116 219.777 411.897 219.928 411.655 219.943L411.642 219.945C411.63 219.626 411.62 219.306 411.609 218.99C411.424 219.001 411.24 219.013 411.062 219.016C411.135 218.827 411.311 218.364 411.563 217.711C411.88 216.891 412.321 215.766 412.843 214.485C414.352 210.774 416.525 205.766 418.239 203.126C418.429 202.835 418.816 202.752 419.107 202.942C419.4 203.13 419.48 203.52 419.293 203.807Z" fill="#009EF3"/>
<path d="M425.273 116.99C425.273 116.99 423.494 109.131 425.257 106.313C427.021 103.495 430.213 104.115 433.385 100.806C436.556 97.4956 446.961 99.8498 451.39 98.7691C453.826 98.1745 456.467 98.3471 458.848 97.7122C462.254 96.8053 464.305 100.119 463.679 103.542C463.281 105.72 462.397 109.007 459.342 110.039C459.342 110.039 429.254 106.411 425.273 116.99Z" fill="#2A365C"/>
<path d="M424.976 123.37C425.67 134.865 433.226 142.359 444.721 141.665C456.216 140.971 463.712 131.969 463.017 120.474C462.323 108.98 454.989 100.681 443.495 101.377C429.708 102.209 424.28 111.874 424.976 123.37Z" fill="#2A365C"/>
<path d="M427.857 128.163C427.857 128.163 424.406 124.098 422.245 127.762C420.083 131.427 424.068 141.625 429.729 138.734L427.857 128.163Z" fill="#FD857D"/>
<path d="M428.266 135.598C428.051 135.61 427.846 135.481 427.771 135.268C426.677 132.111 423.272 131.01 423.238 131C422.978 130.919 422.834 130.642 422.915 130.384C422.996 130.125 423.272 129.98 423.53 130.06C423.689 130.11 427.441 131.311 428.702 134.945C428.792 135.202 428.656 135.482 428.399 135.571C428.355 135.586 428.311 135.595 428.266 135.598Z" fill="#F05B56"/>
<path d="M424.81 134.183C424.719 134.188 424.625 134.169 424.539 134.121C424.302 133.988 424.218 133.688 424.351 133.451C424.374 133.412 424.908 132.479 426.106 131.852C426.345 131.727 426.644 131.82 426.77 132.062C426.896 132.302 426.803 132.599 426.561 132.725C425.635 133.209 425.213 133.926 425.209 133.933C425.125 134.085 424.971 134.173 424.81 134.183Z" fill="#F05B56"/>
<path d="M460.77 126.175C460.77 126.175 463.707 121.723 466.294 125.102C468.881 128.48 466.153 139.082 460.185 136.894L460.77 126.175Z" fill="#FD857D"/>
<path d="M461.262 133.603C461.476 133.59 461.665 133.435 461.713 133.215C462.42 129.95 465.668 128.447 465.7 128.432C465.947 128.32 466.058 128.029 465.947 127.782C465.836 127.534 465.544 127.423 465.297 127.535C465.144 127.603 461.564 129.247 460.751 133.007C460.693 133.273 460.862 133.535 461.127 133.593C461.173 133.603 461.218 133.605 461.262 133.603Z" fill="#F05B56"/>
<path d="M464.52 131.783C464.611 131.778 464.702 131.746 464.781 131.688C465 131.527 465.048 131.22 464.887 131C464.86 130.964 464.218 130.102 462.953 129.625C462.7 129.528 462.416 129.658 462.32 129.912C462.224 130.167 462.353 130.45 462.607 130.546C463.584 130.915 464.09 131.575 464.093 131.582C464.195 131.722 464.359 131.793 464.52 131.783Z" fill="#F05B56"/>
<path d="M453.351 146.161L453.976 156.504C453.976 156.504 451.21 161.957 447.061 162.567C442.915 163.183 438.917 158.508 438.917 158.508L438.27 147.802L453.351 146.161Z" fill="#FBA691"/>
<path d="M453.351 146.161L453.628 150.75C451.017 154.025 446.093 155.1 438.672 154.459L438.271 147.802L453.351 146.161Z" fill="#FD857D"/>
<path d="M426.15 128.071C426.228 128.668 426.315 129.27 426.412 129.881C426.66 131.412 426.964 132.982 427.34 134.54C427.354 134.596 427.364 134.649 427.378 134.697C429.227 142.239 432.804 149.548 439.677 151.546C455.249 156.066 459.902 142.669 461.619 134.917C461.808 134.057 461.969 133.102 462.099 132.087C462.104 132.048 462.108 132.005 462.115 131.958C462.259 130.817 462.37 129.605 462.449 128.358C462.51 127.435 462.552 126.499 462.584 125.555C462.668 123.265 462.675 120.973 462.648 118.94C462.59 114.296 459.56 110.202 455.121 108.801C448.723 106.776 439.117 105.445 430.43 111.089C427.221 113.171 425.349 116.786 425.505 120.608C425.593 122.716 425.781 125.302 426.15 128.071Z" fill="#FBA691"/>
<path d="M438.313 128.352C438.38 129.455 437.865 130.385 437.163 130.428C436.462 130.471 435.838 129.609 435.771 128.506C435.705 127.402 436.22 126.472 436.921 126.43C437.623 126.388 438.247 127.248 438.313 128.352Z" fill="#2A365C"/>
<path d="M453.898 127.411C453.965 128.514 453.45 129.444 452.748 129.487C452.047 129.53 451.423 128.668 451.356 127.565C451.29 126.461 451.805 125.532 452.506 125.489C453.208 125.446 453.832 126.306 453.898 127.411Z" fill="#2A365C"/>
<path d="M455.685 120.478C455.685 120.478 451.58 119.135 448.573 120.655L448.986 122.353C448.986 122.353 453.495 121.696 455.834 122.483C455.996 121.81 455.986 121.14 455.685 120.478Z" fill="#2A365C"/>
<path d="M431.906 121.914C431.906 121.914 435.82 120.087 438.988 121.233L438.782 122.969C438.782 122.969 434.228 122.86 432 123.923C431.757 123.275 431.687 122.609 431.906 121.914Z" fill="#2A365C"/>
<path d="M445.372 136.413C444.556 136.563 443.687 136.396 443.552 136.367C443.286 136.311 443.116 136.051 443.172 135.785C443.226 135.519 443.488 135.348 443.754 135.403C444.223 135.5 445.324 135.586 445.729 135.229C445.807 135.16 445.908 135.034 445.884 134.734C445.748 133.011 444.242 127.431 444.226 127.374C444.155 127.112 444.31 126.841 444.572 126.771C444.836 126.699 445.105 126.855 445.176 127.117C445.239 127.35 446.721 132.844 446.864 134.656C446.918 135.339 446.629 135.746 446.377 135.968C446.103 136.211 445.743 136.344 445.372 136.413Z" fill="#FD857D"/>
<path d="M438.834 139.767C439.358 141.763 440.916 145.399 445.413 145.128C449.92 144.856 450.979 141.383 451.272 139.016L438.834 139.767Z" fill="#FEFDFF"/>
<path d="M462.563 126.154L460.336 126.288C460.447 124.037 459.471 121.386 458.693 119.626C456.924 115.636 460.054 113.64 457.312 111.755C454.57 109.864 448.104 111.136 443.562 111.263C438.992 111.392 431.666 111.898 429.912 112.418C428.154 112.934 429.31 115.836 430.103 118.091C430.899 120.34 428.208 123.049 427.874 125.449C427.779 126.138 427.868 127.149 428.044 128.238L426.189 128.35C425.795 125.476 425.598 122.789 425.506 120.606C425.35 116.784 427.222 113.169 430.43 111.087C439.118 105.444 448.725 106.771 455.12 108.797C459.559 110.2 462.592 114.293 462.652 118.938C462.678 121.148 462.665 123.662 462.563 126.154Z" fill="#2A365C"/>
<path d="M446.834 128.618C446.639 125.39 449.106 122.606 452.335 122.411C455.563 122.215 458.347 124.683 458.542 127.912C458.738 131.14 456.27 133.924 453.042 134.119C449.814 134.314 447.029 131.847 446.834 128.618ZM447.747 128.563C447.912 131.287 450.263 133.371 452.987 133.206C455.712 133.041 457.795 130.69 457.63 127.966C457.465 125.241 455.115 123.158 452.39 123.323C449.664 123.488 447.582 125.838 447.747 128.563Z" fill="#FEFDFF"/>
<path d="M430.832 129.586C430.637 126.357 433.105 123.573 436.332 123.378C439.56 123.183 442.344 125.65 442.539 128.879C442.734 132.107 440.267 134.891 437.038 135.086C433.812 135.28 431.027 132.813 430.832 129.586ZM431.745 129.53C431.91 132.255 434.261 134.338 436.985 134.173C439.71 134.008 441.793 131.658 441.628 128.933C441.463 126.208 439.113 124.125 436.388 124.29C433.664 124.455 431.58 126.805 431.745 129.53Z" fill="#FEFDFF"/>
<path d="M457.438 126.085C457.554 126.077 457.668 126.027 457.752 125.934C457.777 125.906 460.28 123.166 463.819 123.768C464.067 123.811 464.303 123.644 464.346 123.394C464.389 123.145 464.222 122.909 463.972 122.866C459.926 122.177 457.185 125.195 457.071 125.324C456.903 125.513 456.919 125.801 457.108 125.969C457.202 126.054 457.321 126.092 457.438 126.085Z" fill="#FEFDFF"/>
<path d="M431.601 127.647C431.749 127.638 431.892 127.556 431.971 127.416C432.096 127.197 432.02 126.919 431.801 126.793C431.62 126.689 427.317 124.267 423.826 125.061C423.581 125.116 423.426 125.362 423.482 125.607C423.538 125.853 423.781 126.008 424.029 125.951C427.169 125.237 431.306 127.562 431.349 127.586C431.427 127.633 431.515 127.652 431.601 127.647Z" fill="#FEFDFF"/>
<path d="M442.141 127.583C442.15 127.568 443.146 126.036 444.572 125.951C445.983 125.865 447.051 127.27 447.062 127.285L447.797 126.739C447.741 126.665 446.429 124.923 444.518 125.039C442.621 125.153 441.421 127.015 441.37 127.094L442.141 127.583Z" fill="#FEFDFF"/>
<path d="M417.224 294.434L412.047 301.501C412.047 301.501 409.049 299.624 404.981 296.361C404.968 296.349 404.968 296.349 404.956 296.336C398.758 291.386 390.079 283.236 385.645 273.65C380.103 261.671 381.728 251.972 381.728 251.972C382.458 244.867 387.22 230.432 391.011 219.712C392.397 215.82 393.657 212.431 394.538 210.051L406.114 212.709L411.065 215.757L409.163 220.783L396.39 254.667C397.511 264.606 402.55 274.381 407.399 281.737C412.413 289.37 417.224 294.434 417.224 294.434Z" fill="#FBA691"/>
<path d="M417.224 294.434L412.047 301.5C412.047 301.5 409.049 299.623 404.981 296.361C404.968 296.348 404.968 296.348 404.955 296.336C404.061 290.995 404.603 283.449 407.399 281.736C412.412 289.37 417.224 294.434 417.224 294.434Z" fill="#FD857D"/>
<path d="M414.459 286.28C415.501 286.348 421.056 286.624 420.455 284.723C419.793 282.627 414.341 280.172 414.341 280.172C414.341 280.172 414.31 280.065 414.363 279.924L414.303 279.477L414.063 274.971C413.01 274.979 412.042 275.184 411.518 275.347C409.129 276.086 409.456 281.552 409.456 281.552C409.456 281.552 406.443 282.629 406.553 284.835C406.662 287.042 409.09 287.374 409.09 287.374C409.09 287.374 405.774 289.029 406.549 290.904C407.325 292.78 409.838 293.332 409.838 293.332C409.838 293.332 406.994 295.207 407.988 296.531C408.98 297.855 411.298 298.518 411.298 298.518C411.298 298.518 409.314 301.203 411.331 302.667C413.346 304.131 416.312 303.813 418.218 303.151C420.125 302.489 419.794 300.062 416.043 298.296C416.043 298.296 419.353 298.627 421.007 295.869C422.388 293.568 418.867 292.575 415.864 292.179C418.223 292.338 422.294 292.271 422.994 290.02C423.909 287.067 415.734 286.371 414.459 286.28Z" fill="#FBA691"/>
<path d="M411.065 215.757L409.163 220.783C405.321 221.022 398.443 221.136 391.011 219.712C392.397 215.82 393.656 212.431 394.538 210.051L406.114 212.709L411.065 215.757Z" fill="#FD857D"/>
<path d="M412.657 174.892C412.657 174.892 398.567 189.027 388.279 213.682C396.342 216.29 403.974 218.135 411.062 219.017C411.997 217.374 415.694 206.831 418.479 199.224L412.657 174.892Z" fill="#61B3FF"/>
</svg>
