<svg width="558" height="556" viewBox="0 0 558 556" fill="none" xmlns="http://www.w3.org/2000/svg">
<mask id="mask0_937_9934" style="mask-type:luminance" maskUnits="userSpaceOnUse" x="1" y="2" width="556" height="554">
<path d="M237.784 555.733C229.067 555.733 220.483 555.385 212.059 554.693C189.387 552.824 150.319 549.606 111.68 530.809C113.179 528.021 114.137 525.378 114.701 522.955H139.756V498.058H253.303C256.999 498.058 259.995 495.063 259.995 491.369V383.694C259.995 380.001 256.999 377.005 253.303 377.005H232.967C228.793 357.693 222.732 331.992 214.534 302.623H344.179C345.788 333.789 363.899 351.34 384.506 361.209C392.79 365.177 401.466 367.79 410.239 369.095V510.537C356.301 540.98 294.476 555.733 237.784 555.733ZM102.144 525.836C100.909 525.148 99.6788 524.442 98.448 523.717C98.6316 523.465 98.8201 523.211 99.0136 522.955H104.289C103.582 523.937 102.861 524.904 102.144 525.836ZM31.291 454.03C-9.95226 379.44 -7.057 274.641 30.8976 187.159C33.7802 230.391 46.4853 275.428 77.1982 315.2H54.3028V312.631L34.1718 300.348V300.368L31.2688 298.339L31.291 454.03ZM149.171 377.005H139.756V371.286C142.81 373.219 145.959 375.134 149.171 377.005ZM553.967 297.353C551.498 284.406 548.409 271.392 546.255 258.843C543.63 243.546 542.418 228.364 544.875 212.952C545.735 207.547 547.19 201.987 548.419 196.384C556.155 228.996 557.939 263.538 553.967 297.353ZM480.662 177.472C478.287 173.448 476.056 169.374 474.061 165.22C469.279 155.255 465.857 144.824 465.058 133.464C463.642 113.3 471.482 94.2621 480.51 76.155C491.176 86.6283 504.418 101.496 516.817 120.79C522.692 129.932 527.894 139.525 532.435 149.478C529.837 148.522 527.104 148.075 524.292 148.075C510.672 148.075 495.224 158.539 484.488 172.184C483.154 173.882 481.879 175.645 480.662 177.472ZM406.353 142.605L274.654 42.2799L153.229 135.025C142.641 112.773 130.952 90.9205 118.095 70.244C155.634 39.0623 216.729 2.00751 295.543 2.00751C296.385 2.00751 297.226 2.01154 298.074 2.01953C347.515 2.51782 389.142 17.4973 418.513 32.4269C410.729 42.0958 405.28 53.1273 403.836 64.323C400.728 88.4112 407.239 116.579 406.353 142.605Z" fill="white"/>
</mask>
<g mask="url(#mask0_937_9934)">
<path d="M237.783 555.733C229.067 555.733 220.482 555.385 212.058 554.693C189.387 552.824 150.319 549.607 111.68 530.809C113.179 528.021 114.137 525.378 114.701 522.955H139.756V498.058H253.303C256.999 498.058 259.994 495.063 259.994 491.369V383.694C259.994 380.001 256.999 377.005 253.303 377.005H232.967C228.792 357.694 222.732 331.993 214.533 302.624H344.178C345.788 333.79 363.897 351.34 384.504 361.209C392.79 365.177 401.465 367.791 410.237 369.095V510.537C356.301 540.98 294.476 555.733 237.783 555.733ZM102.144 525.836C100.909 525.148 99.6786 524.441 98.4476 523.717C98.6313 523.465 98.8198 523.211 99.0135 522.955H104.289C103.582 523.937 102.86 524.904 102.144 525.836ZM31.2908 454.03C-9.9522 379.441 -7.05694 274.642 30.8974 187.161C33.7803 230.392 46.4852 275.428 77.1981 315.2H54.3026V312.631L34.1717 300.348V300.369L31.2689 298.34L31.2908 454.03ZM149.171 377.005H139.756V371.286C142.809 373.219 145.959 375.134 149.171 377.005ZM553.968 297.353C551.497 284.407 548.408 271.392 546.256 258.844C543.63 243.548 542.418 228.364 544.873 212.953C545.734 207.549 547.189 201.986 548.416 196.383C556.155 228.998 557.937 263.538 553.968 297.353ZM480.664 177.473C478.288 173.448 476.057 169.375 474.06 165.222C469.278 155.255 465.854 144.826 465.057 133.464C463.643 113.299 471.482 94.2614 480.508 76.1566C491.177 86.6297 504.419 101.495 516.817 120.791C522.692 129.933 527.892 139.526 532.435 149.481C529.837 148.52 527.103 148.078 524.29 148.078C510.672 148.078 495.222 158.539 484.489 172.184C483.154 173.882 481.879 175.648 480.664 177.473ZM406.351 142.606L274.654 42.2823L153.229 135.026C142.641 112.773 130.951 90.9218 118.095 70.2465C155.634 39.0622 216.728 2.00769 295.542 2.00769C296.385 2.00769 297.225 2.01166 298.073 2.01965C347.514 2.51782 389.143 17.4982 418.514 32.4268C410.727 42.095 405.279 53.1261 403.837 64.3245C400.728 88.4112 407.24 116.579 406.351 142.606Z" fill="white"/>
</g>
<path d="M240.276 414.216C240.276 414.216 199.4 164.76 84.6427 22.8841C76.9281 13.3456 61.1922 15.8516 56.9249 27.3323C28.3888 104.107 -33.3495 338.53 240.276 414.216Z" fill="#ABD3F2"/>
<path d="M199.094 377.005H193.948C179.094 360.601 159.915 335.913 141.137 302.623H150.648C164.517 328.479 180.591 353.886 199.094 377.005ZM125.819 273.17C103.947 227.437 84.5373 169.151 75.8087 97.7717C75.7679 97.435 76.0457 97.2378 76.3151 97.2378C76.5171 97.2378 76.714 97.35 76.7674 97.5983C82.0114 121.976 96.9519 183.908 125.819 250.955V273.17Z" fill="#C8D9FD"/>
<path d="M474.062 165.218C469.278 155.253 465.859 144.823 465.061 133.462C463.05 104.844 479.684 78.4855 491.909 53.8446C503.141 31.1983 511.489 -2.54846 473.588 0.4534C443.389 2.84525 407.885 32.94 403.836 64.323C399.044 101.465 417.123 148.299 395.685 182.037C365.698 229.236 344.063 218.417 344.063 298.064C344.063 332.096 362.913 350.869 384.504 361.208C418.584 377.529 459.221 370.933 486.374 344.656C510.361 321.442 524.624 288.07 519.8 254.566C514.928 220.728 488.389 195.064 474.062 165.218Z" fill="#ABD3F2"/>
<path d="M448.721 421.292C448.252 421.292 447.822 420.972 447.697 420.492C428.912 345.505 418.686 277.531 417.306 218.456C416.199 171.149 420.727 129.407 430.769 94.3782C447.92 34.5504 474.815 15.3351 475.949 14.5491C476.43 14.2167 477.091 14.334 477.423 14.815C477.751 15.292 477.634 15.9529 477.157 16.2853C476.883 16.4769 449.632 36.0089 432.72 95.2423C417.091 149.987 407.358 250.767 449.75 419.977C449.89 420.544 449.546 421.118 448.979 421.26C448.893 421.282 448.807 421.292 448.721 421.292Z" fill="#7D97F4"/>
<path d="M504.152 81.2574C502.691 80.8604 501.088 80.7379 499.381 80.9346C489.932 82.0216 486.051 91.983 483.276 99.7703C480.902 106.441 478.101 114.536 479.503 121.763C481.024 129.577 489.32 135.95 495.341 128.018C502.182 118.999 512.452 105.157 512.511 93.2073C512.544 87.2713 509.209 82.6301 504.152 81.2574Z" fill="#91B3FA"/>
<path d="M557.01 346.545C561.162 319.185 551.218 287.775 546.256 258.843C543.63 243.546 542.416 228.363 544.873 212.951C547.318 197.627 554.517 181.057 547.879 165.789C534.499 135.034 502.702 149.031 484.488 172.182C463.348 199.054 457.572 242.957 449.544 276.766C444.702 297.148 437.411 318.053 434.857 338.821C430.629 373.229 438.409 397.115 454.867 413.247C470.655 428.719 494.697 431.928 514.009 421.173C531.453 411.458 550.308 390.681 557.01 346.545Z" fill="#BDD0FB"/>
<path d="M484.26 473.444C483.778 473.444 483.352 473.096 483.267 472.606C483.2 472.19 476.286 430.475 476.104 372.902C475.937 319.749 481.636 241.806 509.731 172.336C509.942 171.821 510.524 171.573 511.039 171.784C511.554 171.991 511.803 172.573 511.595 173.092C483.626 242.247 477.953 319.895 478.116 372.856C478.29 430.275 485.183 471.86 485.253 472.272C485.342 472.82 484.975 473.338 484.427 473.431C484.371 473.438 484.315 473.444 484.26 473.444Z" fill="#7D97F4"/>
<path d="M517.962 523.675H410.238V315.92H517.962V523.675Z" fill="#7D97F4"/>
<mask id="mask1_937_9934" style="mask-type:luminance" maskUnits="userSpaceOnUse" x="433" y="372" width="63" height="96">
<path d="M494.977 467.248H433.868C433.744 467.248 433.644 467.148 433.644 467.024V372.572C433.644 372.448 433.744 372.348 433.868 372.348H494.977C495.101 372.348 495.201 372.448 495.201 372.572V467.024C495.201 467.148 495.101 467.248 494.977 467.248ZM466.936 377.477C466.868 377.477 466.812 377.533 466.812 377.603V461.993C466.812 462.061 466.868 462.117 466.936 462.117H490.588C490.656 462.117 490.712 462.061 490.712 461.993V377.603C490.712 377.533 490.656 377.477 490.588 377.477H466.936ZM438.258 377.477C438.188 377.477 438.132 377.533 438.132 377.603V461.993C438.132 462.061 438.188 462.117 438.258 462.117H461.908C461.976 462.117 462.032 462.061 462.032 461.993V377.603C462.032 377.533 461.976 377.477 461.908 377.477H438.258Z" fill="white"/>
</mask>
<g mask="url(#mask1_937_9934)">
<path d="M494.977 467.248H433.867C433.744 467.248 433.644 467.148 433.644 467.024V372.572C433.644 372.448 433.744 372.348 433.867 372.348H494.977C495.099 372.348 495.2 372.448 495.2 372.572V467.024C495.2 467.148 495.099 467.248 494.977 467.248ZM466.937 377.477C466.869 377.477 466.811 377.532 466.811 377.603V461.993C466.811 462.061 466.869 462.117 466.937 462.117H490.588C490.656 462.117 490.71 462.061 490.71 461.993V377.603C490.71 377.532 490.656 377.477 490.588 377.477H466.937ZM438.256 377.477C438.188 377.477 438.13 377.532 438.13 377.603V461.993C438.13 462.061 438.188 462.117 438.256 462.117H461.907C461.975 462.117 462.033 462.061 462.033 461.993V377.603C462.033 377.532 461.975 377.477 461.907 377.477H438.256Z" fill="url(#paint0_linear_937_9934)"/>
</g>
<path d="M490.585 462.118H466.933C466.865 462.118 466.812 462.062 466.812 461.993V377.603C466.812 377.533 466.865 377.477 466.933 377.477H490.585C490.653 377.477 490.71 377.533 490.71 377.603V461.993C490.71 462.062 490.653 462.118 490.585 462.118Z" fill="#7D97F4"/>
<path d="M461.908 462.118H438.257C438.185 462.118 438.131 462.062 438.131 461.994V377.603C438.131 377.533 438.185 377.477 438.257 377.477H461.908C461.976 377.477 462.03 377.533 462.03 377.603V461.994C462.03 462.062 461.976 462.118 461.908 462.118Z" fill="#7D97F4"/>
<mask id="mask2_937_9934" style="mask-type:luminance" maskUnits="userSpaceOnUse" x="399" y="234" width="146" height="99">
<path d="M538.243 332.324H405.121L399.688 236.499L509.74 234.412L543.487 324.112C545.264 327.944 542.467 332.324 538.243 332.324Z" fill="white"/>
</mask>
<g mask="url(#mask2_937_9934)">
<path d="M538.243 332.324H405.121L399.688 236.5L509.742 234.412L543.489 324.112C545.265 327.944 542.466 332.324 538.243 332.324Z" fill="#6A728D"/>
</g>
<mask id="mask3_937_9934" style="mask-type:luminance" maskUnits="userSpaceOnUse" x="404" y="226" width="107" height="13">
<path d="M510.192 238.819L404.408 237.636L405.073 226.927L503.944 227.681C507.762 227.917 510.676 231.017 510.454 234.603L510.192 238.819Z" fill="white"/>
</mask>
<g mask="url(#mask3_937_9934)">
<path d="M510.191 238.82L404.406 237.637L405.072 226.926L503.946 227.68C507.761 227.916 510.675 231.015 510.453 234.601L510.191 238.82Z" fill="#445279"/>
</g>
<path d="M32.0283 522.956H139.753V315.201H32.0283V522.956Z" fill="#7D97F4"/>
<mask id="mask4_937_9934" style="mask-type:luminance" maskUnits="userSpaceOnUse" x="54" y="371" width="63" height="91">
<path d="M54.7891 461.549V371.851C54.7891 371.725 54.8897 371.625 55.0138 371.625H116.121C116.245 371.625 116.347 371.725 116.347 371.851V377.004H111.859V376.88C111.859 376.812 111.802 376.756 111.732 376.756H88.0825C88.0137 376.756 87.9576 376.812 87.9576 376.88V377.004H83.1776V376.88C83.1776 376.812 83.1218 376.756 83.0525 376.756H59.4024C59.3334 376.756 59.2775 376.812 59.2775 376.88V453.475C58.2296 455.556 56.5594 458.381 54.7891 461.549Z" fill="white"/>
</mask>
<g mask="url(#mask4_937_9934)">
<path d="M54.7891 461.549V371.851C54.7891 371.725 54.8897 371.625 55.0138 371.625H116.121C116.245 371.625 116.347 371.725 116.347 371.851V377.004H111.859V376.88C111.859 376.812 111.802 376.756 111.732 376.756H88.0825C88.0137 376.756 87.9576 376.812 87.9576 376.88V377.004H83.1776V376.88C83.1776 376.812 83.1218 376.756 83.0525 376.756H59.4024C59.3334 376.756 59.2775 376.812 59.2775 376.88V453.475C58.2296 455.556 56.5594 458.381 54.7891 461.549Z" fill="url(#paint1_linear_937_9934)"/>
</g>
<path d="M59.2812 453.476V376.881C59.2812 376.813 59.3371 376.757 59.4061 376.757H83.0563C83.1255 376.757 83.1813 376.813 83.1813 376.881V377.005H67.0006C63.3059 377.005 60.3106 380.001 60.3106 383.695V452.333C59.9076 452.536 59.601 452.83 59.4087 453.22C59.3673 453.304 59.3249 453.388 59.2812 453.476Z" fill="#7D97F4"/>
<path d="M111.863 377.005H87.9619V376.881C87.9619 376.813 88.0179 376.757 88.0868 376.757H111.737C111.807 376.757 111.863 376.813 111.863 376.881V377.005Z" fill="#7D97F4"/>
<mask id="mask5_937_9934" style="mask-type:luminance" maskUnits="userSpaceOnUse" x="5" y="233" width="146" height="99">
<path d="M11.7434 331.604H144.865L150.296 235.78L40.246 233.691L6.49936 323.39C4.72266 327.222 7.52028 331.604 11.7434 331.604Z" fill="white"/>
</mask>
<g mask="url(#mask5_937_9934)">
<path d="M11.7453 331.603H144.867L150.298 235.779L40.248 233.689L6.50123 323.388C4.72474 327.221 7.52215 331.603 11.7453 331.603Z" fill="#6A728D"/>
</g>
<mask id="mask6_937_9934" style="mask-type:luminance" maskUnits="userSpaceOnUse" x="39" y="226" width="107" height="13">
<path d="M39.7988 238.097L145.582 236.916L144.919 226.205L46.047 226.959C42.2295 227.195 39.315 230.295 39.5373 233.881L39.7988 238.097Z" fill="white"/>
</mask>
<g mask="url(#mask6_937_9934)">
<path d="M39.8008 238.097L145.584 236.914L144.921 226.204L46.0491 226.958C42.2315 227.196 39.3169 230.293 39.5393 233.879L39.8008 238.097Z" fill="#445279"/>
</g>
<mask id="mask7_937_9934" style="mask-type:luminance" maskUnits="userSpaceOnUse" x="227" y="517" width="91" height="16">
<path d="M317.111 532.376H227.611V517.829C227.611 517.478 227.895 517.194 228.246 517.194H316.476C316.826 517.194 317.111 517.478 317.111 517.829V532.376Z" fill="white"/>
</mask>
<g mask="url(#mask7_937_9934)">
<path d="M317.112 532.375H227.612V517.827C227.612 517.477 227.896 517.193 228.248 517.193H316.477C316.828 517.193 317.112 517.477 317.112 517.827V532.375Z" fill="url(#paint2_linear_937_9934)"/>
</g>
<path d="M124.867 302.623V532.124H418.791C421.772 532.124 424.192 529.704 424.192 526.721V302.623H124.867Z" fill="#BDD0FB"/>
<path d="M302.907 517.195H241.819V400.412C241.819 399.093 242.888 398.026 244.204 398.026H300.521C301.838 398.026 302.907 399.095 302.907 400.412V517.195Z" fill="#7D97F4"/>
<mask id="mask8_937_9934" style="mask-type:luminance" maskUnits="userSpaceOnUse" x="244" y="402" width="57" height="111">
<path d="M300.605 512.701H244.126V403.23C244.126 402.838 244.444 402.517 244.838 402.517H299.892C300.286 402.517 300.605 402.838 300.605 403.23V512.701Z" fill="white"/>
</mask>
<g mask="url(#mask8_937_9934)">
<path d="M300.605 512.701H244.127V403.229C244.127 402.837 244.445 402.516 244.838 402.516H299.892C300.287 402.516 300.605 402.837 300.605 403.229V512.701Z" fill="#6A728D"/>
</g>
<mask id="mask9_937_9934" style="mask-type:luminance" maskUnits="userSpaceOnUse" x="241" y="373" width="62" height="18">
<path d="M298.593 390.003H246.132C243.751 390.003 241.82 388.072 241.82 385.691V381.923C241.82 379.658 243.573 377.777 245.834 377.621L298.295 373.977C300.788 373.803 302.907 375.78 302.907 378.279V385.691C302.907 388.072 300.974 390.003 298.593 390.003Z" fill="white"/>
</mask>
<g mask="url(#mask9_937_9934)">
<path d="M298.591 390.005H246.13C243.75 390.005 241.818 388.073 241.818 385.693V381.924C241.818 379.66 243.571 377.779 245.832 377.621L298.293 373.978C300.787 373.803 302.906 375.781 302.906 378.28V385.693C302.906 388.073 300.974 390.005 298.591 390.005Z" fill="url(#paint3_linear_937_9934)"/>
</g>
<path d="M302.497 524.575H242.954C240.25 524.575 238.059 522.382 238.059 519.679V515.403C238.059 512.831 240.017 505.716 242.584 505.538L302.158 506.382C304.99 506.186 307.392 508.429 307.392 511.266V519.679C307.392 522.382 305.201 524.575 302.497 524.575Z" fill="#7D97F4"/>
<path d="M302.655 533.886H243.113C240.408 533.886 238.218 531.695 238.218 528.992V524.715C238.218 522.142 238.779 517.372 241.347 517.194L302.319 515.695C305.146 515.499 307.552 517.742 307.552 520.579V528.992C307.552 531.695 305.362 533.886 302.655 533.886Z" fill="#7D97F4"/>
<mask id="mask10_937_9934" style="mask-type:luminance" maskUnits="userSpaceOnUse" x="321" y="366" width="88" height="141">
<path d="M408.291 506.255H322.396C322.048 506.255 321.768 505.975 321.768 505.627V367.407C321.768 367.059 322.048 366.777 322.396 366.777H408.291C408.639 366.777 408.92 367.059 408.92 367.407V505.627C408.92 505.975 408.639 506.255 408.291 506.255Z" fill="white"/>
</mask>
<g mask="url(#mask10_937_9934)">
<path d="M408.293 506.256H322.397C322.049 506.256 321.767 505.976 321.767 505.628V367.409C321.767 367.06 322.049 366.778 322.397 366.778H408.293C408.64 366.778 408.92 367.06 408.92 367.409V505.628C408.92 505.976 408.64 506.256 408.293 506.256Z" fill="url(#paint4_linear_937_9934)"/>
</g>
<path d="M401.949 501.106H328.562C327.478 501.106 326.599 500.225 326.599 499.139V374.596C326.599 373.51 327.478 372.63 328.562 372.63H401.949C403.035 372.63 403.915 373.51 403.915 374.596V499.139C403.915 500.225 403.035 501.106 401.949 501.106Z" fill="#7D97F4"/>
<mask id="mask11_937_9934" style="mask-type:luminance" maskUnits="userSpaceOnUse" x="361" y="370" width="5" height="137">
<path d="M365.882 506.254H361.45V370.864H365.882V506.254Z" fill="white"/>
</mask>
<g mask="url(#mask11_937_9934)">
<path d="M365.883 506.254H361.451V370.864H365.883V506.254Z" fill="url(#paint5_linear_937_9934)"/>
</g>
<mask id="mask12_937_9934" style="mask-type:luminance" maskUnits="userSpaceOnUse" x="139" y="366" width="88" height="141">
<path d="M226.28 506.255H140.382C140.036 506.255 139.754 505.975 139.754 505.627V367.407C139.754 367.059 140.036 366.777 140.382 366.777H226.28C226.626 366.777 226.908 367.059 226.908 367.407V505.627C226.908 505.975 226.626 506.255 226.28 506.255Z" fill="white"/>
</mask>
<g mask="url(#mask12_937_9934)">
<path d="M226.28 506.255H140.382C140.036 506.255 139.754 505.975 139.754 505.627V367.407C139.754 367.059 140.036 366.777 140.382 366.777H226.28C226.626 366.777 226.908 367.059 226.908 367.407V505.627C226.908 505.975 226.626 506.255 226.28 506.255Z" fill="url(#paint6_linear_937_9934)"/>
</g>
<path d="M219.935 501.106H146.55C145.463 501.106 144.583 500.226 144.583 499.139V374.596C144.583 373.509 145.463 372.629 146.55 372.629H219.935C221.02 372.629 221.9 373.509 221.9 374.596V499.139C221.9 500.226 221.02 501.106 219.935 501.106Z" fill="#7D97F4"/>
<mask id="mask13_937_9934" style="mask-type:luminance" maskUnits="userSpaceOnUse" x="179" y="370" width="5" height="137">
<path d="M183.868 506.254H179.436V370.864H183.868V506.254Z" fill="white"/>
</mask>
<g mask="url(#mask13_937_9934)">
<path d="M183.868 506.254H179.436V370.864H183.868V506.254Z" fill="url(#paint7_linear_937_9934)"/>
</g>
<path d="M427.687 174.257L425.144 172.336V169.662H421.611L274.529 58.497L125.82 169.662V302.625H425.144V187.968L427.687 174.257Z" fill="#BDD0FB"/>
<mask id="mask14_937_9934" style="mask-type:luminance" maskUnits="userSpaceOnUse" x="340" y="71" width="25" height="41">
<path d="M364.95 111.738H340.191V71.4254H364.95V111.738Z" fill="white"/>
</mask>
<g mask="url(#mask14_937_9934)">
<path d="M364.948 111.74H340.189V71.4267H364.948V111.74Z" fill="#6A728D"/>
</g>
<mask id="mask15_937_9934" style="mask-type:luminance" maskUnits="userSpaceOnUse" x="333" y="65" width="41" height="13">
<path d="M373.106 77.9575H333.086V66.7979C333.086 66.1236 333.632 65.5773 334.307 65.5773H371.249C372.274 65.5773 373.106 66.4077 373.106 67.4342V77.9575Z" fill="white"/>
</mask>
<g mask="url(#mask15_937_9934)">
<path d="M373.107 77.9561H333.089V66.7965C333.089 66.1242 333.635 65.5777 334.308 65.5777H371.252C372.277 65.5777 373.107 66.4082 373.107 67.4328V77.9561Z" fill="#445279"/>
</g>
<mask id="mask16_937_9934" style="mask-type:luminance" maskUnits="userSpaceOnUse" x="109" y="42" width="334" height="149">
<path d="M115.81 190.833L109.657 175.841C108.267 172.455 109.321 168.559 112.231 166.338L153.225 135.024L274.651 42.2794L406.349 142.604L419.748 152.811L421.801 154.374L442.448 170.102L440.333 180.447C439.386 185.082 435.344 187.941 431.132 187.941C429.199 187.941 427.228 187.339 425.505 186.03C425.479 186.01 425.451 185.988 425.425 185.968L274.651 69.0169L125.82 183.157L115.81 190.833Z" fill="white"/>
</mask>
<g mask="url(#mask16_937_9934)">
<path d="M115.81 190.833L109.657 175.84C108.267 172.457 109.321 168.558 112.231 166.337L153.225 135.023L274.651 42.2794L406.351 142.604L419.749 152.813L421.801 154.375L442.447 170.102L440.331 180.449C439.385 185.08 435.344 187.94 431.131 187.94C429.199 187.94 427.229 187.338 425.505 186.03C425.479 186.011 425.449 185.989 425.427 185.966L274.651 69.0184L125.82 183.155L115.81 190.833Z" fill="#6A728D"/>
</g>
<mask id="mask17_937_9934" style="mask-type:luminance" maskUnits="userSpaceOnUse" x="242" y="188" width="63" height="95">
<path d="M303.917 282.922H242.808C242.684 282.922 242.584 282.82 242.584 282.696V188.246C242.584 188.122 242.684 188.02 242.808 188.02H303.917C304.041 188.02 304.141 188.122 304.141 188.246V282.696C304.141 282.82 304.041 282.922 303.917 282.922ZM275.877 193.15C275.809 193.15 275.753 193.207 275.753 193.275V277.667C275.753 277.735 275.809 277.791 275.877 277.791H299.527C299.597 277.791 299.653 277.735 299.653 277.667V193.275C299.653 193.207 299.597 193.15 299.527 193.15H275.877ZM247.196 193.15C247.128 193.15 247.072 193.207 247.072 193.275V277.667C247.072 277.735 247.128 277.791 247.196 277.791H270.848C270.916 277.791 270.972 277.735 270.972 277.667V193.275C270.972 193.207 270.916 193.15 270.848 193.15H247.196Z" fill="white"/>
</mask>
<g mask="url(#mask17_937_9934)">
<mask id="mask18_937_9934" style="mask-type:luminance" maskUnits="userSpaceOnUse" x="242" y="188" width="63" height="95">
<path d="M242.585 282.922H304.142V188.02H242.585V282.922Z" fill="white"/>
</mask>
<g mask="url(#mask18_937_9934)">
<path d="M242.743 282.933V282.913H242.703V282.893H242.664V282.873H242.644V282.853H242.624V282.834H242.604V282.791H242.584V188.144H242.604V188.124H242.624V188.084H242.644V188.064H242.684V188.044H242.703V188.024H242.763V188.004H303.975V188.024H304.034V188.044H304.054V188.064H304.074V188.084H304.094V188.104H304.114V188.124H304.134V188.183H304.154V282.751H304.134V282.814H304.114V282.834H304.094V282.873H304.054V282.893H304.034V282.913H303.995V282.933H242.743ZM247.186 277.771V277.791H270.858V277.771H270.897V277.751H270.937V277.708H270.957V193.226H270.937V193.206H270.917V193.186H270.897V193.166H247.146V193.186H247.126V193.206H247.106V193.226H247.086V277.708H247.106V277.728H247.126V277.751H247.146V277.771H247.186ZM275.86 277.771V277.791H299.532V277.771H299.592V277.751H299.612V277.728H299.632V277.669H299.652V193.266H299.632V193.226H299.612V193.186H299.572V193.166H275.84V193.186H275.801V193.206H275.781V193.246H275.761V277.689H275.781V277.728H275.801V277.751H275.821V277.771" fill="url(#paint8_linear_937_9934)"/>
</g>
</g>
<path d="M270.846 277.792H247.195C247.128 277.792 247.071 277.736 247.071 277.668V193.275C247.071 193.207 247.128 193.151 247.195 193.151H270.846C270.916 193.151 270.972 193.207 270.972 193.275V277.668C270.972 277.736 270.916 277.792 270.846 277.792Z" fill="#849DF5"/>
<path d="M299.524 277.792H275.873C275.805 277.792 275.749 277.736 275.749 277.668V193.275C275.749 193.207 275.805 193.151 275.873 193.151H299.524C299.594 193.151 299.65 193.207 299.65 193.275V277.668C299.65 277.736 299.594 277.792 299.524 277.792Z" fill="#849DF5"/>
<mask id="mask19_937_9934" style="mask-type:luminance" maskUnits="userSpaceOnUse" x="156" y="188" width="62" height="96">
<path d="M217.525 283.591H156.418C156.294 283.591 156.194 283.491 156.194 283.367V188.915C156.194 188.791 156.294 188.691 156.418 188.691H217.525C217.651 188.691 217.751 188.791 217.751 188.915V283.367C217.751 283.491 217.651 283.591 217.525 283.591ZM189.487 193.822C189.419 193.822 189.363 193.878 189.363 193.946V278.337C189.363 278.407 189.419 278.463 189.487 278.463H213.137C213.207 278.463 213.263 278.407 213.263 278.337V193.946C213.263 193.878 213.207 193.822 213.137 193.822H189.487ZM160.807 193.822C160.739 193.822 160.683 193.878 160.683 193.946V278.337C160.683 278.407 160.739 278.463 160.807 278.463H184.457C184.527 278.463 184.583 278.407 184.583 278.337V193.946C184.583 193.878 184.527 193.822 184.457 193.822H160.807Z" fill="white"/>
</mask>
<g mask="url(#mask19_937_9934)">
<path d="M217.526 283.593H156.418C156.294 283.593 156.194 283.491 156.194 283.368V188.916C156.194 188.791 156.294 188.691 156.418 188.691H217.526C217.651 188.691 217.75 188.791 217.75 188.916V283.368C217.75 283.491 217.651 283.593 217.526 283.593ZM189.487 193.823C189.419 193.823 189.363 193.877 189.363 193.945V278.336C189.363 278.407 189.419 278.464 189.487 278.464H213.138C213.206 278.464 213.263 278.407 213.263 278.336V193.945C213.263 193.877 213.206 193.823 213.138 193.823H189.487ZM160.806 193.823C160.738 193.823 160.683 193.877 160.683 193.945V278.336C160.683 278.407 160.738 278.464 160.806 278.464H184.457C184.526 278.464 184.582 278.407 184.582 278.336V193.945C184.582 193.877 184.526 193.823 184.457 193.823H160.806Z" fill="url(#paint9_linear_937_9934)"/>
</g>
<path d="M184.458 278.463H160.808C160.74 278.463 160.684 278.407 160.684 278.337V193.946C160.684 193.879 160.74 193.823 160.808 193.823H184.458C184.528 193.823 184.584 193.879 184.584 193.946V278.337C184.584 278.407 184.528 278.463 184.458 278.463Z" fill="#849DF5"/>
<path d="M213.14 278.463H189.488C189.42 278.463 189.364 278.407 189.364 278.337V193.946C189.364 193.879 189.42 193.823 189.488 193.823H213.14C213.208 193.823 213.264 193.879 213.264 193.946V278.337C213.264 278.407 213.208 278.463 213.14 278.463Z" fill="#849DF5"/>
<mask id="mask20_937_9934" style="mask-type:luminance" maskUnits="userSpaceOnUse" x="325" y="189" width="62" height="96">
<path d="M386.558 284.451H325.451C325.327 284.451 325.227 284.351 325.227 284.227V189.775C325.227 189.651 325.327 189.551 325.451 189.551H386.56C386.684 189.551 386.784 189.651 386.784 189.775V284.227C386.784 284.351 386.684 284.451 386.558 284.451ZM358.519 194.679C358.451 194.679 358.395 194.735 358.395 194.805V279.196C358.395 279.264 358.451 279.32 358.519 279.32H382.169C382.239 279.32 382.295 279.264 382.295 279.196V194.805C382.295 194.735 382.239 194.679 382.169 194.679H358.519ZM329.839 194.679C329.771 194.679 329.715 194.735 329.715 194.805V279.196C329.715 279.264 329.771 279.32 329.839 279.32H353.491C353.559 279.32 353.615 279.264 353.615 279.196V194.805C353.615 194.735 353.559 194.679 353.491 194.679H329.839Z" fill="white"/>
</mask>
<g mask="url(#mask20_937_9934)">
<path d="M386.559 284.449H325.453C325.326 284.449 325.227 284.349 325.227 284.226V189.774C325.227 189.651 325.326 189.551 325.453 189.551H386.562C386.685 189.551 386.785 189.651 386.785 189.774V284.226C386.785 284.349 386.685 284.449 386.559 284.449ZM358.52 194.678C358.452 194.678 358.396 194.734 358.396 194.805V279.195C358.396 279.263 358.452 279.319 358.52 279.319H382.171C382.242 279.319 382.298 279.263 382.298 279.195V194.805C382.298 194.734 382.242 194.678 382.171 194.678H358.52ZM329.84 194.678C329.772 194.678 329.717 194.734 329.717 194.805V279.195C329.717 279.263 329.772 279.319 329.84 279.319H353.492C353.559 279.319 353.615 279.263 353.615 279.195V194.805C353.615 194.734 353.559 194.678 353.492 194.678H329.84Z" fill="url(#paint10_linear_937_9934)"/>
</g>
<path d="M353.488 279.322H329.837C329.77 279.322 329.714 279.266 329.714 279.196V194.806C329.714 194.736 329.77 194.68 329.837 194.68H353.488C353.558 194.68 353.614 194.736 353.614 194.806V279.196C353.614 279.266 353.558 279.322 353.488 279.322Z" fill="#849DF5"/>
<path d="M382.172 279.319H358.521C358.454 279.319 358.398 279.264 358.398 279.194V194.803C358.398 194.733 358.454 194.678 358.521 194.678H382.172C382.242 194.678 382.297 194.733 382.297 194.803V279.194C382.297 279.264 382.242 279.319 382.172 279.319Z" fill="#849DF5"/>
<path d="M426.887 317.036H122.174C118.959 317.036 116.352 314.43 116.352 311.213V305.717C116.352 302.503 118.959 299.894 122.174 299.894H426.887C430.101 299.894 432.709 302.503 432.709 305.717V311.213C432.709 314.43 430.101 317.036 426.887 317.036Z" fill="#7D97F4"/>
<mask id="mask21_937_9934" style="mask-type:luminance" maskUnits="userSpaceOnUse" x="60" y="377" width="200" height="122">
<path d="M253.304 498.058H109.963C109.999 496.9 109.953 495.751 109.817 494.62H248.877C252.573 494.62 255.567 491.625 255.567 487.931V389.041C255.567 385.345 252.573 382.352 248.877 382.352H71.8575C68.1629 382.352 65.1676 385.345 65.1676 389.041V452.423C64.043 452.129 63.0269 451.971 62.1634 451.971C61.4251 451.971 60.7979 452.087 60.3125 452.333V383.694C60.3125 380 63.3078 377.005 67.0025 377.005H83.1833H87.9633H111.864H116.352H139.756H149.171H193.952H199.098H232.967H253.304C257 377.005 259.995 380 259.995 383.694V491.369C259.995 495.063 257 498.058 253.304 498.058ZM94.3561 498.058H84.9456C85.1325 496.93 85.3533 495.779 85.5949 494.62H94.95C94.7751 495.729 94.5766 496.884 94.3561 498.058Z" fill="white"/>
</mask>
<g mask="url(#mask21_937_9934)">
<path d="M253.304 498.057H139.756H109.963C109.999 496.899 109.953 495.75 109.817 494.619H248.877C252.574 494.619 255.568 491.624 255.568 487.93V389.039C255.568 385.345 252.574 382.35 248.877 382.35H71.8576C68.1629 382.35 65.1674 385.345 65.1674 389.039V452.422C64.0428 452.128 63.0267 451.97 62.1633 451.97C61.425 451.97 60.7978 452.086 60.3125 452.332V383.694C60.3125 379.999 63.3078 377.005 67.0025 377.005H83.1832H87.9632H111.864H116.352H139.756H149.17H193.951H199.098H232.968H253.304C257.001 377.005 259.996 379.999 259.996 383.694V491.368C259.996 495.062 257.001 498.057 253.304 498.057ZM94.3561 498.057H84.9456C85.1325 496.929 85.3534 495.778 85.5949 494.619H94.95C94.775 495.728 94.5767 496.883 94.3561 498.057Z" fill="url(#paint11_linear_937_9934)"/>
</g>
<path d="M248.876 494.621H71.8551C68.1604 494.621 65.165 491.626 65.165 487.932V389.042C65.165 385.345 68.1604 382.352 71.8551 382.352H248.876C252.571 382.352 255.564 385.345 255.564 389.042V487.932C255.564 491.626 252.571 494.621 248.876 494.621Z" fill="white"/>
<mask id="mask22_937_9934" style="mask-type:luminance" maskUnits="userSpaceOnUse" x="77" y="398" width="24" height="36">
<path d="M99.8833 412.862V420.231H87.5989V433.99H77.7715V398.12H100.866V405.982H87.5989V412.862H99.8833Z" fill="white"/>
</mask>
<g mask="url(#mask22_937_9934)">
<path d="M99.8833 412.862V420.231H87.5989V433.99H77.7715V398.12H100.866V405.982H87.5989V412.862H99.8833Z" fill="url(#paint12_linear_937_9934)"/>
</g>
<mask id="mask23_937_9934" style="mask-type:luminance" maskUnits="userSpaceOnUse" x="105" y="397" width="37" height="38">
<path d="M115.162 416.055C115.162 422.934 117.947 426.374 123.516 426.374C129.085 426.374 131.868 422.934 131.868 416.055C131.868 409.175 129.085 405.735 123.516 405.735C117.947 405.735 115.162 409.175 115.162 416.055ZM110.077 402.566C113.401 399.274 117.881 397.627 123.516 397.627C129.149 397.627 133.629 399.274 136.955 402.566C140.278 405.857 141.941 410.354 141.941 416.055C141.941 421.755 140.278 426.25 136.955 429.543C133.629 432.835 129.149 434.482 123.516 434.482C117.881 434.482 113.401 432.835 110.077 429.543C106.751 426.25 105.089 421.755 105.089 416.055C105.089 410.354 106.751 405.857 110.077 402.566Z" fill="white"/>
</mask>
<g mask="url(#mask23_937_9934)">
<path d="M115.162 416.055C115.162 422.934 117.947 426.374 123.516 426.374C129.085 426.374 131.868 422.934 131.868 416.055C131.868 409.175 129.085 405.735 123.516 405.735C117.947 405.735 115.162 409.175 115.162 416.055ZM110.077 402.566C113.401 399.274 117.881 397.627 123.516 397.627C129.149 397.627 133.629 399.274 136.955 402.566C140.278 405.857 141.941 410.354 141.941 416.055C141.941 421.755 140.278 426.25 136.955 429.543C133.629 432.835 129.149 434.482 123.516 434.482C117.881 434.482 113.401 432.835 110.077 429.543C106.751 426.25 105.089 421.755 105.089 416.055C105.089 410.354 106.751 405.857 110.077 402.566Z" fill="url(#paint13_linear_937_9934)"/>
</g>
<mask id="mask24_937_9934" style="mask-type:luminance" maskUnits="userSpaceOnUse" x="146" y="397" width="30" height="37">
<path d="M156.491 414.336H159.194C160.865 414.336 162.182 413.918 163.15 413.082C164.115 412.247 164.599 411.109 164.599 409.668C164.599 406.556 162.796 405 159.194 405C158.146 405 157.243 405.082 156.491 405.246V414.336ZM156.491 421.46V433.99H146.91V398.366C151.168 397.874 155.426 397.628 159.685 397.628C169.514 397.628 174.426 401.314 174.426 408.683C174.426 410.749 173.788 412.665 172.509 414.434C171.232 416.203 169.578 417.464 167.547 418.216V418.316C168.529 418.873 169.348 419.585 170.004 420.453C170.658 421.322 171.282 422.558 171.871 424.163L175.409 433.99H165.335L162.29 424.654C161.928 423.509 161.47 422.689 160.913 422.198C160.357 421.706 159.619 421.46 158.702 421.46H156.491Z" fill="white"/>
</mask>
<g mask="url(#mask24_937_9934)">
<path d="M156.491 414.336H159.194C160.865 414.336 162.182 413.918 163.15 413.082C164.115 412.247 164.599 411.109 164.599 409.668C164.599 406.556 162.796 405 159.194 405C158.146 405 157.243 405.082 156.491 405.246V414.336ZM156.491 421.46V433.99H146.91V398.366C151.168 397.874 155.426 397.628 159.685 397.628C169.514 397.628 174.426 401.314 174.426 408.683C174.426 410.749 173.788 412.665 172.509 414.434C171.232 416.203 169.578 417.464 167.547 418.216V418.316C168.529 418.873 169.348 419.585 170.004 420.453C170.658 421.322 171.282 422.558 171.871 424.163L175.409 433.99H165.335L162.29 424.654C161.928 423.509 161.47 422.689 160.913 422.198C160.357 421.706 159.619 421.46 158.702 421.46H156.491Z" fill="url(#paint14_linear_937_9934)"/>
</g>
<mask id="mask25_937_9934" style="mask-type:luminance" maskUnits="userSpaceOnUse" x="116" y="443" width="29" height="37">
<path d="M125.961 460.025H128.664C130.335 460.025 131.652 459.607 132.62 458.772C133.585 457.936 134.069 456.799 134.069 455.356C134.069 452.245 132.266 450.688 128.664 450.688C127.616 450.688 126.715 450.77 125.961 450.934V460.025ZM125.961 467.15V479.679H116.38V444.055C120.638 443.564 124.896 443.318 129.154 443.318C138.983 443.318 143.896 447.002 143.896 454.374C143.896 456.437 143.257 458.354 141.981 460.123C140.702 461.892 139.047 463.152 137.016 463.907V464.005C137.999 464.563 138.817 465.275 139.474 466.142C140.128 467.01 140.752 468.247 141.341 469.852L144.878 479.679H134.805L131.76 470.344C131.397 469.197 130.939 468.379 130.383 467.887C129.827 467.394 129.088 467.15 128.172 467.15H125.961Z" fill="white"/>
</mask>
<g mask="url(#mask25_937_9934)">
<path d="M125.961 460.025H128.664C130.335 460.025 131.652 459.607 132.62 458.772C133.585 457.936 134.069 456.799 134.069 455.356C134.069 452.245 132.266 450.688 128.664 450.688C127.616 450.688 126.715 450.77 125.961 450.934V460.025ZM125.961 467.15V479.679H116.38V444.055C120.638 443.564 124.896 443.318 129.154 443.318C138.983 443.318 143.896 447.002 143.896 454.374C143.896 456.437 143.257 458.354 141.981 460.123C140.702 461.892 139.047 463.152 137.016 463.907V464.005C137.999 464.563 138.817 465.275 139.474 466.142C140.128 467.01 140.752 468.247 141.341 469.852L144.878 479.679H134.805L131.76 470.344C131.397 469.197 130.939 468.379 130.383 467.887C129.827 467.394 129.088 467.15 128.172 467.15H125.961Z" fill="url(#paint15_linear_937_9934)"/>
</g>
<mask id="mask26_937_9934" style="mask-type:luminance" maskUnits="userSpaceOnUse" x="150" y="443" width="24" height="37">
<path d="M172.687 457.568V464.939H159.911V471.817H173.67V479.679H150.084V443.809H173.67V451.671H159.911V457.568H172.687Z" fill="white"/>
</mask>
<g mask="url(#mask26_937_9934)">
<path d="M172.687 457.568V464.939H159.911V471.817H173.67V479.679H150.084V443.809H173.67V451.671H159.911V457.568H172.687Z" fill="url(#paint16_linear_937_9934)"/>
</g>
<mask id="mask27_937_9934" style="mask-type:luminance" maskUnits="userSpaceOnUse" x="180" y="443" width="31" height="37">
<path d="M200.646 463.465H200.746V443.81H210.327V479.68H200.746L190.032 460.026H189.934V479.68H180.354V443.81H189.934L200.646 463.465Z" fill="white"/>
</mask>
<g mask="url(#mask27_937_9934)">
<path d="M200.646 463.465H200.746V443.81H210.327V479.68H200.746L190.032 460.026H189.934V479.68H180.354V443.81H189.934L200.646 463.465Z" fill="url(#paint17_linear_937_9934)"/>
</g>
<mask id="mask28_937_9934" style="mask-type:luminance" maskUnits="userSpaceOnUse" x="216" y="443" width="30" height="37">
<path d="M245.755 443.809V451.917H236.026V479.679H226.001V451.917H216.272V443.809H245.755Z" fill="white"/>
</mask>
<g mask="url(#mask28_937_9934)">
<path d="M245.758 443.81V451.917H236.028V479.679H226.003V451.917H216.275V443.81H245.758Z" fill="url(#paint18_linear_937_9934)"/>
</g>
<mask id="mask29_937_9934" style="mask-type:luminance" maskUnits="userSpaceOnUse" x="228" y="342" width="7" height="44">
<path d="M234.166 385.431H228.768C228.409 385.431 228.117 385.137 228.117 384.781V343.206C228.117 342.848 228.409 342.555 228.768 342.555H234.166C234.524 342.555 234.817 342.848 234.817 343.206V384.781C234.817 385.137 234.524 385.431 234.166 385.431Z" fill="white"/>
</mask>
<g mask="url(#mask29_937_9934)">
<path d="M234.167 385.431H228.768C228.409 385.431 228.118 385.136 228.118 384.781V343.205C228.118 342.848 228.409 342.555 228.768 342.555H234.167C234.524 342.555 234.817 342.848 234.817 343.205V384.781C234.817 385.136 234.524 385.431 234.167 385.431Z" fill="url(#paint19_linear_937_9934)"/>
</g>
<mask id="mask30_937_9934" style="mask-type:luminance" maskUnits="userSpaceOnUse" x="86" y="341" width="7" height="44">
<path d="M92.1409 384.762H86.7421C86.3843 384.762 86.0918 384.47 86.0918 384.111V342.536C86.0918 342.178 86.3843 341.886 86.7421 341.886H92.1409C92.4984 341.886 92.7912 342.178 92.7912 342.536V384.111C92.7912 384.47 92.4984 384.762 92.1409 384.762Z" fill="white"/>
</mask>
<g mask="url(#mask30_937_9934)">
<path d="M92.1409 384.762H86.7421C86.3843 384.762 86.0918 384.47 86.0918 384.111V342.536C86.0918 342.178 86.3843 341.886 86.7421 341.886H92.1409C92.4984 341.886 92.7912 342.178 92.7912 342.536V384.111C92.7912 384.47 92.4984 384.762 92.1409 384.762Z" fill="url(#paint20_linear_937_9934)"/>
</g>
<mask id="mask31_937_9934" style="mask-type:luminance" maskUnits="userSpaceOnUse" x="13" y="326" width="298" height="22">
<path d="M309.514 326.7L300.804 340.131V330.932L20.9913 330.726L13.4022 327.146L13.1787 330.72L21.2182 346.91L300.804 347.915L310.185 330.274L309.514 326.7Z" fill="white"/>
</mask>
<g mask="url(#mask31_937_9934)">
<path d="M309.513 326.7L300.804 340.131V330.931L20.9912 330.726L13.4021 327.147L13.1787 330.719L21.218 346.91L300.804 347.915L310.185 330.274L309.513 326.7Z" fill="url(#paint21_linear_937_9934)"/>
</g>
<mask id="mask32_937_9934" style="mask-type:luminance" maskUnits="userSpaceOnUse" x="13" y="326" width="297" height="20">
<path d="M299.465 345.234L22.5582 344.34L13.4023 327.145L309.514 326.699L299.465 345.234Z" fill="white"/>
</mask>
<g mask="url(#mask32_937_9934)">
<path d="M299.466 345.233L22.5583 344.338L13.4023 327.144L309.516 326.698L299.466 345.233Z" fill="url(#paint22_linear_937_9934)"/>
</g>
<mask id="mask33_937_9934" style="mask-type:luminance" maskUnits="userSpaceOnUse" x="31" y="298" width="4" height="227">
<path d="M34.2038 524.756C33.2882 524.486 32.3201 524.178 31.301 523.83L31.2998 516.124C32.2895 516.408 33.2606 516.71 34.2028 517.038L34.2038 524.756ZM34.198 484.388C33.8747 483.692 33.5363 483.029 33.1799 482.405C32.7243 481.611 32.084 480.888 31.2946 480.238L31.2908 454.031L31.2686 298.34L34.1716 300.369L34.198 484.388Z" fill="white"/>
</mask>
<g mask="url(#mask33_937_9934)">
<path d="M34.2039 524.756C33.2882 524.486 32.3201 524.178 31.3008 523.83L31.2998 516.124C32.2893 516.408 33.2605 516.71 34.2028 517.038L34.2039 524.756ZM34.198 484.388C33.8747 483.692 33.5363 483.029 33.1798 482.405C32.7243 481.61 32.0839 480.888 31.2946 480.238L31.2907 454.03L31.2686 298.339L34.1716 300.368L34.198 484.388Z" fill="url(#paint23_linear_937_9934)"/>
</g>
<mask id="mask34_937_9934" style="mask-type:luminance" maskUnits="userSpaceOnUse" x="34" y="300" width="21" height="227">
<path d="M39.5739 526.056C38.0505 525.792 36.2572 525.366 34.2021 524.755L34.2011 517.038C35.8892 517.622 37.4878 518.284 38.9451 519.051C38.5075 520.221 38.6784 522.458 39.5739 526.056ZM46.4515 513.03C40.0467 507.625 38.344 493.306 34.1963 484.387L34.1699 300.368V300.348L54.3009 312.63V315.2V462.432C51.2706 467.911 48.0884 474.264 47.3044 479.513C47.1523 480.531 47.3086 481.584 47.7154 482.668C47.2772 482.594 46.8807 482.556 46.5228 482.556C43.1479 482.556 43.2343 485.828 44.8317 490.548C43.6361 491.515 42.4889 493.912 41.0764 498.024C39.7051 502.016 42.1285 507.343 46.4515 513.03Z" fill="white"/>
</mask>
<g mask="url(#mask34_937_9934)">
<path d="M39.5738 526.056C38.0505 525.792 36.2572 525.366 34.202 524.755L34.2012 517.037C35.8891 517.622 37.4878 518.284 38.9452 519.051C38.5075 520.221 38.6784 522.458 39.5738 526.056ZM46.4516 513.029C40.0466 507.625 38.344 493.305 34.1962 484.387L34.1699 300.367V300.348L54.3009 312.63V315.199V462.432C51.2704 467.911 48.0883 474.264 47.3043 479.512C47.1522 480.531 47.3086 481.584 47.7155 482.668C47.2772 482.594 46.8806 482.556 46.5227 482.556C43.1477 482.556 43.2343 485.828 44.8318 490.548C43.636 491.514 42.4889 493.912 41.0764 498.024C39.705 502.016 42.1286 507.342 46.4516 513.029Z" fill="url(#paint24_linear_937_9934)"/>
</g>
<mask id="mask35_937_9934" style="mask-type:luminance" maskUnits="userSpaceOnUse" x="38" y="330" width="9" height="9">
<path d="M46.4566 334.18C46.4566 336.339 44.7071 338.09 42.5488 338.09C40.3905 338.09 38.6406 336.339 38.6406 334.18C38.6406 332.023 40.3905 330.274 42.5488 330.274C44.7071 330.274 46.4566 332.023 46.4566 334.18Z" fill="white"/>
</mask>
<g mask="url(#mask35_937_9934)">
<path d="M46.4566 334.18C46.4566 336.339 44.7071 338.09 42.5488 338.09C40.3905 338.09 38.6406 336.339 38.6406 334.18C38.6406 332.023 40.3905 330.274 42.5488 330.274C44.7071 330.274 46.4566 332.023 46.4566 334.18Z" fill="url(#paint25_linear_937_9934)"/>
</g>
<mask id="mask36_937_9934" style="mask-type:luminance" maskUnits="userSpaceOnUse" x="39" y="332" width="7" height="6">
<path d="M45.2245 334.85C45.2245 336.331 44.0249 337.532 42.545 337.532C41.0648 337.532 39.8652 336.331 39.8652 334.85C39.8652 333.372 41.0648 332.171 42.545 332.171C44.0249 332.171 45.2245 333.372 45.2245 334.85Z" fill="white"/>
</mask>
<g mask="url(#mask36_937_9934)">
<path d="M45.2245 334.85C45.2245 336.331 44.0249 337.532 42.545 337.532C41.0648 337.532 39.8652 336.331 39.8652 334.85C39.8652 333.372 41.0648 332.171 42.545 332.171C44.0249 332.171 45.2245 333.372 45.2245 334.85Z" fill="url(#paint26_linear_937_9934)"/>
</g>
<path d="M69.3707 544.17C69.3707 544.17 36.0843 564.906 18.2747 547.081C3.96125 532.756 27.4247 542.105 49.1997 543.447C50.9086 543.553 51.1711 541.028 49.4769 540.782C32.8326 538.349 7.86382 533.13 5.99028 523.557C3.16165 509.108 8.2212 514.971 27.234 522.347C46.2466 529.722 51.3808 525.97 39.4856 519.343C27.5906 512.714 5.42099 513.592 2.45269 506.072C-0.515613 498.552 0.387846 485.554 0.00385163 479.745C-0.380143 473.936 28.0644 473.468 33.1784 482.404C38.2922 491.343 39.6505 508.429 47.2529 513.64C54.8554 518.851 49.7004 502.611 46.132 493.97C42.5638 485.332 41.8448 479.459 52.5024 484.307C63.1602 489.156 65.1834 504.419 63.4735 514.899C61.7635 525.378 64.0728 532.167 65.3221 527.097C66.5711 522.028 69.125 506.118 66.8815 500.479C64.6375 494.839 88.4406 507.709 69.3707 544.17Z" fill="#BDD0FB"/>
<mask id="mask37_937_9934" style="mask-type:luminance" maskUnits="userSpaceOnUse" x="17" y="493" width="41" height="38">
<path d="M57.9619 530.619C56.8582 529.713 55.782 528.82 54.7421 527.956C38.1719 509.262 17.9439 494.223 17.6866 494.033C17.5325 493.919 17.5001 493.702 17.6137 493.548C17.6816 493.456 17.7862 493.408 17.8925 493.408C17.9639 493.408 18.0362 493.43 18.098 493.476C18.3703 493.676 40.9201 510.443 57.9619 530.619Z" fill="white"/>
</mask>
<g mask="url(#mask37_937_9934)">
<path d="M17.5 530.619H57.9619V493.408H17.5V530.619Z" fill="#E0E9FD"/>
</g>
<path d="M89.8538 552.288C89.8538 552.288 46.9429 553.704 39.8303 527.051C34.1138 505.63 51.2291 527.347 71.1315 540.552C72.6935 541.588 74.3251 539.339 72.8552 538.177C58.4131 526.751 37.6076 508.123 41.0763 498.024C46.3132 482.779 47.8954 491.109 61.8742 508.518C75.8529 525.924 82.7752 525.182 75.1327 512.382C67.4903 499.583 45.9968 488.267 47.3043 479.513C48.6117 470.758 56.5896 458.935 59.4084 453.22C62.2274 447.503 89.4432 462.646 89.3935 473.918C89.3437 485.19 81.268 502.13 85.6184 511.233C89.9688 520.338 93.9815 502.122 95.3336 491.977C96.6858 481.834 99.2215 475.873 106.666 486.308C114.111 496.744 107.665 512.319 100.302 521.314C92.9399 530.309 91.4088 538.01 95.3706 533.888C99.3322 529.768 110.471 516.089 111.434 509.514C112.396 502.939 127.906 528.18 89.8538 552.288Z" fill="#91B3FA"/>
<path d="M88.1622 550.849C88.1052 550.849 88.051 550.835 88.0023 550.813C87.8793 550.755 87.7912 550.635 87.7842 550.488C86.1098 517.634 68.5179 476.857 68.3402 476.449C68.2566 476.257 68.3446 476.035 68.5369 475.951C68.5859 475.929 68.637 475.919 68.6872 475.919C68.8335 475.919 68.9735 476.005 69.0358 476.147C69.2136 476.557 86.86 517.458 88.5414 550.45C88.552 550.659 88.3913 550.837 88.182 550.849C88.1754 550.849 88.1688 550.849 88.1622 550.849Z" fill="#CBDBFD"/>
<defs>
<linearGradient id="paint0_linear_937_9934" x1="854.775" y1="234.152" x2="965.633" y2="234.152" gradientUnits="userSpaceOnUse">
<stop stop-color="#D0DBFD"/>
<stop offset="1" stop-color="#DDE5FC"/>
</linearGradient>
<linearGradient id="paint1_linear_937_9934" x1="54.7891" y1="419.075" x2="116.346" y2="419.075" gradientUnits="userSpaceOnUse">
<stop stop-color="#D0DBFD"/>
<stop offset="1" stop-color="#DDE5FC"/>
</linearGradient>
<linearGradient id="paint2_linear_937_9934" x1="309.129" y1="492.461" x2="421.441" y2="492.461" gradientUnits="userSpaceOnUse">
<stop stop-color="#DAE3FE"/>
<stop offset="1" stop-color="#E9EFFD"/>
</linearGradient>
<linearGradient id="paint3_linear_937_9934" x1="312.41" y1="325.005" x2="386.406" y2="325.005" gradientUnits="userSpaceOnUse">
<stop stop-color="#DAE3FE"/>
<stop offset="1" stop-color="#E9EFFD"/>
</linearGradient>
<linearGradient id="paint4_linear_937_9934" x1="543.804" y1="321.153" x2="677.705" y2="321.153" gradientUnits="userSpaceOnUse">
<stop stop-color="#DAE3FE"/>
<stop offset="1" stop-color="#E9EFFD"/>
</linearGradient>
<linearGradient id="paint5_linear_937_9934" x1="544.911" y1="352.404" x2="551.137" y2="352.404" gradientUnits="userSpaceOnUse">
<stop stop-color="#DAE3FE"/>
<stop offset="1" stop-color="#E9EFFD"/>
</linearGradient>
<linearGradient id="paint6_linear_937_9934" x1="139.754" y1="436.516" x2="226.908" y2="436.516" gradientUnits="userSpaceOnUse">
<stop stop-color="#DAE3FE"/>
<stop offset="1" stop-color="#E9EFFD"/>
</linearGradient>
<linearGradient id="paint7_linear_937_9934" x1="179.436" y1="438.56" x2="183.868" y2="438.56" gradientUnits="userSpaceOnUse">
<stop stop-color="#DAE3FE"/>
<stop offset="1" stop-color="#E9EFFD"/>
</linearGradient>
<linearGradient id="paint8_linear_937_9934" x1="383.642" y1="60.1347" x2="471.136" y2="60.1347" gradientUnits="userSpaceOnUse">
<stop stop-color="#D7E1FE"/>
<stop offset="1" stop-color="#E4ECFD"/>
</linearGradient>
<linearGradient id="paint9_linear_937_9934" x1="260.326" y1="61.9657" x2="347.691" y2="61.9657" gradientUnits="userSpaceOnUse">
<stop stop-color="#D7E1FE"/>
<stop offset="1" stop-color="#E4ECFD"/>
</linearGradient>
<linearGradient id="paint10_linear_937_9934" x1="520.786" y1="42.7617" x2="611.182" y2="42.7617" gradientUnits="userSpaceOnUse">
<stop stop-color="#D7E1FE"/>
<stop offset="1" stop-color="#E4ECFD"/>
</linearGradient>
<linearGradient id="paint11_linear_937_9934" x1="431.148" y1="213.218" x2="-98.0364" y2="650.372" gradientUnits="userSpaceOnUse">
<stop stop-color="#FF928E"/>
<stop offset="1" stop-color="#FE7062"/>
</linearGradient>
<linearGradient id="paint12_linear_937_9934" x1="822.354" y1="801.218" x2="79.1602" y2="410.716" gradientUnits="userSpaceOnUse">
<stop stop-color="#FF928E"/>
<stop offset="1" stop-color="#FE7062"/>
</linearGradient>
<linearGradient id="paint13_linear_937_9934" x1="829.751" y1="787.136" x2="86.5572" y2="396.635" gradientUnits="userSpaceOnUse">
<stop stop-color="#FF928E"/>
<stop offset="1" stop-color="#FE7062"/>
</linearGradient>
<linearGradient id="paint14_linear_937_9934" x1="836.957" y1="773.434" x2="93.7634" y2="382.932" gradientUnits="userSpaceOnUse">
<stop stop-color="#FF928E"/>
<stop offset="1" stop-color="#FE7062"/>
</linearGradient>
<linearGradient id="paint15_linear_937_9934" x1="787.343" y1="809.097" x2="44.1493" y2="418.596" gradientUnits="userSpaceOnUse">
<stop stop-color="#FF928E"/>
<stop offset="1" stop-color="#FE7062"/>
</linearGradient>
<linearGradient id="paint16_linear_937_9934" x1="795.046" y1="794.434" x2="51.8503" y2="403.93" gradientUnits="userSpaceOnUse">
<stop stop-color="#FF928E"/>
<stop offset="1" stop-color="#FE7062"/>
</linearGradient>
<linearGradient id="paint17_linear_937_9934" x1="802.284" y1="780.656" x2="59.0882" y2="390.152" gradientUnits="userSpaceOnUse">
<stop stop-color="#FF928E"/>
<stop offset="1" stop-color="#FE7062"/>
</linearGradient>
<linearGradient id="paint18_linear_937_9934" x1="843.684" y1="768.024" x2="73.6456" y2="363.418" gradientUnits="userSpaceOnUse">
<stop stop-color="#FF928E"/>
<stop offset="1" stop-color="#FE7062"/>
</linearGradient>
<linearGradient id="paint19_linear_937_9934" x1="232.301" y1="313.547" x2="232.301" y2="506.987" gradientUnits="userSpaceOnUse">
<stop stop-color="#FF928E"/>
<stop offset="1" stop-color="#FE7062"/>
</linearGradient>
<linearGradient id="paint20_linear_937_9934" x1="89.4415" y1="314.418" x2="89.4415" y2="507.36" gradientUnits="userSpaceOnUse">
<stop stop-color="#FF928E"/>
<stop offset="1" stop-color="#FE7062"/>
</linearGradient>
<linearGradient id="paint21_linear_937_9934" x1="222.114" y1="292.831" x2="219.635" y2="209.908" gradientUnits="userSpaceOnUse">
<stop stop-color="#E1473D"/>
<stop offset="1" stop-color="#E9605A"/>
</linearGradient>
<linearGradient id="paint22_linear_937_9934" x1="195.762" y1="396.745" x2="229.13" y2="198.759" gradientUnits="userSpaceOnUse">
<stop stop-color="#FF928E"/>
<stop offset="1" stop-color="#FE7062"/>
</linearGradient>
<linearGradient id="paint23_linear_937_9934" x1="11.2942" y1="404.495" x2="205.268" y2="369.667" gradientUnits="userSpaceOnUse">
<stop stop-color="#E1473D"/>
<stop offset="1" stop-color="#E9605A"/>
</linearGradient>
<linearGradient id="paint24_linear_937_9934" x1="112.937" y1="436.029" x2="-8.16457" y2="372.398" gradientUnits="userSpaceOnUse">
<stop stop-color="#FF928E"/>
<stop offset="1" stop-color="#FE7062"/>
</linearGradient>
<linearGradient id="paint25_linear_937_9934" x1="44.4628" y1="311.887" x2="40.6665" y2="356.102" gradientUnits="userSpaceOnUse">
<stop stop-color="#FF928E"/>
<stop offset="1" stop-color="#FE7062"/>
</linearGradient>
<linearGradient id="paint26_linear_937_9934" x1="43.3386" y1="325.606" x2="40.7354" y2="355.925" gradientUnits="userSpaceOnUse">
<stop stop-color="#FF928E"/>
<stop offset="1" stop-color="#FE7062"/>
</linearGradient>
</defs>
</svg>
