<svg width="49" height="48" viewBox="0 0 49 48" fill="none" xmlns="http://www.w3.org/2000/svg">
<path d="M24.8335 44C23.9335 44 23.1418 43.7833 22.4585 43.35C21.7752 42.9167 21.3335 42.3167 21.1335 41.55H20.4335C19.6335 41.55 18.9335 41.25 18.3335 40.65C17.7335 40.05 17.4335 39.35 17.4335 38.55V31.4C15.2335 29.9667 13.5002 28.1333 12.2335 25.9C10.9668 23.6667 10.3335 21.2 10.3335 18.5C10.3335 14.4667 11.7418 11.0417 14.5585 8.225C17.3752 5.40833 20.8002 4 24.8335 4C28.8668 4 32.2918 5.40833 35.1085 8.225C37.9252 11.0417 39.3335 14.4667 39.3335 18.5C39.3335 21.2 38.7002 23.6667 37.4335 25.9C36.1668 28.1333 34.4335 29.9667 32.2335 31.4V38.55C32.2335 39.35 31.9335 40.05 31.3335 40.65C30.7335 41.25 30.0335 41.55 29.2335 41.55H28.5335C28.3335 42.3167 27.8918 42.9167 27.2085 43.35C26.5252 43.7833 25.7335 44 24.8335 44ZM20.4335 38.55H29.2335V36.35H20.4335V38.55ZM20.4335 34.35H29.2335V32.35H20.4335V34.35ZM19.9835 29.35H23.6835V22.5L19.0835 17.9L20.6335 16.35L24.8335 20.55L29.0335 16.35L30.5835 17.9L25.9835 22.5V29.35H29.6835C31.6835 28.4167 33.2918 26.9667 34.5085 25C35.7252 23.0333 36.3335 20.8667 36.3335 18.5C36.3335 15.2667 35.2252 12.5417 33.0085 10.325C30.7918 8.10833 28.0668 7 24.8335 7C21.6002 7 18.8752 8.10833 16.6585 10.325C14.4418 12.5417 13.3335 15.2667 13.3335 18.5C13.3335 20.8667 13.9418 23.0333 15.1585 25C16.3752 26.9667 17.9835 28.4167 19.9835 29.35V29.35Z" fill="#00BAF2"/>
</svg>
