<svg width="48" height="48" viewBox="0 0 48 48" fill="none" xmlns="http://www.w3.org/2000/svg">
<path d="M19.35 32C20.3833 32 21.25 31.6417 21.95 30.925C22.65 30.2083 23 29.35 23 28.35C23 27.35 22.65 26.4917 21.95 25.775C21.25 25.0583 20.4 24.7 19.4 24.7C18.3667 24.7 17.4917 25.0583 16.775 25.775C16.0583 26.4917 15.7 27.35 15.7 28.35C15.7 29.35 16.0583 30.2083 16.775 30.925C17.4917 31.6417 18.35 32 19.35 32ZM28.65 32C29.65 32 30.5083 31.6417 31.225 30.925C31.9417 30.2083 32.3 29.35 32.3 28.35C32.3 27.35 31.9417 26.4917 31.225 25.775C30.5083 25.0583 29.65 24.7 28.65 24.7C27.65 24.7 26.7917 25.0583 26.075 25.775C25.3583 26.4917 25 27.35 25 28.35C25 29.35 25.3583 30.2083 26.075 30.925C26.7917 31.6417 27.65 32 28.65 32V32ZM24 22.65C25 22.65 25.8583 22.3 26.575 21.6C27.2917 20.9 27.65 20.0333 27.65 19C27.65 18 27.2917 17.1417 26.575 16.425C25.8583 15.7083 25 15.35 24 15.35C23 15.35 22.1417 15.7083 21.425 16.425C20.7083 17.1417 20.35 18 20.35 19C20.35 20.0333 20.7083 20.9 21.425 21.6C22.1417 22.3 23 22.65 24 22.65ZM24 44C21.2667 44 18.6833 43.475 16.25 42.425C13.8167 41.375 11.6917 39.9417 9.875 38.125C8.05833 36.3083 6.625 34.1833 5.575 31.75C4.525 29.3167 4 26.7167 4 23.95C4 21.2167 4.525 18.6333 5.575 16.2C6.625 13.7667 8.05833 11.65 9.875 9.85C11.6917 8.05 13.8167 6.625 16.25 5.575C18.6833 4.525 21.2833 4 24.05 4C26.7833 4 29.3667 4.525 31.8 5.575C34.2333 6.625 36.35 8.05 38.15 9.85C39.95 11.65 41.375 13.7667 42.425 16.2C43.475 18.6333 44 21.2333 44 24C44 26.7333 43.475 29.3167 42.425 31.75C41.375 34.1833 39.95 36.3083 38.15 38.125C36.35 39.9417 34.2333 41.375 31.8 42.425C29.3667 43.475 26.7667 44 24 44ZM24.05 41C28.75 41 32.75 39.3417 36.05 36.025C39.35 32.7083 41 28.6833 41 23.95C41 19.25 39.35 15.25 36.05 11.95C32.75 8.65 28.7333 7 24 7C19.3 7 15.2917 8.65 11.975 11.95C8.65833 15.25 7 19.2667 7 24C7 28.7 8.65833 32.7083 11.975 36.025C15.2917 39.3417 19.3167 41 24.05 41Z" fill="#00BAF2"/>
</svg>
