<svg width="48" height="48" viewBox="0 0 48 48" fill="none" xmlns="http://www.w3.org/2000/svg">
<path d="M17.2138 41.5719C16.9741 41.3322 16.8393 41.0326 16.8093 40.6731C16.7794 40.3135 16.8692 39.999 17.079 39.7293L25.7975 27.5953L11.2367 26.2021C10.4577 26.1422 9.94086 25.7377 9.68619 24.9887C9.43153 24.2397 9.6038 23.6105 10.203 23.1012L28.8535 6.38318C29.1231 6.11353 29.4452 5.9862 29.8197 6.00118C30.1942 6.01616 30.5163 6.15848 30.7859 6.42812C31.0256 6.66781 31.1604 6.96741 31.1904 7.32694C31.2204 7.68647 31.1305 8.00105 30.9208 8.2707L22.2022 20.4047L36.7631 21.7979C37.5421 21.8578 38.0589 22.2623 38.3135 23.0113C38.5682 23.7603 38.3959 24.3895 37.7967 24.8988L19.1463 41.6168C18.8766 41.8865 18.5545 42.0138 18.18 41.9988C17.8055 41.9838 17.4834 41.8415 17.2138 41.5719Z" fill="#00BAF2"/>
</svg>
