<svg width="49" height="48" viewBox="0 0 49 48" fill="none" xmlns="http://www.w3.org/2000/svg">
<path d="M28.3059 22.6C26.963 21.4 25.6845 20.2286 24.4702 19.0857C23.2559 17.9429 22.1916 16.8286 21.2773 15.7429C20.363 14.6572 19.6345 13.6072 19.0916 12.5929C18.5488 11.5786 18.2773 10.6 18.2773 9.65716C18.2773 8.17145 18.7773 6.92859 19.7773 5.92859C20.7773 4.92859 22.0202 4.42859 23.5059 4.42859C24.363 4.42859 25.213 4.6643 26.0559 5.13573C26.8988 5.60716 27.6488 6.24287 28.3059 7.04287C28.963 6.24287 29.713 5.60716 30.5559 5.13573C31.3988 4.6643 32.2488 4.42859 33.1059 4.42859C34.5916 4.42859 35.8345 4.92859 36.8345 5.92859C37.8345 6.92859 38.3345 8.17145 38.3345 9.65716C38.3345 10.6 38.063 11.5786 37.5202 12.5929C36.9773 13.6072 36.2488 14.6572 35.3345 15.7429C34.4202 16.8286 33.3559 17.9429 32.1416 19.0857C30.9273 20.2286 29.6488 21.4 28.3059 22.6ZM28.3059 19.0429C30.1916 17.3286 31.9059 15.6286 33.4488 13.9429C34.9916 12.2572 35.763 10.8286 35.763 9.65716C35.763 8.88573 35.513 8.25002 35.013 7.75002C34.513 7.25002 33.8773 7.00002 33.1059 7.00002C32.6202 7.00002 32.1416 7.1143 31.6702 7.34287C31.1988 7.57145 30.7202 8.00002 30.2345 8.62859L28.3059 10.9857L26.3773 8.62859C25.8916 8.00002 25.413 7.57145 24.9416 7.34287C24.4702 7.1143 23.9916 7.00002 23.5059 7.00002C22.7345 7.00002 22.0988 7.25002 21.5988 7.75002C21.0988 8.25002 20.8488 8.88573 20.8488 9.65716C20.8488 10.8286 21.6202 12.2572 23.163 13.9429C24.7059 15.6286 26.4202 17.3286 28.3059 19.0429V19.0429ZM24.8773 39.5714L11.5488 35.7572V38.2H2.33447V21.3143H15.5773L26.5059 25.4286C27.2773 25.7143 27.9273 26.1786 28.4559 26.8214C28.9845 27.4643 29.2488 28.3857 29.2488 29.5857H34.1345C35.3345 29.5857 36.3345 30.0143 37.1345 30.8714C37.9345 31.7286 38.3345 32.8857 38.3345 34.3429V35.4572L24.8773 39.5714ZM4.9059 35.6286H8.93447V23.8857H4.9059V35.6286ZM24.7059 36.9143L35.6773 33.5714C35.5059 33.0286 35.2916 32.6572 35.0345 32.4572C34.7773 32.2572 34.4773 32.1572 34.1345 32.1572H25.263C24.4059 32.1572 23.613 32.1 22.8845 31.9857C22.1559 31.8714 21.463 31.7143 20.8059 31.5143L17.3345 30.4429L18.2773 27.9572L21.4059 28.9857C22.1202 29.2143 22.7988 29.3714 23.4416 29.4572C24.0845 29.5429 25.1059 29.5857 26.5059 29.5857C26.5059 29.2429 26.4416 28.9072 26.313 28.5786C26.1845 28.25 25.963 28.0143 25.6488 27.8714L15.1488 23.8857H11.5488V33.0572L24.7059 36.9143Z" fill="#00BAF2"/>
</svg>
