<svg width="123" height="32" viewBox="0 0 123 32" fill="none" xmlns="http://www.w3.org/2000/svg">
<mask id="path-1-inside-1_973_1712" fill="white">
<path d="M94.6034 26.1155C96.6619 28.6382 99.4411 30.4729 102.57 31.3744C105.698 32.276 109.028 32.2015 112.113 31.161C115.198 30.1205 117.893 28.1635 119.836 25.5513C121.78 22.939 122.881 19.796 122.991 16.5419C123.101 13.2877 122.216 10.0774 120.454 7.33958C118.691 4.60178 116.135 2.46684 113.128 1.21987C110.12 -0.0271047 106.803 -0.326753 103.621 0.36094C100.438 1.04863 97.5411 2.69093 95.3166 5.06852L98.2983 7.85836C99.9551 6.08756 102.113 4.86439 104.483 4.35221C106.853 3.84002 109.324 4.0632 111.564 4.99193C113.804 5.92066 115.707 7.51074 117.02 9.54982C118.333 11.5889 118.992 13.9799 118.91 16.4036C118.828 18.8272 118.008 21.1681 116.56 23.1137C115.113 25.0592 113.106 26.5168 110.808 27.2918C108.51 28.0667 106.031 28.1222 103.7 27.4507C101.37 26.7792 99.3003 25.4128 97.7671 23.5339L94.6034 26.1155Z"/>
</mask>
<path d="M94.6034 26.1155C96.6619 28.6382 99.4411 30.4729 102.57 31.3744C105.698 32.276 109.028 32.2015 112.113 31.161C115.198 30.1205 117.893 28.1635 119.836 25.5513C121.78 22.939 122.881 19.796 122.991 16.5419C123.101 13.2877 122.216 10.0774 120.454 7.33958C118.691 4.60178 116.135 2.46684 113.128 1.21987C110.12 -0.0271047 106.803 -0.326753 103.621 0.36094C100.438 1.04863 97.5411 2.69093 95.3166 5.06852L98.2983 7.85836C99.9551 6.08756 102.113 4.86439 104.483 4.35221C106.853 3.84002 109.324 4.0632 111.564 4.99193C113.804 5.92066 115.707 7.51074 117.02 9.54982C118.333 11.5889 118.992 13.9799 118.91 16.4036C118.828 18.8272 118.008 21.1681 116.56 23.1137C115.113 25.0592 113.106 26.5168 110.808 27.2918C108.51 28.0667 106.031 28.1222 103.7 27.4507C101.37 26.7792 99.3003 25.4128 97.7671 23.5339L94.6034 26.1155Z" stroke="#00BAF2" stroke-width="10" mask="url(#path-1-inside-1_973_1712)"/>
<circle cx="87.5" cy="16" r="13" stroke="#0F4A8A" stroke-width="6"/>
<path d="M1.75 4.75V0L26 0.25L9.5 27.25H25.75V32H0L17 5L1.75 4.75Z" fill="#00BAF2"/>
<path d="M30.25 4.75V0L54.5 0.25L38 27.25H54.25V32H28.5L45.5 5L30.25 4.75Z" fill="#00BAF2"/>
<path d="M57 32V0H71.5V4.75H62.25V32H57Z" fill="#00BAF2"/>
</svg>
