<svg width="500" height="501" viewBox="0 0 500 501" fill="none" xmlns="http://www.w3.org/2000/svg">
<path d="M61.4299 206.86C61.4299 206.86 20.9999 267.91 49.7299 359.99C78.4599 452.07 162.17 475.56 211.81 449.99C261.45 424.42 268.69 391.14 308.81 366.99C348.93 342.84 431.66 343.69 463.52 277.25C495.38 210.81 429.31 117.69 354.52 64.0599C279.73 10.4299 117.15 73.8599 61.4299 206.86Z" fill="#90CAF9"/>
<path opacity="0.7" d="M61.4299 206.86C61.4299 206.86 20.9999 267.91 49.7299 359.99C78.4599 452.07 162.17 475.56 211.81 449.99C261.45 424.42 268.69 391.14 308.81 366.99C348.93 342.84 431.66 343.69 463.52 277.25C495.38 210.81 429.31 117.69 354.52 64.0599C279.73 10.4299 117.15 73.8599 61.4299 206.86Z" fill="white"/>
<path d="M318.78 338.6C322.36 340.16 331.09 339.96 331.1 339.96C331.11 339.96 329.22 334.24 329.05 333.89C327.14 329.89 321.05 323.26 316.15 323.89C315.334 324.023 314.555 324.326 313.864 324.78C313.173 325.234 312.585 325.829 312.139 326.525C311.693 327.221 311.398 328.003 311.274 328.821C311.15 329.638 311.2 330.473 311.42 331.27C312.24 334.73 315.74 337.27 318.78 338.6Z" fill="#263238"/>
<path d="M321.8 363.9C325.5 364.44 333.3 362.18 333.92 362C335.204 366.46 336.784 370.83 338.65 375.08C339.72 377.56 340.88 380.03 342.07 382.49C341.36 381.49 340.71 380.49 340.61 380.4C337.7 377.04 330.11 372.25 325.53 374.2C324.778 374.544 324.107 375.043 323.56 375.663C323.013 376.284 322.604 377.013 322.357 377.803C322.111 378.592 322.034 379.425 322.131 380.246C322.228 381.068 322.497 381.859 322.92 382.57C324.61 385.65 328.66 387.17 331.92 387.65C335.18 388.13 341.92 386.34 343.7 385.84C344.16 386.78 344.62 387.72 345.09 388.66C347.35 393.15 349.62 397.66 351.71 402.09C352.45 403.66 353.12 405.23 353.8 406.8C353.17 405.88 352.63 405.11 352.53 405C349.62 401.64 342.03 396.85 337.45 398.8C336.698 399.143 336.027 399.641 335.48 400.26C334.934 400.88 334.524 401.608 334.278 402.397C334.032 403.186 333.954 404.018 334.051 404.838C334.148 405.659 334.417 406.45 334.84 407.16C336.53 410.24 340.58 411.77 343.84 412.24C347.1 412.71 353.2 411.11 355.3 410.52C355.94 412.16 356.59 413.79 357.14 415.4C357.49 416.51 357.91 417.55 358.2 418.68C358.49 419.81 358.82 420.9 359.12 421.99C359.63 424.12 360.17 426.31 360.62 428.39C360.94 429.84 361.22 431.23 361.5 432.63C360.79 431.06 359.32 428.01 359.16 427.77C356.8 424 350.02 418.12 345.16 419.35C344.364 419.576 343.624 419.967 342.99 420.498C342.355 421.029 341.839 421.687 341.476 422.431C341.113 423.174 340.91 423.986 340.882 424.813C340.853 425.639 340.999 426.463 341.31 427.23C342.52 430.53 346.31 432.65 349.46 433.62C352.96 434.68 360.69 433.71 361.66 433.62C362.12 435.93 362.55 438.19 362.92 440.32C363.12 441.45 363.3 442.51 363.47 443.57H366.55C366.32 442.35 366.08 441.09 365.82 439.78C365.36 437.43 364.82 434.93 364.24 432.36C366.571 431.429 368.845 430.361 371.05 429.16C373.6 431.92 380.12 435.16 380.97 435.56C380.08 437.74 379.19 439.86 378.33 441.84C378.07 442.44 377.81 443 377.56 443.57H380.8L381.04 442.99C381.96 440.78 382.88 438.39 383.82 435.93C384.75 436.13 392.41 437.69 395.98 436.88C399.22 436.15 403.14 434.32 404.59 431.12C404.956 430.379 405.163 429.569 405.195 428.743C405.228 427.917 405.087 427.093 404.78 426.325C404.474 425.557 404.009 424.863 403.416 424.286C402.823 423.71 402.116 423.265 401.34 422.98C396.62 421.39 389.42 426.75 386.78 430.33C386.63 430.54 385.19 433.01 384.32 434.59C384.69 433.59 385.07 432.59 385.44 431.59C386.19 429.59 386.88 427.47 387.64 425.25C387.96 424.16 388.29 423.06 388.64 421.95C388.99 420.84 389.23 419.66 389.53 418.51C390.17 415.81 390.69 413.05 391.15 410.26C392.95 410.91 399.37 413.15 402.69 412.91C406.01 412.67 410.16 411.46 412.08 408.52C412.552 407.841 412.877 407.07 413.032 406.258C413.187 405.446 413.17 404.61 412.982 403.805C412.793 402.999 412.437 402.243 411.937 401.584C411.437 400.925 410.805 400.378 410.08 399.98C405.65 397.7 397.72 401.9 394.57 405.04C394.38 405.23 392.37 407.74 391.29 409.13C391.56 407.45 391.83 405.78 392.04 404.07C392.65 399.13 393.12 394.12 393.61 389.12C393.76 387.59 393.92 386.06 394.08 384.54C394.72 384.78 402.3 387.6 406.02 387.34C409.33 387.1 413.49 385.89 415.4 382.94C415.874 382.262 416.2 381.491 416.356 380.678C416.512 379.866 416.495 379.029 416.306 378.223C416.118 377.418 415.761 376.661 415.261 376.002C414.76 375.343 414.126 374.797 413.4 374.4C408.98 372.12 401.05 376.33 397.9 379.46C397.66 379.7 394.78 383.31 394.09 384.26C394.45 380.9 394.83 377.55 395.35 374.26C396.018 369.819 396.977 365.426 398.22 361.11C398.51 361.23 406.4 364.2 410.22 363.94C413.53 363.7 417.68 362.49 419.6 359.54C420.074 358.862 420.4 358.091 420.556 357.278C420.712 356.466 420.695 355.629 420.506 354.823C420.318 354.018 419.961 353.261 419.461 352.602C418.96 351.943 418.326 351.397 417.6 351C413.18 348.72 405.25 352.93 402.1 356.06C401.85 356.31 398.75 360.19 398.24 360.94C398.31 360.69 398.36 360.42 398.44 360.17C399.804 355.877 401.548 351.714 403.65 347.73C404.78 345.52 405.98 343.47 407.2 341.49C408.62 342.2 415.11 345.35 418.57 345.49C422.03 345.63 426.15 344.87 428.38 342.16C428.927 341.54 429.338 340.813 429.585 340.024C429.833 339.235 429.913 338.404 429.818 337.582C429.724 336.761 429.458 335.969 429.038 335.257C428.618 334.545 428.053 333.93 427.38 333.45C423.23 330.7 414.89 334.01 411.38 336.78C411.19 336.93 409.44 338.67 408.19 339.96C408.75 339.08 409.31 338.16 409.87 337.32C411.95 334.19 414.05 331.45 415.93 329.03C417.01 327.67 418.01 326.46 418.93 325.33C420.68 325.33 427.72 325.09 430.8 323.64C433.88 322.19 437.24 319.64 437.97 316.16C438.167 315.357 438.193 314.522 438.046 313.708C437.899 312.895 437.583 312.121 437.118 311.438C436.654 310.754 436.05 310.176 435.348 309.74C434.645 309.305 433.859 309.022 433.04 308.91C428.1 308.38 422.22 315.16 420.41 319.22C420.25 319.57 418.41 325.34 418.53 325.34H418.64C417.7 326.4 416.71 327.55 415.64 328.83C413.7 331.21 411.54 333.91 409.38 337.01C407.02 340.329 404.853 343.782 402.89 347.35C400.676 351.337 398.822 355.514 397.35 359.83C397.35 359.88 397.35 359.94 397.35 359.99C397.35 358.53 397.35 354.45 397.27 354.14C396.7 349.73 393.01 341.55 388.11 340.65C387.293 340.523 386.459 340.569 385.661 340.785C384.863 341.002 384.12 341.383 383.48 341.906C382.839 342.429 382.316 343.08 381.944 343.818C381.572 344.556 381.359 345.364 381.32 346.19C381.04 349.69 383.57 353.19 386.05 355.41C388.84 357.9 396.59 360.31 397.21 360.5C395.82 364.929 394.724 369.446 393.93 374.02C393.46 376.69 393.06 379.38 392.7 382.09C392.7 380.83 392.7 379.7 392.64 379.55C392.06 375.14 388.37 366.96 383.48 366.05C382.662 365.921 381.827 365.966 381.028 366.182C380.229 366.397 379.485 366.779 378.843 367.302C378.201 367.824 377.677 368.476 377.305 369.215C376.932 369.954 376.719 370.763 376.68 371.59C376.4 375.09 378.94 378.59 381.41 380.81C383.88 383.03 390.49 385.25 392.23 385.81C392.11 386.81 391.97 387.89 391.84 388.93C391.24 393.93 390.67 398.93 389.96 403.79C389.71 405.5 389.4 407.19 389.09 408.87C389.09 407.75 389.09 406.81 389.03 406.66C388.46 402.26 384.77 394.08 379.88 393.17C379.062 393.041 378.227 393.086 377.428 393.302C376.629 393.517 375.885 393.899 375.243 394.422C374.601 394.944 374.077 395.596 373.705 396.335C373.332 397.074 373.119 397.883 373.08 398.71C372.8 402.21 375.33 405.71 377.81 407.93C380.29 410.15 386.25 412.15 388.32 412.82C387.96 414.53 387.6 416.25 387.17 417.9C386.85 419.02 386.62 420.11 386.24 421.22C385.86 422.33 385.53 423.41 385.18 424.49C384.43 426.55 383.67 428.67 382.89 430.66C382.36 432.04 381.83 433.35 381.3 434.66C381.57 432.96 382.02 429.6 382.03 429.32C381.977 425.411 380.92 421.582 378.96 418.2C378.978 417.762 378.951 417.323 378.88 416.89C378.779 416.069 378.505 415.278 378.078 414.57C377.65 413.862 377.078 413.252 376.398 412.78C375.718 412.308 374.947 411.985 374.134 411.831C373.321 411.678 372.485 411.698 371.68 411.89C366.87 413.17 363.82 421.61 363.59 426.05C363.59 426.31 363.75 429.17 363.89 430.97C363.65 429.92 363.42 428.9 363.16 427.83C362.66 425.7 362.09 423.59 361.49 421.32C361.16 420.24 360.83 419.14 360.49 418.03C360.15 416.92 359.71 415.8 359.32 414.67C358.37 412.07 357.32 409.48 356.13 406.89C357.99 406.45 364.58 404.77 367.22 402.74C369.86 400.71 372.65 397.41 372.62 393.9C372.639 393.076 372.485 392.256 372.168 391.495C371.85 390.735 371.376 390.049 370.777 389.483C370.177 388.917 369.465 388.484 368.687 388.211C367.908 387.938 367.082 387.832 366.26 387.9C361.31 388.44 357.02 396.32 356.12 400.67C356.07 400.94 355.77 404.14 355.64 405.9C354.94 404.35 354.24 402.8 353.47 401.26C351.26 396.8 348.89 392.37 346.53 387.93C345.81 386.57 345.11 385.2 344.4 383.84C345.07 383.69 352.94 381.84 355.9 379.59C358.54 377.59 361.33 374.26 361.3 370.75C361.319 369.926 361.165 369.106 360.848 368.345C360.53 367.585 360.056 366.899 359.457 366.333C358.857 365.767 358.145 365.334 357.367 365.061C356.588 364.788 355.762 364.682 354.94 364.75C350 365.29 345.7 373.17 344.8 377.52C344.74 377.85 344.32 382.45 344.27 383.62C342.71 380.62 341.19 377.62 339.81 374.62C337.914 370.549 336.291 366.356 334.95 362.07C335.26 362 343.48 360.13 346.52 357.81C349.15 355.81 351.95 352.48 351.92 348.97C351.938 348.146 351.783 347.328 351.465 346.567C351.147 345.807 350.673 345.122 350.073 344.557C349.474 343.991 348.762 343.558 347.985 343.284C347.207 343.011 346.381 342.904 345.56 342.97C340.61 343.5 336.32 351.39 335.42 355.74C335.35 356.08 334.91 361.03 334.89 361.93C334.81 361.68 334.71 361.43 334.63 361.18C333.402 356.849 332.559 352.419 332.11 347.94C331.84 345.47 331.71 343.09 331.64 340.77C333.21 340.58 340.36 339.63 343.32 337.83C346.28 336.03 349.32 333.14 349.66 329.64C349.774 328.821 349.714 327.987 349.484 327.192C349.254 326.398 348.859 325.661 348.325 325.03C347.791 324.398 347.13 323.887 346.384 323.528C345.639 323.17 344.827 322.973 344 322.95C339 322.95 333.89 330.3 332.52 334.53C332.45 334.76 331.95 337.18 331.61 338.95C331.61 337.9 331.56 336.82 331.56 335.82C331.56 332.06 331.81 328.61 332.04 325.56C332.19 323.83 332.36 322.26 332.53 320.8C333.97 319.8 339.73 315.8 341.53 312.85C343.33 309.9 344.67 305.92 343.38 302.65C343.103 301.871 342.664 301.159 342.094 300.56C341.523 299.961 340.833 299.49 340.068 299.176C339.303 298.861 338.48 298.712 337.653 298.737C336.827 298.762 336.015 298.96 335.27 299.32C330.85 301.61 329.69 310.51 330.42 314.89C330.48 315.27 332.15 321.08 332.23 321.03L332.31 320.97C332.12 322.37 331.93 323.88 331.75 325.53C331.45 328.58 331.13 332.03 331.05 335.81C330.908 339.879 331.004 343.952 331.34 348.01C331.689 352.558 332.445 357.067 333.6 361.48C333.613 361.534 333.63 361.588 333.65 361.64C332.86 360.41 330.56 357.04 330.35 356.8C327.45 353.44 319.85 348.66 315.27 350.6C314.518 350.944 313.847 351.443 313.3 352.063C312.753 352.684 312.344 353.413 312.097 354.203C311.851 354.992 311.774 355.825 311.871 356.646C311.968 357.468 312.237 358.259 312.66 358.97C314.47 361.9 318.52 363.42 321.8 363.9Z" fill="#263238"/>
<path d="M407.14 340.5C407.22 340.55 408.73 334.69 408.78 334.31C409.4 329.91 407.99 321.04 403.51 318.88C402.756 318.544 401.941 318.369 401.115 318.368C400.29 318.367 399.474 318.54 398.72 318.875C397.966 319.209 397.29 319.699 396.737 320.311C396.184 320.924 395.766 321.646 395.51 322.43C394.31 325.73 395.83 329.78 397.63 332.57C399.74 335.86 407.14 340.5 407.14 340.5Z" fill="#263238"/>
<path d="M193.82 273.16H61.2998V101.5H193.82V273.16ZM62.2998 272.16H192.82V102.5H62.2998V272.16Z" fill="#263238"/>
<path d="M190.08 268.32H65V106.32H190.08V268.32ZM66.08 267.32H189.08V107.32H66L66.08 267.32Z" fill="#263238"/>
<path d="M159 227.96H96.1299V146.71H159V227.96ZM97.1499 226.96H158V147.71H97.1299L97.1499 226.96Z" fill="#263238"/>
<path d="M336.78 200.5L315.19 197.45L318.19 176.01L339.79 179.01L336.78 200.5ZM316.32 196.6L335.93 199.37L338.68 179.91L319.06 177.14L316.32 196.6ZM340.22 168.36L320.47 165.57L323.33 145.31L323.52 145.19C328.751 141.983 333.726 138.376 338.4 134.4C342.772 130.715 346.577 126.406 349.69 121.61C352.634 117.039 354.551 111.884 355.31 106.5C355.9 102.33 355.42 98.92 353.88 96.34C352.34 93.76 349.8 92.27 346.29 91.77C344.952 91.5059 343.574 91.5095 342.237 91.7807C340.9 92.0519 339.63 92.5853 338.5 93.35C337.445 94.1672 336.57 95.1942 335.932 96.3663C335.293 97.5384 334.904 98.8301 334.79 100.16C334.594 101.464 334.56 102.788 334.69 104.1C334.82 105.39 334.99 106.78 335.2 108.23L335.27 108.76L314.64 110.29L314.56 109.86C314.133 107.757 313.875 105.624 313.79 103.48C313.713 101.395 313.82 99.3065 314.11 97.24C315.34 88.53 319.05 81.86 325.11 77.41C331.17 72.96 339.31 71.41 349.24 72.83C359.38 74.26 366.96 78.18 371.79 84.47C376.62 90.76 378.35 99.1 376.92 109.24C376.094 115.53 374.027 121.594 370.84 127.08C367.619 132.461 363.546 137.283 358.78 141.36C353.664 145.745 348.165 149.664 342.35 153.07L340.22 168.36ZM321.6 164.72L339.37 167.23L341.46 152.41L341.67 152.29C347.507 148.886 353.022 144.96 358.15 140.56C362.832 136.543 366.834 131.795 370 126.5C373.138 121.139 375.178 115.207 376 109.05C377.39 99.19 375.73 91.11 371.07 85.05C366.41 78.99 359.07 75.19 349.17 73.79C339.51 72.43 331.63 73.91 325.77 78.19C319.91 82.47 316.29 88.9 315.1 97.33C314.818 99.3369 314.714 101.365 314.79 103.39C314.867 105.334 315.087 107.269 315.45 109.18L334.13 107.79C333.96 106.52 333.81 105.3 333.69 104.15C333.554 102.757 333.59 101.353 333.8 99.97C333.931 98.5083 334.364 97.0898 335.072 95.804C335.779 94.5182 336.746 93.3932 337.91 92.5C339.142 91.655 340.53 91.0634 341.992 90.7595C343.455 90.4556 344.963 90.4456 346.43 90.73C350.26 91.27 353.05 92.97 354.73 95.73C356.41 98.49 356.92 102.14 356.3 106.54C355.529 112.081 353.56 117.387 350.53 122.09C347.364 126.964 343.495 131.345 339.05 135.09C334.395 139.044 329.447 142.641 324.25 145.85L321.6 164.72Z" fill="#263238"/>
<path d="M210.91 249.5C210.91 249.5 146.72 250.35 144.72 254.92C142.72 259.49 133.59 314.84 133.02 333.92C132.45 353 132.17 365.59 134.16 367.87C136.15 370.15 167.26 388.13 167.26 388.13C167.26 388.13 152.71 439.2 157.26 440.92C161.81 442.64 189.79 449.76 207.76 450.05C225.73 450.34 243.43 450.33 244.86 450.33C246.29 450.33 292.22 452.04 308.2 448.33C324.18 444.62 329.02 444.33 329.02 438.06C329.02 431.79 325.02 424.06 324.74 422.66C324.46 421.26 335.59 313.09 329.31 286.56C323.03 260.03 314.76 249.75 308.48 248.04C302.2 246.33 257.41 247.47 257.41 247.47L210.91 249.5Z" fill="#90CAF9"/>
<path d="M269.49 451.28C262.49 451.28 254.68 451.17 246.26 450.93H244.87C241.67 450.93 224.87 450.93 207.77 450.65C189.5 450.36 161.54 443.15 157.1 441.48C156.1 441.12 153.83 440.26 160.1 413.87C162.84 402.25 166.1 390.68 166.7 388.47C163.15 386.42 135.75 370.52 133.82 368.3C131.71 365.89 131.95 354.3 132.55 334.01C133.13 314.68 142.41 259.1 144.29 254.79C146.29 250.16 200.14 249.21 210.93 249.07L257.43 247.07C259.27 247.02 302.43 245.95 308.65 247.66C312.51 248.66 322.28 254.6 329.84 286.54C335.01 308.4 328.51 384.28 326.06 412.84C325.59 418.33 325.25 422.3 325.28 422.69C325.505 423.386 325.765 424.07 326.06 424.74C327.28 427.74 329.56 433.38 329.56 438.16C329.56 444.16 325.49 445.04 313.39 447.77L308.39 448.92C301.49 450.5 288 451.28 269.49 451.28ZM285.84 247.66C272.25 247.66 257.69 248.02 257.43 248.03L210.93 250.03C186.23 250.36 146.55 252.03 145.19 255.15C143.32 259.42 134.11 314.74 133.53 334C133.03 350.83 132.59 365.37 134.53 367.61C136.12 369.43 158.87 382.77 167.53 387.76C167.626 387.816 167.701 387.902 167.743 388.005C167.784 388.109 167.79 388.223 167.76 388.33C160.65 413.22 154.86 439.5 157.45 440.5C161.86 442.15 189.63 449.31 207.78 449.6C224.89 449.87 241.67 449.88 244.87 449.88H246.29C276.8 450.74 298.75 450.03 308.09 447.88C309.92 447.45 311.6 447.08 313.14 446.73C324.96 444.06 328.53 443.25 328.53 438.09C328.53 433.51 326.3 428 325.1 425.04C324.773 424.305 324.493 423.55 324.26 422.78C324.21 422.49 324.35 420.73 325.04 412.68C327.48 384.16 333.97 308.41 328.83 286.68C321.4 255.26 312.04 249.54 308.36 248.53C305.73 247.87 296.06 247.66 285.84 247.66Z" fill="#263238"/>
<path d="M238.43 276.34C238.332 276.342 238.236 276.314 238.154 276.26C238.072 276.207 238.008 276.13 237.97 276.04C237.943 275.98 237.929 275.914 237.928 275.849C237.927 275.783 237.938 275.717 237.963 275.656C237.987 275.594 238.023 275.539 238.069 275.491C238.115 275.444 238.169 275.406 238.23 275.38C240.504 274.409 242.715 273.297 244.85 272.05C244.907 272.017 244.97 271.996 245.035 271.987C245.101 271.979 245.167 271.983 245.231 272.001C245.294 272.018 245.354 272.047 245.406 272.087C245.458 272.128 245.502 272.178 245.535 272.235C245.568 272.292 245.589 272.355 245.597 272.42C245.606 272.486 245.601 272.552 245.584 272.616C245.567 272.679 245.537 272.739 245.497 272.791C245.457 272.843 245.407 272.887 245.35 272.92C243.179 274.185 240.931 275.314 238.62 276.3C238.56 276.328 238.495 276.341 238.43 276.34Z" fill="#263238"/>
<path d="M248.12 271.12C248.037 271.119 247.956 271.099 247.883 271.06C247.81 271.022 247.747 270.967 247.7 270.9C247.628 270.788 247.604 270.653 247.632 270.524C247.66 270.394 247.739 270.282 247.85 270.21C255.799 264.915 262.778 258.292 268.48 250.63C268.518 250.576 268.566 250.53 268.622 250.494C268.678 250.459 268.74 250.435 268.805 250.424C268.87 250.413 268.937 250.415 269.001 250.429C269.065 250.444 269.126 250.471 269.18 250.51C269.234 250.547 269.279 250.594 269.315 250.649C269.35 250.704 269.374 250.765 269.385 250.83C269.396 250.894 269.394 250.96 269.38 251.023C269.365 251.087 269.338 251.147 269.3 251.2C263.521 258.961 256.452 265.672 248.4 271.04C248.317 271.095 248.219 271.123 248.12 271.12Z" fill="#263238"/>
<path d="M254 273.92C253.91 273.919 253.822 273.895 253.745 273.849C253.668 273.803 253.604 273.738 253.56 273.66C253.528 273.602 253.508 273.539 253.501 273.473C253.494 273.408 253.5 273.342 253.519 273.278C253.537 273.215 253.568 273.156 253.609 273.105C253.651 273.054 253.702 273.011 253.76 272.98C258.76 270.3 264.61 262.13 264.67 262.05C264.705 261.99 264.753 261.939 264.809 261.898C264.865 261.858 264.929 261.83 264.997 261.815C265.065 261.801 265.135 261.801 265.203 261.815C265.271 261.83 265.335 261.858 265.391 261.898C265.448 261.939 265.495 261.99 265.53 262.05C265.566 262.109 265.588 262.176 265.597 262.245C265.605 262.313 265.599 262.383 265.579 262.449C265.559 262.516 265.525 262.577 265.48 262.63C265.24 262.97 259.48 271.07 254.23 273.86C254.16 273.9 254.081 273.92 254 273.92Z" fill="#263238"/>
<path d="M224.29 354.26C224.185 354.258 224.083 354.224 223.998 354.161C223.914 354.098 223.851 354.01 223.82 353.91L222.14 348.69C222.118 348.628 222.109 348.562 222.114 348.496C222.118 348.43 222.136 348.366 222.166 348.307C222.196 348.248 222.237 348.196 222.288 348.153C222.338 348.111 222.397 348.079 222.46 348.06C222.586 348.019 222.723 348.03 222.841 348.09C222.959 348.15 223.049 348.254 223.09 348.38L224.77 353.6C224.811 353.726 224.8 353.863 224.74 353.981C224.68 354.099 224.576 354.189 224.45 354.23C224.399 354.25 224.345 354.26 224.29 354.26Z" fill="#263238"/>
<path d="M233.45 382.7C233.344 382.7 233.241 382.666 233.157 382.603C233.072 382.54 233.01 382.451 232.98 382.35L225.54 359.26C225.499 359.127 225.512 358.984 225.577 358.861C225.641 358.738 225.752 358.646 225.885 358.605C226.017 358.564 226.161 358.577 226.284 358.642C226.407 358.707 226.499 358.817 226.54 358.95L233.98 382.05C234.018 382.176 234.006 382.312 233.947 382.429C233.887 382.547 233.784 382.637 233.66 382.68L233.45 382.7Z" fill="#263238"/>
<path d="M235.74 383.27C235.643 383.274 235.548 383.246 235.47 383.19C235.414 383.155 235.365 383.11 235.327 383.056C235.289 383.003 235.261 382.942 235.247 382.878C235.232 382.814 235.23 382.748 235.24 382.683C235.251 382.618 235.275 382.556 235.31 382.5L242.73 370.81C242.764 370.753 242.809 370.703 242.862 370.664C242.915 370.625 242.976 370.597 243.041 370.582C243.105 370.568 243.172 370.566 243.237 370.577C243.302 370.589 243.364 370.614 243.42 370.65C243.531 370.722 243.609 370.834 243.639 370.963C243.669 371.091 243.648 371.227 243.58 371.34L236.16 383.04C236.114 383.11 236.052 383.167 235.978 383.207C235.905 383.247 235.823 383.269 235.74 383.27Z" fill="#263238"/>
<path d="M252.57 376.42C252.472 376.423 252.376 376.398 252.293 376.346C252.21 376.294 252.145 376.219 252.105 376.13C252.065 376.041 252.053 375.942 252.07 375.845C252.087 375.749 252.132 375.66 252.2 375.59L270.2 355.33C270.289 355.23 270.414 355.17 270.547 355.163C270.68 355.155 270.811 355.201 270.91 355.29C271.009 355.379 271.07 355.504 271.077 355.637C271.085 355.77 271.039 355.9 270.95 356L252.95 376.26C252.902 376.313 252.843 376.354 252.778 376.382C252.712 376.41 252.641 376.422 252.57 376.42Z" fill="#263238"/>
<path d="M244.87 450.89H244.73L206 439.6C205.937 439.582 205.878 439.551 205.827 439.51C205.776 439.469 205.733 439.418 205.701 439.36C205.67 439.303 205.65 439.24 205.643 439.174C205.636 439.109 205.642 439.043 205.66 438.98C205.677 438.916 205.707 438.857 205.748 438.805C205.789 438.753 205.84 438.71 205.897 438.678C205.955 438.646 206.019 438.626 206.085 438.62C206.151 438.613 206.217 438.62 206.28 438.64L245 449.91C245.133 449.929 245.252 449.999 245.333 450.106C245.414 450.213 245.448 450.347 245.43 450.48C245.411 450.613 245.341 450.732 245.234 450.813C245.127 450.894 244.993 450.929 244.86 450.91L244.87 450.89Z" fill="#263238"/>
<path d="M201.58 438.28H201.44L194.8 436.34C194.667 436.303 194.555 436.215 194.487 436.095C194.42 435.975 194.403 435.833 194.44 435.7C194.477 435.567 194.565 435.455 194.685 435.387C194.805 435.32 194.947 435.303 195.08 435.34L201.72 437.28C201.783 437.298 201.842 437.329 201.893 437.37C201.944 437.411 201.987 437.462 202.018 437.52C202.05 437.577 202.07 437.64 202.077 437.706C202.084 437.771 202.078 437.837 202.06 437.9C202.033 438.008 201.972 438.103 201.885 438.172C201.798 438.241 201.691 438.279 201.58 438.28Z" fill="#263238"/>
<path d="M210.51 122.63C210.51 122.63 190.36 118 186.51 123.18C182.66 128.36 190.33 133.26 189.24 134.35C188.15 135.44 164.72 147.42 166.62 159.14C168.52 170.86 184.33 182.84 184.88 186.14C185.43 189.44 166.62 190.5 164.17 195.4C161.72 200.3 158.17 223.46 178.61 231.09C199.05 238.72 224.61 225.91 231.73 225.91C238.85 225.91 245.9 239.81 254.07 238.99C259.047 238.42 263.624 235.987 266.88 232.18C266.88 232.18 275.32 243.9 287.58 238.99C299.84 234.08 314.01 216.92 308.02 211.75C302.03 206.58 295.21 204.94 299.57 200.31C303.93 195.68 312.92 183.42 311.57 172.79C310.22 162.16 297.67 161.35 292.77 158.08C287.87 154.81 298.22 149.36 297.95 140.37C297.68 131.38 291.13 116.37 257.9 106.37C224.67 96.37 208.32 101.19 206.68 109.64C206.167 111.952 206.25 114.357 206.92 116.629C207.59 118.901 208.825 120.966 210.51 122.63Z" fill="#263238"/>
<path d="M281.66 240.65C273.87 240.65 268.37 234.72 266.9 232.94C263.593 236.61 259.058 238.943 254.15 239.5C249.6 239.96 245.48 236.17 241.51 232.5C238.11 229.36 234.89 226.4 231.76 226.4C229.85 226.4 226.42 227.4 222.08 228.68C210.63 232.03 193.32 237.09 178.47 231.55C171.37 228.9 166.47 224.19 163.83 217.55C160.33 208.63 162.05 198.55 163.75 195.17C165.15 192.38 171.11 190.82 176.37 189.45C180.04 188.45 184.6 187.3 184.37 186.21C184.14 185.12 182.11 182.96 179.68 180.34C174.79 175.05 167.39 167.06 166.12 159.24C164.45 148.99 180.87 138.95 187.06 135.17C187.92 134.64 188.74 134.17 188.87 134.01C188.545 133.462 188.177 132.94 187.77 132.45C186.11 130.29 183.33 126.66 186.1 122.9C189.46 118.34 204.1 120.9 209.02 121.83C207.661 120.115 206.703 118.117 206.217 115.983C205.731 113.85 205.728 111.635 206.21 109.5C206.509 108.213 207.08 107.005 207.883 105.957C208.687 104.908 209.705 104.043 210.87 103.42C219.2 98.4199 236.41 99.2799 258.06 105.85C292.62 116.33 298.21 131.97 298.47 140.37C298.6 144.89 296.18 148.5 294.23 151.37C292.9 153.37 291.76 155.05 292 156.28C292.077 156.567 292.211 156.836 292.395 157.07C292.579 157.304 292.809 157.498 293.07 157.64C294.739 158.604 296.505 159.388 298.34 159.98C304.01 162.08 311.06 164.7 312.08 172.71C313.42 183.16 305.08 195.18 299.96 200.63C299.582 200.943 299.277 201.333 299.065 201.775C298.852 202.217 298.738 202.7 298.73 203.19C298.89 204.65 300.86 205.98 303.36 207.65C305.099 208.782 306.769 210.018 308.36 211.35C309.038 211.994 309.532 212.806 309.792 213.704C310.052 214.602 310.069 215.553 309.84 216.46C308.58 223.98 297.45 235.57 287.79 239.46C285.841 240.242 283.76 240.646 281.66 240.65ZM266.91 231.65C266.987 231.651 267.063 231.671 267.131 231.707C267.198 231.744 267.257 231.796 267.3 231.86C267.39 231.97 275.67 243.2 287.42 238.5C296.82 234.74 307.64 223.5 308.85 216.29C309.16 214.43 308.78 213.02 307.71 212.1C306.147 210.803 304.507 209.601 302.8 208.5C300.09 206.68 297.95 205.24 297.73 203.33C297.72 202.692 297.85 202.059 298.11 201.477C298.371 200.895 298.757 200.377 299.24 199.96C303.9 194.96 312.39 182.96 311.09 172.85C310.14 165.45 303.4 162.95 297.99 160.94C296.082 160.323 294.245 159.505 292.51 158.5C292.14 158.284 291.817 157.996 291.561 157.652C291.305 157.308 291.121 156.916 291.02 156.5C290.7 154.87 291.89 153.09 293.4 150.84C295.27 148.06 297.59 144.6 297.47 140.4C297.22 132.27 291.74 117.11 257.77 106.81C236.39 100.32 219.48 99.3999 211.39 104.28C210.346 104.831 209.431 105.599 208.707 106.532C207.982 107.465 207.465 108.541 207.19 109.69C206.687 111.928 206.759 114.256 207.397 116.459C208.035 118.661 209.219 120.667 210.84 122.29C210.923 122.365 210.979 122.465 211.001 122.575C211.023 122.685 211.008 122.799 210.96 122.9C210.909 123 210.826 123.08 210.725 123.127C210.623 123.174 210.509 123.186 210.4 123.16C204.88 121.89 189.91 119.49 186.94 123.51C184.62 126.67 186.94 129.67 188.6 131.87C189.6 133.14 190.29 134.07 189.6 134.74C188.967 135.225 188.298 135.663 187.6 136.05C182.15 139.38 165.6 149.51 167.13 159.1C168.35 166.62 175.62 174.48 180.44 179.68C183.29 182.76 185.17 184.79 185.38 186.07C185.71 188.07 181.89 189.07 176.61 190.44C171.8 191.69 165.82 193.25 164.61 195.64C163.03 198.8 161.37 208.69 164.72 217.2C165.941 220.329 167.832 223.153 170.261 225.474C172.69 227.794 175.598 229.554 178.78 230.63C193.32 236.06 210.43 231.05 221.78 227.74C226.2 226.45 229.68 225.42 231.78 225.42C235.3 225.42 238.66 228.51 242.21 231.78C246.02 235.29 249.96 238.91 254.07 238.5C258.906 237.932 263.353 235.57 266.53 231.88C266.572 231.815 266.628 231.761 266.694 231.721C266.759 231.682 266.833 231.657 266.91 231.65Z" fill="#263238"/>
<path d="M214.14 210.04C214.14 210.04 207.33 252.54 207.06 253.9C206.79 255.26 219.06 267.52 235.66 265.34C245.384 264.171 254.321 259.414 260.72 252L255.55 209.77C255.55 209.77 241.38 216.58 232.66 216.31C223.94 216.04 214.14 210.04 214.14 210.04Z" fill="white"/>
<path d="M231.74 266.1C222.818 265.954 214.297 262.372 207.95 256.1C206.42 254.47 206.53 253.95 206.57 253.75C206.83 252.42 213.57 210.34 213.64 209.91C213.654 209.829 213.688 209.753 213.739 209.688C213.789 209.623 213.854 209.571 213.929 209.537C214.003 209.502 214.085 209.486 214.167 209.49C214.249 209.495 214.329 209.518 214.4 209.56C214.5 209.62 224.2 215.49 232.68 215.76C241.16 216.03 255.19 209.34 255.33 209.27C255.401 209.233 255.48 209.214 255.56 209.214C255.64 209.214 255.719 209.233 255.79 209.27C255.858 209.31 255.916 209.365 255.96 209.43C256.003 209.496 256.031 209.572 256.04 209.65L261.22 251.87C261.228 251.935 261.224 252.001 261.207 252.065C261.19 252.128 261.16 252.188 261.12 252.24C254.617 259.731 245.574 264.553 235.73 265.78C234.408 265.974 233.076 266.081 231.74 266.1ZM214.52 210.84C213.59 216.63 207.8 252.73 207.52 254C207.73 255.24 219.35 267 235.52 264.85C245.027 263.65 253.772 259.029 260.12 251.85L255.14 210.5C252.26 211.83 240.45 217.04 232.65 216.8C225.08 216.57 216.85 212.18 214.52 210.84Z" fill="#263238"/>
<path d="M211.34 232.84L240.03 227.29L214.14 210.04L211.34 232.84Z" fill="#263238"/>
<path d="M211.34 233.34C211.215 233.336 211.095 233.29 211 233.21C210.944 233.154 210.901 233.087 210.875 233.012C210.849 232.938 210.841 232.858 210.85 232.78L213.64 209.98C213.65 209.895 213.682 209.815 213.733 209.746C213.784 209.678 213.852 209.624 213.93 209.59C214.006 209.55 214.09 209.53 214.175 209.53C214.26 209.53 214.344 209.55 214.42 209.59L240.3 226.85C240.384 226.903 240.45 226.98 240.489 227.071C240.529 227.162 240.539 227.263 240.52 227.36C240.5 227.457 240.451 227.546 240.38 227.616C240.308 227.685 240.218 227.732 240.12 227.75L211.44 233.3L211.34 233.34ZM214.54 210.91L211.92 232.22L238.73 227.03L214.54 210.91Z" fill="#263238"/>
<path d="M199 172.57C199 172.57 194.2 166.49 192 174.17C189.8 181.85 199.36 191.17 199.36 191.17L199 172.57Z" fill="white"/>
<path d="M199.32 191.63C199.202 191.624 199.089 191.579 199 191.5C198.6 191.11 189.21 181.92 191.51 174.04C192.24 171.54 193.34 170.13 194.78 169.85C197.12 169.4 199.33 172.15 199.42 172.27C199.49 172.355 199.529 172.46 199.53 172.57L199.85 191.13C199.85 191.229 199.821 191.325 199.768 191.409C199.715 191.492 199.639 191.558 199.55 191.6C199.475 191.621 199.398 191.631 199.32 191.63ZM195.32 170.79C195.207 170.78 195.093 170.78 194.98 170.79C193.98 170.99 193.09 172.2 192.48 174.28C190.75 180.22 196.56 187.34 198.84 189.83L198.54 172.72C197.93 172.08 196.55 170.79 195.28 170.79H195.32Z" fill="#263238"/>
<path d="M267.77 172.57C267.77 172.57 272.57 166.49 274.77 174.17C276.97 181.85 267.41 191.17 267.41 191.17L267.77 172.57Z" fill="white"/>
<path d="M267.45 191.63C267.384 191.64 267.316 191.64 267.25 191.63C267.158 191.591 267.08 191.526 267.027 191.442C266.973 191.358 266.946 191.259 266.95 191.16L267.27 172.6C267.273 172.492 267.308 172.388 267.37 172.3C267.47 172.18 269.69 169.42 272.01 169.88C273.46 170.16 274.56 171.57 275.29 174.07C277.58 181.95 268.19 191.14 267.79 191.53C267.693 191.604 267.572 191.64 267.45 191.63ZM268.26 172.75L268 189.86C270.27 187.37 276.09 180.25 274.36 174.31C273.75 172.23 272.88 171.02 271.85 170.82C270.47 170.56 268.89 172.02 268.26 172.75Z" fill="#263238"/>
<path d="M214.08 134.15C214.08 134.15 200.34 147.5 198.35 151.5C196.36 155.5 197.16 201.08 199.35 205.5C201.54 209.92 223.44 227.01 227.02 228.4C230.6 229.79 238.77 231.19 245.14 228C251.51 224.81 266.84 208.49 268.44 204.31C270.04 200.13 268.04 152.31 267.04 147.76C266.04 143.21 242 126.78 231.8 125.99C221.6 125.2 214.08 134.15 214.08 134.15Z" fill="white"/>
<path d="M236 230.36C232.869 230.377 229.76 229.849 226.81 228.8C222.96 227.3 201.09 210.09 198.87 205.66C196.65 201.23 195.79 155.41 197.87 151.25C199.87 147.25 212.87 134.56 213.68 133.81C214.18 133.22 221.68 124.69 231.81 125.49C241.7 126.27 266.38 142.41 267.5 147.58C268.43 151.88 270.5 200.13 268.87 204.42C267.16 208.92 251.64 225.23 245.33 228.42C242.41 229.773 239.217 230.437 236 230.36ZM230.5 126.44C221.34 126.44 214.5 134.39 214.43 134.44C214.29 134.57 200.73 147.77 198.8 151.63C196.87 155.49 197.72 200.99 199.8 205.14C201.88 209.29 223.56 226.37 227.21 227.79C231.05 229.28 238.93 230.41 244.93 227.41C251.36 224.2 266.51 207.85 267.98 203.99C269.59 199.77 267.49 151.99 266.56 147.73C265.63 143.47 241.8 127.27 231.76 126.5C231.35 126.5 230.94 126.44 230.53 126.44H230.5Z" fill="#263238"/>
<path d="M224.88 125.99C224.88 125.99 245.46 144.77 260.26 145.49L275.07 146.21C275.07 146.21 242.57 141.88 232.46 119.86C232.46 119.86 221.27 110.5 224.88 125.99Z" fill="#263238"/>
<path d="M275.07 146.71L260.27 145.99C245.46 145.27 225.42 127.14 224.57 126.36C224.497 126.292 224.445 126.206 224.42 126.11C223.23 120.99 223.49 117.99 225.22 116.93C227.78 115.36 232.31 119.05 232.81 119.47C232.87 119.518 232.918 119.58 232.95 119.65C242.83 141.17 274.84 145.65 275.16 145.72C275.289 145.735 275.407 145.8 275.489 145.901C275.571 146.002 275.611 146.13 275.6 146.26C275.585 146.388 275.522 146.506 275.423 146.589C275.325 146.673 275.199 146.716 275.07 146.71ZM225.33 125.71C227.01 127.21 246.4 144.29 260.33 144.97L268.69 145.38C258.69 142.86 239.48 136.09 232.1 120.15C230.8 119.08 227.37 116.77 225.75 117.76C224.83 118.32 224.06 120.14 225.33 125.73V125.71Z" fill="#263238"/>
<path d="M238 183.83C237.874 183.83 237.752 183.783 237.66 183.698C237.567 183.613 237.51 183.495 237.5 183.37L235.91 163.26C235.905 163.194 235.912 163.128 235.933 163.065C235.953 163.003 235.985 162.945 236.028 162.895C236.071 162.844 236.123 162.803 236.181 162.773C236.24 162.743 236.304 162.725 236.37 162.72C236.435 162.715 236.502 162.722 236.564 162.743C236.627 162.763 236.685 162.795 236.735 162.838C236.785 162.881 236.826 162.933 236.856 162.992C236.886 163.05 236.905 163.114 236.91 163.18L238.5 183.29C238.505 183.356 238.498 183.422 238.477 183.484C238.457 183.547 238.425 183.605 238.382 183.656C238.339 183.706 238.287 183.747 238.228 183.777C238.17 183.807 238.106 183.825 238.04 183.83H238Z" fill="#263238"/>
<path d="M233.39 193.39C230.61 193.39 227.95 190.39 227.84 190.23C227.793 190.181 227.757 190.124 227.733 190.06C227.709 189.997 227.698 189.93 227.701 189.863C227.704 189.795 227.72 189.729 227.749 189.668C227.778 189.607 227.819 189.553 227.87 189.508C227.921 189.464 227.98 189.43 228.044 189.409C228.108 189.387 228.176 189.38 228.243 189.385C228.31 189.391 228.376 189.41 228.435 189.442C228.495 189.474 228.548 189.517 228.59 189.57C228.59 189.57 231.07 192.39 233.39 192.39C235.3 192.39 238.19 188.67 239.15 187.24C239.185 187.185 239.231 187.137 239.286 187.1C239.34 187.063 239.401 187.037 239.465 187.024C239.53 187.011 239.596 187.011 239.66 187.024C239.725 187.037 239.786 187.063 239.84 187.1C239.949 187.173 240.026 187.287 240.052 187.416C240.078 187.545 240.052 187.68 239.98 187.79C239.6 188.36 236.17 193.39 233.39 193.39Z" fill="#263238"/>
<path d="M230.23 202.61C229.62 202.61 229 202.61 228.38 202.55C222.22 202.14 217.63 194.66 217.43 194.34C217.396 194.283 217.373 194.221 217.363 194.156C217.353 194.09 217.356 194.024 217.372 193.96C217.388 193.896 217.416 193.835 217.455 193.782C217.494 193.729 217.543 193.684 217.6 193.65C217.656 193.616 217.719 193.593 217.784 193.583C217.849 193.573 217.916 193.576 217.98 193.592C218.044 193.608 218.105 193.636 218.158 193.675C218.211 193.714 218.256 193.763 218.29 193.82C218.29 193.9 222.81 201.17 228.45 201.55C232.552 201.689 236.653 201.224 240.62 200.17C240.753 200.133 240.894 200.15 241.014 200.217C241.134 200.285 241.223 200.397 241.26 200.53C241.297 200.662 241.28 200.804 241.212 200.924C241.145 201.044 241.033 201.133 240.9 201.17C237.414 202.078 233.832 202.561 230.23 202.61Z" fill="#263238"/>
<path d="M238.77 160.04C238.77 160.04 245.77 154.86 248.52 153.04C251.27 151.22 260.27 154.63 260.27 154.63C260.27 154.63 253.5 150.85 249.92 150.25C246.34 149.65 238.97 154.83 238.37 157.25C237.77 159.67 236 159.04 238.77 160.04Z" fill="#263238"/>
<path d="M238.77 160.5C238.714 160.509 238.656 160.509 238.6 160.5C237.28 160.03 236.89 159.89 236.77 159.5C236.748 159.344 236.766 159.186 236.822 159.039C236.878 158.892 236.97 158.762 237.09 158.66C237.481 158.241 237.757 157.728 237.89 157.17C238.54 154.56 246.09 149.17 250 149.83C253.63 150.43 260.24 154.11 260.52 154.26C260.629 154.323 260.711 154.425 260.75 154.545C260.789 154.665 260.781 154.795 260.73 154.91C260.677 155.025 260.583 155.116 260.466 155.164C260.349 155.212 260.218 155.214 260.1 155.17C257.67 154.25 250.91 152.17 248.8 153.53C246.05 155.29 239.14 160.43 239.07 160.48C238.973 160.513 238.87 160.52 238.77 160.5ZM237.92 159.15L238.69 159.44C239.88 158.55 245.76 154.21 248.25 152.61C249.68 151.69 252.41 151.96 254.93 152.51C253.308 151.721 251.6 151.124 249.84 150.73C246.53 150.19 239.39 155.21 238.84 157.33C238.698 158.019 238.381 158.659 237.92 159.19V159.15Z" fill="#263238"/>
<path d="M224.43 160.99C224.064 160.123 223.457 159.379 222.68 158.847C221.904 158.315 220.991 158.018 220.05 157.99C216.67 157.79 201.73 161.78 204.32 161.78C206.91 161.78 217.66 161.58 220.45 161.58C221.803 161.664 223.159 161.463 224.43 160.99Z" fill="#263238"/>
<path d="M204.32 162.29C204.181 162.309 204.039 162.29 203.91 162.233C203.781 162.177 203.67 162.086 203.59 161.97C203.544 161.886 203.519 161.791 203.519 161.695C203.519 161.599 203.544 161.504 203.59 161.42C204.2 160.42 217.29 157.33 220.06 157.5C221.098 157.528 222.107 157.856 222.962 158.446C223.818 159.035 224.484 159.86 224.88 160.82C224.921 160.935 224.919 161.061 224.875 161.174C224.831 161.288 224.748 161.382 224.64 161.44C223.296 161.944 221.863 162.166 220.43 162.09C219.01 162.09 215.53 162.09 212.11 162.19C208.69 162.29 205.59 162.29 204.32 162.29ZM219.76 158.5C217.24 158.5 210.22 160.19 206.59 161.27L212.12 161.19C215.54 161.14 219.03 161.09 220.45 161.09C221.559 161.114 222.666 160.987 223.74 160.71C223.36 160.051 222.815 159.501 222.16 159.114C221.505 158.727 220.761 158.515 220 158.5H219.76Z" fill="#263238"/>
<path d="M258.68 172.38C255.675 173.061 252.601 173.397 249.52 173.38C245.52 173.18 241.95 171.98 243.52 173.77C245.09 175.56 248.3 177.16 253.27 176.16C258.24 175.16 260.07 174.17 258.68 172.38Z" fill="#263238"/>
<path d="M222.64 172.38C219.635 173.061 216.562 173.397 213.48 173.38C209.48 173.18 205.92 171.98 207.48 173.77C209.04 175.56 212.26 177.16 217.24 176.16C222.22 175.16 224 174.17 222.64 172.38Z" fill="#263238"/>
<path d="M156.38 287.14C156.38 287.14 162.38 254.14 165.1 250.91C167.82 247.68 197.52 223.39 199.15 221.76C200.78 220.13 212.5 202.41 213.05 204.59C213.6 206.77 211.69 216.31 208.14 221.48C204.59 226.65 199.7 232.93 199.7 232.93C199.7 232.93 218 237.56 219 238.65C220 239.74 226.3 253.3 226.63 254.99C227.21 257.91 226.37 261.04 223.91 261.26C221.67 261.45 207.02 253.9 207.02 253.9L195.34 255.5C195.34 255.5 186.9 265.85 181.17 267.76C178.6 268.7 175.958 269.429 173.27 269.94L173.55 290.1L156.38 287.14Z" fill="white"/>
<path d="M173.55 290.64H173.46L156.3 287.64C156.167 287.616 156.048 287.54 155.97 287.43C155.898 287.321 155.869 287.189 155.89 287.06C156.14 285.71 161.94 253.93 164.72 250.6C166.54 248.41 179.8 237.35 189.48 229.28C194.38 225.19 198.26 221.96 198.8 221.41C199.34 220.86 200.87 218.72 202.7 216.17C209.82 206.25 211.93 203.73 212.98 203.93C213.115 203.958 213.239 204.025 213.337 204.123C213.435 204.221 213.502 204.345 213.53 204.48C214.12 206.84 212.15 216.53 208.53 221.78C205.65 225.97 201.85 230.94 200.53 232.64C204.79 233.73 218.31 237.25 219.37 238.3C220.43 239.35 226.78 253.13 227.13 254.91C227.364 255.845 227.41 256.818 227.264 257.771C227.118 258.724 226.783 259.638 226.28 260.46C226.008 260.83 225.661 261.139 225.261 261.365C224.861 261.59 224.417 261.729 223.96 261.77C221.68 261.97 208.96 255.49 206.96 254.43L195.6 256C194.49 257.35 186.81 266.45 181.33 268.27C178.862 269.143 176.34 269.854 173.78 270.4L174.05 290.13C174.049 290.204 174.032 290.277 174.001 290.344C173.97 290.411 173.925 290.471 173.87 290.52C173.779 290.593 173.667 290.635 173.55 290.64ZM157 286.73L173 289.5L172.73 269.94C172.731 269.818 172.776 269.7 172.857 269.608C172.938 269.516 173.049 269.457 173.17 269.44C175.828 268.933 178.439 268.211 180.98 267.28C186.49 265.44 194.83 255.28 194.91 255.18C194.991 255.083 195.105 255.019 195.23 255L207 253.41C207.099 253.391 207.202 253.409 207.29 253.46C212.91 256.35 222.41 260.91 223.91 260.76C224.229 260.732 224.538 260.635 224.816 260.476C225.093 260.317 225.334 260.1 225.52 259.84C225.939 259.132 226.215 258.347 226.33 257.532C226.445 256.717 226.397 255.887 226.19 255.09C225.83 253.29 219.6 239.9 218.7 239C217.85 238.25 206.52 235.17 199.59 233.41C199.51 233.389 199.436 233.349 199.375 233.293C199.315 233.236 199.269 233.166 199.242 233.088C199.215 233.009 199.209 232.926 199.222 232.844C199.236 232.762 199.269 232.685 199.32 232.62C199.32 232.55 204.25 226.3 207.74 221.2C211.23 216.1 212.87 207.53 212.63 205.05C211.11 206.17 206.23 212.98 203.52 216.75C201.59 219.44 200.07 221.56 199.52 222.11C198.97 222.66 195.24 225.77 190.13 230.04C181.02 237.63 167.26 249.11 165.49 251.23C163.36 253.78 158.7 277.25 157 286.73Z" fill="#263238"/>
<path d="M226.67 255.5C226.588 255.502 226.508 255.483 226.436 255.444C226.364 255.406 226.303 255.349 226.26 255.28C223.09 250.61 217.81 242.99 217.14 242.46C216.47 241.93 208.02 240.66 200.51 239.65C200.377 239.631 200.257 239.561 200.177 239.454C200.096 239.347 200.061 239.213 200.08 239.08C200.098 238.947 200.169 238.827 200.276 238.747C200.383 238.666 200.517 238.631 200.65 238.65C204.41 239.16 216.77 240.87 217.77 241.65C218.77 242.43 226.24 253.44 227.08 254.65C227.118 254.704 227.144 254.766 227.158 254.83C227.172 254.895 227.173 254.962 227.161 255.027C227.149 255.092 227.124 255.154 227.088 255.21C227.052 255.265 227.005 255.313 226.95 255.35C226.873 255.425 226.775 255.477 226.67 255.5Z" fill="#263238"/>
<path d="M226 259.63C225.927 259.63 225.855 259.614 225.79 259.583C225.724 259.551 225.666 259.506 225.62 259.45C223.48 256.98 219.2 252.11 218.31 251.36C217.59 250.78 209.15 248.62 201.56 246.88C201.431 246.849 201.32 246.769 201.251 246.656C201.182 246.544 201.16 246.408 201.19 246.28C201.204 246.216 201.231 246.155 201.269 246.101C201.307 246.047 201.355 246.002 201.411 245.967C201.467 245.933 201.53 245.91 201.595 245.9C201.66 245.89 201.726 245.894 201.79 245.91C204.44 246.51 217.79 249.6 218.95 250.6C220.11 251.6 226.12 258.5 226.38 258.8C226.423 258.849 226.457 258.906 226.478 258.968C226.499 259.03 226.507 259.095 226.503 259.16C226.498 259.226 226.48 259.289 226.451 259.348C226.421 259.406 226.38 259.458 226.33 259.5C226.241 259.584 226.122 259.63 226 259.63Z" fill="#263238"/>
<path d="M226.32 385.34C226.32 385.34 204.92 381.34 204.07 381.06C203.22 380.78 188.07 376.21 186.07 375.35C184.07 374.49 159.82 370.22 158.68 371.93C157.54 373.64 156.4 383.63 156.11 384.48C155.82 385.33 153.54 389.33 154.11 391.62C154.418 393.699 154.418 395.811 154.11 397.89C154.11 397.89 153.82 411.3 157.24 411.59C160.66 411.88 163.81 399.03 163.81 399.03C163.81 399.03 168.66 401.89 178.64 402.46C188.62 403.03 198.33 398.18 198.33 398.18L224.89 404.5L226.32 385.34Z" fill="white"/>
<path d="M157.38 412.09H157.23C153.53 411.78 153.59 400.2 153.63 397.88C153.932 395.844 153.932 393.775 153.63 391.74C153.13 389.74 154.52 386.74 155.27 385.17C155.44 384.79 155.58 384.49 155.64 384.33C155.7 384.17 155.89 382.94 156.07 381.7C156.77 377.09 157.46 372.85 158.26 371.65C159.76 369.41 184.8 374.26 186.26 374.89C187.72 375.52 197.11 378.41 201.6 379.79L204.19 380.58C204.84 380.79 217.82 383.25 226.38 384.85C226.502 384.872 226.611 384.938 226.687 385.036C226.763 385.134 226.799 385.256 226.79 385.38L225.39 404.5C225.386 404.572 225.366 404.643 225.332 404.707C225.297 404.771 225.249 404.827 225.19 404.87C225.132 404.914 225.065 404.944 224.994 404.958C224.923 404.972 224.85 404.969 224.78 404.95L198.42 398.72C197.08 399.35 187.94 403.5 178.64 402.97C170.48 402.5 165.74 400.55 164.17 399.78C163.37 402.87 160.71 412.09 157.38 412.09ZM160.74 372.01C160.179 371.951 159.613 372.03 159.09 372.24C158.37 373.32 157.53 378.87 157.09 381.85C156.84 383.54 156.71 384.36 156.62 384.64C156.53 384.92 156.4 385.16 156.2 385.59C155.56 386.97 154.2 389.86 154.63 391.5C154.954 393.641 154.954 395.819 154.63 397.96C154.52 403.28 155.28 410.96 157.32 411.09C159.52 411.23 162.18 403.72 163.32 398.92C163.34 398.844 163.376 398.773 163.426 398.713C163.476 398.652 163.539 398.604 163.61 398.57C163.68 398.535 163.757 398.518 163.835 398.518C163.913 398.518 163.99 398.535 164.06 398.57C164.06 398.57 168.95 401.37 178.67 401.93C188.39 402.49 198.01 397.75 198.11 397.7C198.217 397.665 198.333 397.665 198.44 397.7L224.44 403.84L225.79 385.76C222.19 385.09 204.73 381.82 203.91 381.54L201.34 380.75C196.48 379.26 187.45 376.49 185.89 375.82C183.94 374.97 166.38 372.01 160.74 372.01Z" fill="#263238"/>
<path d="M152.31 281.32L181 286.57L179.93 304.5C179.93 304.5 186.28 307.5 188.21 325.21C190.14 342.92 195.67 383.94 194.29 386.98C192.91 390.02 184.35 403.28 164.46 404.11C144.57 404.94 133.8 386.71 131.87 380.9C129.94 375.09 140.16 337.09 140.71 333.78C141.26 330.47 144.02 307.78 146.51 303.95C148.045 301.583 149.903 299.442 152.03 297.59L152.31 281.32Z" fill="#90CAF9"/>
<path d="M163.14 404.65C143.35 404.65 133.14 386.16 131.4 381.08C129.84 376.41 135.62 352.76 138.72 340.08C139.52 336.8 140.1 334.43 140.22 333.73C140.34 333.03 140.48 331.98 140.7 330.42C141.76 322.82 143.98 307 146.09 303.72C147.608 301.373 149.442 299.246 151.54 297.4L151.81 281.33C151.81 281.257 151.826 281.185 151.857 281.12C151.888 281.054 151.934 280.996 151.99 280.95C152.047 280.905 152.113 280.873 152.184 280.856C152.255 280.838 152.328 280.836 152.4 280.85L181.12 286.09C181.242 286.112 181.351 286.178 181.427 286.276C181.503 286.374 181.539 286.497 181.53 286.62L180.45 304.26C181.78 305.12 186.99 309.43 188.71 325.2C189.19 329.62 189.91 335.58 190.71 341.89C193.64 366.21 195.8 385 194.79 387.23C194.71 387.39 187.04 403.71 164.52 404.64L163.14 404.65ZM152.8 281.92L152.53 297.62C152.53 297.693 152.514 297.765 152.483 297.83C152.452 297.896 152.406 297.954 152.35 298C150.264 299.82 148.44 301.92 146.93 304.24C144.93 307.33 142.66 323.6 141.69 330.54C141.47 332.11 141.3 333.29 141.2 333.88C141.08 334.62 140.5 337 139.69 340.29C136.83 352 130.88 376.36 132.35 380.77C134.03 385.77 144.4 404.47 164.44 403.62C182.62 402.87 191.82 391.22 193.84 386.79C194.84 384.64 191.84 359.99 189.68 341.99C188.92 335.67 188.2 329.71 187.68 325.29C185.8 308.09 179.73 305 179.68 304.97C179.592 304.926 179.519 304.857 179.469 304.771C179.419 304.686 179.395 304.588 179.4 304.49L180.48 286.98L152.8 281.92Z" fill="#263238"/>
<path d="M175 302.81C173.375 302.803 171.752 302.7 170.14 302.5C170.009 302.485 169.889 302.419 169.807 302.316C169.724 302.213 169.686 302.081 169.7 301.95C169.717 301.818 169.786 301.698 169.89 301.616C169.995 301.534 170.128 301.496 170.26 301.51C171.833 301.702 173.415 301.802 175 301.81C175.132 301.81 175.26 301.863 175.353 301.956C175.447 302.05 175.5 302.177 175.5 302.31C175.5 302.443 175.447 302.57 175.353 302.664C175.26 302.757 175.132 302.81 175 302.81Z" fill="#263238"/>
<path d="M163.45 301.35H163.34C159.453 300.488 155.62 299.4 151.86 298.09C151.739 298.042 151.641 297.949 151.588 297.831C151.534 297.712 151.529 297.577 151.573 297.455C151.617 297.332 151.708 297.232 151.825 297.175C151.942 297.118 152.076 297.109 152.2 297.15C155.917 298.446 159.707 299.521 163.55 300.37C163.614 300.384 163.675 300.411 163.73 300.449C163.784 300.487 163.83 300.535 163.865 300.591C163.9 300.647 163.924 300.709 163.935 300.774C163.947 300.839 163.945 300.906 163.93 300.97C163.905 301.078 163.844 301.175 163.757 301.244C163.669 301.313 163.561 301.351 163.45 301.35Z" fill="#263238"/>
<path d="M310.2 290.33L307.35 363.94C307.35 363.94 304.21 364.23 303.07 365.65C302.31 366.634 301.641 367.685 301.07 368.79C301.07 368.79 272.26 369.93 258.56 373.93C250.697 376.166 243.057 379.125 235.74 382.77L223.18 382.5L220.61 415.59L237.45 416.16C237.45 416.16 245.72 421.01 283.38 424.44C321.04 427.87 338.45 428.72 342.44 424.15C346.43 419.58 348.15 412.45 348.72 408.75C349.29 405.05 356.14 382.21 356.14 349.11C356.14 316.01 325.04 268.11 318.19 257.24C311.34 246.37 304.19 247.24 299.36 248.4" fill="#90CAF9"/>
<path d="M326.47 427.77C316.92 427.77 302.94 426.71 283.34 424.93C247.88 421.7 238.46 417.26 237.34 416.65L220.63 416.08C220.562 416.08 220.494 416.066 220.431 416.038C220.369 416.011 220.313 415.97 220.267 415.919C220.222 415.868 220.188 415.807 220.168 415.742C220.148 415.677 220.141 415.608 220.15 415.54L222.68 382.5C222.688 382.372 222.746 382.252 222.841 382.165C222.936 382.079 223.062 382.034 223.19 382.04L235.62 382.32C242.939 378.698 250.57 375.746 258.42 373.5C271.28 369.75 297.7 368.5 300.76 368.35C301.311 367.295 301.953 366.291 302.68 365.35C303.68 364.1 305.92 363.65 306.87 363.51L309.7 290.32C309.7 290.253 309.713 290.187 309.74 290.126C309.767 290.065 309.806 290.011 309.854 289.965C309.903 289.92 309.961 289.886 310.024 289.864C310.087 289.843 310.154 289.834 310.22 289.84C310.286 289.842 310.35 289.858 310.41 289.885C310.47 289.913 310.523 289.952 310.568 290C310.612 290.049 310.647 290.105 310.67 290.167C310.692 290.229 310.703 290.294 310.7 290.36L307.85 363.97C307.846 364.091 307.798 364.206 307.715 364.294C307.632 364.382 307.52 364.438 307.4 364.45C306.58 364.52 304.29 364.94 303.46 365.97C302.727 366.929 302.078 367.949 301.52 369.02C301.481 369.102 301.42 369.171 301.345 369.221C301.269 369.27 301.181 369.297 301.09 369.3C300.81 369.3 272.18 370.48 258.7 374.42C250.873 376.659 243.265 379.604 235.97 383.22C235.892 383.259 235.807 383.279 235.72 383.28L223.64 383.01L221.15 415.11L237.46 415.66C237.544 415.666 237.626 415.69 237.7 415.73C237.78 415.73 246.44 420.58 283.43 423.94C320.93 427.35 338.29 428.14 342.07 423.82C346.38 418.9 347.87 410.98 348.23 408.67C348.32 408.04 348.58 406.96 348.96 405.31C353.389 386.904 355.631 368.041 355.64 349.11C355.64 327.97 343.15 297.55 318.53 258.7L317.77 257.51C310.66 246.25 303.1 248.03 299.48 248.88C299.35 248.91 299.214 248.888 299.1 248.819C298.986 248.75 298.903 248.639 298.87 248.51C298.855 248.445 298.853 248.379 298.865 248.314C298.876 248.249 298.9 248.186 298.935 248.131C298.97 248.075 299.016 248.027 299.07 247.989C299.124 247.951 299.186 247.924 299.25 247.91C305.12 246.53 312.02 246.53 318.62 256.97L319.37 258.17C344.1 297.17 356.64 327.78 356.64 349.11C356.628 368.117 354.379 387.058 349.94 405.54C349.57 407.1 349.31 408.23 349.22 408.82C348.85 411.2 347.31 419.35 342.82 424.48C340.81 426.77 335.72 427.77 326.47 427.77Z" fill="#263238"/>
<path d="M307.35 364.44C307.262 364.442 307.176 364.419 307.1 364.375C307.024 364.331 306.962 364.267 306.92 364.19C306.862 364.092 306.839 363.977 306.856 363.864C306.872 363.751 306.927 363.648 307.01 363.57L323.56 348.17C323.606 348.123 323.66 348.086 323.72 348.061C323.78 348.036 323.845 348.023 323.91 348.023C323.975 348.023 324.04 348.036 324.1 348.061C324.16 348.086 324.214 348.123 324.26 348.17C324.307 348.217 324.344 348.272 324.369 348.333C324.395 348.394 324.408 348.459 324.408 348.525C324.408 348.591 324.395 348.656 324.369 348.717C324.344 348.778 324.307 348.834 324.26 348.88L309.26 362.88L324.75 358.38C324.883 358.343 325.024 358.36 325.144 358.427C325.264 358.495 325.353 358.607 325.39 358.74C325.427 358.873 325.41 359.015 325.342 359.135C325.275 359.255 325.163 359.343 325.03 359.38L307.52 364.46L307.35 364.44Z" fill="#263238"/>
<path d="M330.34 357.77C330.207 357.787 330.073 357.751 329.967 357.67C329.861 357.588 329.792 357.468 329.775 357.335C329.758 357.202 329.794 357.068 329.875 356.962C329.957 356.856 330.077 356.787 330.21 356.77L335.74 355.17C335.803 355.15 335.869 355.143 335.935 355.15C336.001 355.156 336.065 355.176 336.122 355.208C336.18 355.24 336.231 355.283 336.272 355.335C336.313 355.387 336.343 355.446 336.36 355.51C336.397 355.637 336.382 355.774 336.318 355.89C336.255 356.007 336.147 356.093 336.02 356.13L330.48 357.73C330.437 357.754 330.389 357.768 330.34 357.77Z" fill="#263238"/>
<path d="M326.75 373.57H326.57C319.31 370.77 301.22 369.33 301.03 369.32C300.964 369.315 300.9 369.297 300.842 369.267C300.783 369.237 300.731 369.195 300.688 369.145C300.645 369.095 300.613 369.037 300.593 368.974C300.572 368.912 300.565 368.846 300.57 368.78C300.575 368.714 300.593 368.65 300.623 368.592C300.653 368.533 300.695 368.481 300.745 368.438C300.795 368.395 300.853 368.363 300.916 368.343C300.978 368.322 301.044 368.315 301.11 368.32C301.86 368.38 319.53 369.79 326.93 372.63C326.996 372.642 327.058 372.666 327.114 372.702C327.171 372.739 327.219 372.785 327.257 372.84C327.295 372.895 327.322 372.957 327.336 373.022C327.351 373.087 327.352 373.154 327.34 373.22C327.328 373.286 327.303 373.348 327.267 373.404C327.231 373.461 327.185 373.509 327.13 373.547C327.075 373.585 327.013 373.612 326.948 373.626C326.883 373.641 326.816 373.642 326.75 373.63V373.57Z" fill="#263238"/>
<path d="M331.89 388.41C331.812 388.409 331.736 388.391 331.667 388.356C331.597 388.322 331.537 388.272 331.49 388.21C330.74 387.21 329.92 386.3 329.05 385.39C328.97 385.293 328.929 385.169 328.936 385.043C328.944 384.917 328.998 384.798 329.09 384.711C329.181 384.623 329.301 384.574 329.428 384.572C329.554 384.57 329.676 384.616 329.77 384.7C330.655 385.624 331.493 386.591 332.28 387.6C332.362 387.704 332.399 387.835 332.384 387.966C332.369 388.098 332.303 388.217 332.2 388.3C332.111 388.369 332.002 388.407 331.89 388.41Z" fill="#263238"/>
<path d="M325.92 382.32C325.805 382.317 325.693 382.279 325.6 382.21C320.522 378.098 314.665 375.057 308.38 373.27C308.314 373.255 308.252 373.227 308.197 373.188C308.143 373.149 308.096 373.099 308.06 373.042C308.024 372.985 308 372.921 307.989 372.855C307.978 372.789 307.98 372.721 307.995 372.655C308.01 372.589 308.038 372.527 308.077 372.472C308.116 372.417 308.166 372.371 308.223 372.335C308.28 372.299 308.343 372.275 308.41 372.264C308.476 372.253 308.544 372.255 308.61 372.27C315.045 374.087 321.043 377.193 326.24 381.4C326.321 381.465 326.38 381.554 326.408 381.654C326.437 381.755 326.433 381.861 326.398 381.959C326.362 382.057 326.297 382.142 326.212 382.201C326.126 382.26 326.024 382.291 325.92 382.29V382.32Z" fill="#263238"/>
<path d="M235.74 414.09C235.607 414.09 235.48 414.037 235.386 413.943C235.293 413.85 235.24 413.723 235.24 413.59L235 385.92C234.999 385.854 235.01 385.789 235.034 385.728C235.058 385.667 235.094 385.611 235.139 385.563C235.185 385.516 235.239 385.478 235.299 385.452C235.359 385.425 235.424 385.411 235.49 385.41C235.622 385.41 235.75 385.463 235.843 385.556C235.937 385.65 235.99 385.777 235.99 385.91L236.28 413.58C236.28 413.713 236.228 413.842 236.134 413.937C236.041 414.032 235.913 414.087 235.78 414.09H235.74Z" fill="#263238"/>
<path d="M233.74 407.24H221.74C221.607 407.24 221.48 407.187 221.386 407.094C221.293 407 221.24 406.873 221.24 406.74C221.24 406.607 221.293 406.48 221.386 406.386C221.48 406.293 221.607 406.24 221.74 406.24H233.74C233.873 406.24 234 406.293 234.094 406.386C234.187 406.48 234.24 406.607 234.24 406.74C234.237 406.872 234.184 406.998 234.091 407.091C233.997 407.184 233.872 407.237 233.74 407.24Z" fill="#263238"/>
<path d="M224.61 390.97C224.482 390.97 224.359 390.922 224.266 390.834C224.174 390.747 224.117 390.627 224.11 390.5C224.106 390.435 224.115 390.369 224.136 390.308C224.158 390.246 224.192 390.189 224.235 390.141C224.279 390.093 224.332 390.053 224.391 390.026C224.45 389.998 224.515 389.982 224.58 389.98L229.43 389.69C229.496 389.686 229.561 389.695 229.624 389.716C229.686 389.738 229.743 389.771 229.792 389.815C229.842 389.859 229.882 389.911 229.911 389.971C229.939 390.03 229.956 390.094 229.96 390.16C229.965 390.292 229.92 390.421 229.832 390.52C229.744 390.619 229.622 390.68 229.49 390.69L224.64 390.97H224.61Z" fill="#263238"/>
</svg>
