<svg width="338" height="83" viewBox="0 0 338 83" fill="none" xmlns="http://www.w3.org/2000/svg">
<path d="M309.701 13.7464C318.959 12.4204 328.143 11.1547 337.401 9.82865C337.327 9.52728 337.252 9.22592 337.177 8.86428C334.564 8.86428 331.876 8.86428 329.263 8.80401C329.263 8.68346 329.263 8.62319 329.338 8.50264C331.652 8.02046 333.967 7.53827 336.207 7.05609C336.132 6.815 336.057 6.63418 336.057 6.39309C332.473 6.39309 328.89 6.33282 324.932 6.33282C325.978 5.97118 326.724 5.73009 328.292 5.18763C326.799 4.70545 326.127 4.34381 325.455 4.22326C322.394 3.86162 319.258 3.74108 316.272 3.19862C315.152 3.0178 314.181 1.99316 313.136 1.33016C309.104 0.546612 304.475 -0.056117 299.92 0.00415596C289.766 0.124702 279.612 0.305521 269.458 0.90825C256.989 1.63153 244.521 2.89726 232.052 3.80135C216.597 4.88626 201.067 5.73009 185.537 6.815C178.444 7.29718 171.351 7.77937 164.333 8.56291C154.926 9.58755 145.518 11.0341 136.111 12.119C125.807 13.3245 115.429 14.1683 105.2 15.6148C89.7451 17.7847 72.722 10.9591 57.3415 13.5508C45.2462 15.6001 33.3001 18.1315 21.1301 20C16.4264 20.7233 16.2024 33.5762 12.0959 34.8419C22.0261 33.9981 31.4336 30.2612 41.6623 31.8885C21.8767 33.8775 11.3493 37.0117 8.73611 41.713C9.78139 41.8939 10.8267 42.0747 12.6186 42.376C9.70672 44.365 7.31752 46.0527 4.85365 47.6801C5.07764 47.8609 5.22696 48.0417 5.45095 48.1622C10.6773 47.6198 15.9037 47.0171 21.1301 46.4746C21.2048 46.7157 21.2794 47.0171 21.3541 47.2581C20.2342 47.4992 19.1142 47.8006 17.9943 48.0417C13.6638 48.9458 9.33341 49.7896 5.07764 50.8142C2.91242 51.2964 1.49383 52.3211 3.28573 54.5512C5.22696 54.0087 7.24286 53.406 9.25875 52.8635C5.22696 54.6717 3.3604 57.5045 0.971191 61.0606C3.3604 60.7593 4.70432 60.5785 5.45095 60.4579C5.67494 62.5072 6.27224 64.3757 5.97359 66.1236C5.52561 68.655 4.70432 71.066 7.39218 73.1152C7.69083 73.3563 7.76549 73.8385 7.91482 74.2001C8.51212 76.7919 10.528 77.696 13.5892 77.4549C21.2048 76.7919 28.7457 76.2494 36.3613 75.4659C45.0968 74.5618 53.7577 73.5371 62.4186 72.5125C64.4345 72.2714 66.525 72.2111 68.5409 71.7892C70.5568 71.3673 72.4234 70.403 74.4393 70.0413C77.5751 69.4989 80.7856 69.318 83.9961 68.9564C91.6863 67.992 99.3019 66.9674 106.843 66.003C108.784 69.8002 108.112 70.5838 103.483 70.403C102.886 70.403 102.288 70.403 101.691 70.5235C96.6887 71.307 91.761 72.3317 86.7586 72.8741C79.2177 73.6577 71.6021 73.9591 63.9865 74.6221C61.8213 74.8029 58.9094 73.8385 57.7895 76.6111C57.7148 76.7919 56.2216 76.6111 55.4749 76.5508C54.9523 76.4905 54.4297 76.1289 53.9817 76.2494C49.7259 77.2741 45.3955 78.4192 41.1397 79.5644C39.7958 75.7672 37.1079 77.6357 34.868 77.9973C36.5853 78.0576 38.3025 78.1179 40.0198 78.1782L40.0944 79.1425C34.7934 80.1672 29.4923 81.1918 24.1913 82.2164C24.2659 82.4575 24.3406 82.7589 24.4153 83C27.2524 82.5178 30.0896 81.9151 33.0015 81.5534C43.6782 79.9864 54.4297 78.359 65.1811 77.0933C73.8419 76.0686 82.5028 75.4659 91.2383 74.7426C94.2249 74.5015 97.286 74.7426 100.198 74.381C106.544 73.5974 112.816 72.3317 119.162 71.6687C124.911 71.1262 130.735 71.1865 136.484 70.8851C140.59 70.6441 144.921 69.4386 148.579 69.74C155.672 70.3427 162.093 67.329 169.186 68.655C171.426 69.077 174.114 67.8112 176.578 67.4496C179.266 67.0277 181.953 66.5455 184.641 66.4852C196.737 66.3044 208.832 66.3647 221.002 66.2441C222.197 66.2441 223.317 65.7619 224.511 65.5811C226.154 65.34 227.871 65.2195 229.514 65.0387C228.692 65.5209 227.946 66.1236 227.05 66.2441C226.975 66.2441 226.975 66.2441 226.9 66.2441L230.783 65.8825C230.559 65.8825 230.26 65.8825 230.036 65.8825C229.962 65.8825 229.812 65.34 229.738 64.9784C233.993 64.9181 238.249 64.7976 242.505 64.7373V64.7976L255.347 63.5921C251.091 63.0497 246.91 62.1456 242.505 63.4113C241.833 63.5921 240.862 63.0497 240.041 62.9291C238.846 62.7483 237.577 62.5072 236.383 62.5072C227.423 62.6277 218.464 62.8688 209.579 63.0497C207.264 63.1099 204.427 62.6277 202.71 63.5318C199.275 65.2195 196.811 63.8935 194.049 62.7483C193.228 62.3867 192.406 61.7237 191.585 61.7237C188.822 61.7839 186.135 62.0853 183.297 62.2661C183.82 61.6031 184.193 61.1812 184.492 60.8196C183.297 60.4579 182.103 59.8552 180.908 59.8552C180.012 59.8552 179.116 60.5785 178.22 61.0004C178.967 61.4223 179.714 61.8442 180.61 62.3264C176.951 62.8086 173.517 63.2305 170.007 63.6524C169.186 63.7729 167.693 63.7729 167.544 63.4716C165.901 60.5182 162.989 61.9647 160.525 62.025C158.435 62.0853 156.344 62.3264 154.254 62.5072C152.536 62.6277 150.595 62.5072 150.744 64.7373C150.744 64.9784 149.027 65.7619 148.505 65.5811C146.713 64.9784 144.995 64.014 143.353 63.2305C143.353 62.2058 143.428 61.1812 143.502 59.9757L148.505 59.6141C148.579 59.7949 148.579 59.9757 148.654 60.1566C147.235 60.6387 145.817 61.1209 143.726 61.7839C144.995 62.0853 145.443 62.3264 145.891 62.3264C157.688 61.1812 169.485 59.9757 181.207 58.8306C183.148 58.6497 185.761 59.5538 185.537 56.1785C185.985 56.4196 186.433 56.6607 186.881 56.8415C186.657 57.9265 186.433 59.0716 186.284 59.9757C192.481 59.2525 199.35 58.4689 205.846 57.7456C205.099 57.6854 203.83 57.6854 202.635 57.6251C204.726 57.2635 207.189 55.6964 208.309 58.6497C208.384 58.8908 209.429 59.1922 209.952 59.1319C211.819 58.7703 213.685 58.2881 215.552 57.8662C215.552 57.7456 215.552 57.6854 215.552 57.5648C214.432 57.5045 213.312 57.5045 212.117 57.4443C212.117 57.2032 212.117 56.9621 212.117 56.721C219.061 56.5402 226.004 56.3594 233.023 56.1785C233.023 56.3594 233.023 56.5402 233.097 56.6607C231.679 56.9018 230.335 57.0826 229.066 57.3237L229.439 60.5182C234.516 59.2525 239.444 57.9867 244.521 56.721C245.043 57.6251 245.566 58.4689 245.865 59.0114L289.244 55.9374C289.244 55.7566 289.244 55.5758 289.244 55.395C288.497 55.0936 287.825 54.8525 286.183 54.1895C289.094 53.5868 291.11 53.1649 293.126 52.743C293.052 52.5622 293.052 52.3813 292.977 52.1403C289.692 52.08 286.332 51.9594 283.047 51.8992C283.047 51.6581 282.972 51.4773 282.972 51.2362C283.868 50.8745 284.764 50.5732 285.585 50.2115C285.511 49.9704 285.436 49.7293 285.436 49.4882L274.013 50.2718C274.013 50.0307 273.938 49.7293 273.938 49.4882C275.356 49.3074 276.775 49.2472 278.119 49.0061C279.314 48.8252 280.807 48.8252 281.553 48.2225C285.511 44.9678 289.244 43.9431 295.291 44.9678C293.35 45.3294 292.081 45.5102 290.812 45.7513C293.948 46.2938 297.009 46.5951 300.07 46.8362C303.355 47.0773 304.998 45.028 307.909 43.1596C306.341 42.4966 305.072 42.0144 304.176 41.5925C304.624 41.4719 305.446 41.1706 307.237 40.6281C299.174 39.7843 294.47 40.8089 294.993 43.5815C293.798 42.6774 293.126 42.2555 292.454 41.7733C292.678 41.4719 292.977 41.1706 293.201 40.9295C291.558 40.5678 289.99 40.2665 288.348 39.9048C288.348 39.6035 288.348 39.2418 288.422 38.9405C294.395 38.9405 300.443 38.8802 306.491 38.8802C305.67 37.3734 304.624 35.6255 303.579 33.8173C304.923 33.4556 305.893 33.2146 306.789 32.9735C306.789 32.7926 306.715 32.5515 306.715 32.3707L282.823 34.0584C282.748 34.2392 282.524 34.9625 282.001 36.2282C279.687 31.8283 274.685 34.8419 270.802 33.2146C273.117 32.7926 274.535 32.4913 276.028 32.2502C276.028 32.0694 275.954 31.8885 275.954 31.7077C273.639 31.3461 271.25 30.9242 268.935 30.5625C269.01 30.3214 269.01 30.1406 269.085 29.8995C273.191 29.8995 277.298 29.8995 281.479 29.8995C281.479 30.0804 281.479 30.2612 281.553 30.442C279.986 30.6831 278.418 30.8639 276.626 31.105C280.732 33.5762 287.825 32.8529 307.835 28.1516C303.28 25.7407 298.502 28.2722 294.395 26.5243C299.249 25.4393 304.102 24.3544 308.955 23.3298C308.955 23.2092 308.88 23.0887 308.88 22.9079L302.534 23.3901C302.534 23.2695 302.459 23.149 302.459 23.0284C305.819 22.486 309.253 21.9435 312.613 21.4613C312.613 21.3408 312.538 21.2202 312.538 21.16C307.088 21.2805 301.638 21.4613 296.187 21.5819C296.187 21.3408 296.113 21.16 296.113 20.9189C310 19.171 323.962 17.4833 337.849 15.7957C337.849 15.6751 337.849 15.6148 337.849 15.5546C328.516 15.1327 319.258 14.7108 309.925 14.2888C309.627 13.9272 309.701 13.8669 309.701 13.7464ZM17.3223 39.6637C17.2477 39.3624 17.0983 39.061 17.0237 38.8199C24.1166 37.4337 31.2842 36.0474 38.3772 34.6611C38.4518 34.9625 38.5265 35.2638 38.6758 35.5652C31.5082 36.9515 24.4153 38.2775 17.3223 39.6637ZM133.721 67.2688C133.871 66.7866 133.945 66.3044 134.244 65.4003C131.332 65.4003 128.42 65.4003 125.434 65.4003C125.434 65.0989 125.509 64.7976 125.509 64.4962C128.122 64.0743 130.735 63.4113 133.348 63.2907C134.617 63.2305 135.887 64.2551 137.156 64.7976C138.35 65.2798 139.62 65.8222 141.71 66.666L133.721 67.2688ZM171.501 58.047L158.808 58.9511C158.808 58.6497 158.733 58.3484 158.733 58.047L171.501 57.1429C171.501 57.4443 171.501 57.7456 171.501 58.047ZM235.487 48.2828C231.455 48.2828 227.423 48.2828 223.317 48.3431C223.317 48.2225 223.317 48.0417 223.317 47.9211L235.412 47.0773C235.487 47.439 235.487 47.8609 235.487 48.2828ZM233.396 32.2502C233.396 32.0091 233.321 31.7077 233.321 31.4666C236.831 31.2255 240.116 29.4776 244.595 31.4666L233.396 32.2502ZM261.843 56.3594L248.851 57.2635C248.777 56.8415 248.627 56.4196 248.553 56.058C249.971 55.9375 251.39 55.6964 252.734 55.6964C254.75 55.7566 256.84 56.058 258.856 56.058C259.976 56.058 261.693 56.058 260.2 54.4306C260.125 54.3703 260.797 53.6471 260.947 53.6471C261.395 53.7676 262.141 54.1293 262.141 54.3703C262.29 55.0334 261.992 55.6964 261.843 56.3594ZM278.791 39.4829C280.882 40.8692 283.719 36.7707 285.735 40.0857L278.642 40.5678C278.716 40.2062 278.791 39.8446 278.791 39.4829Z" fill="#0F4A8A"/>
</svg>
